/* XPM */
static char *_5b010426add426180d7aee7f839780aNBYulKVxeHNvBWRz[] = {
/* columns rows colors chars-per-pixel */
"64 64 61 1 ",
"  c #FFDEAD",
". c #060101",
"X c #0B0202",
"o c #100302",
"O c #170503",
"+ c #190603",
"@ c #190504",
"# c #16030B",
"$ c #12010E",
"% c #16030E",
"& c #1A0410",
"* c #210705",
"= c #230805",
"- c #340B08",
"; c #55130C",
": c #5B140D",
"> c #5F150E",
", c #67170F",
"< c #68170F",
"1 c #761A11",
"2 c #750859",
"3 c #79095C",
"4 c #801C13",
"5 c #871E11",
"6 c #851D14",
"7 c #952116",
"8 c #992217",
"9 c #A02318",
"0 c #BC2A1B",
"q c #BF2A1C",
"w c #B52134",
"e c #C02A1C",
"r c #CF2D1E",
"t c #D52F1B",
"y c #D32E1E",
"u c #D42F1E",
"i c #D93117",
"p c #DB301B",
"a c #D9301F",
"s c #CF2D23",
"d c #CE2C25",
"f c #CD2C29",
"g c #D72F20",
"h c #D92F20",
"j c #DB3021",
"k c #DF3121",
"l c #C3283A",
"z c #C42838",
"x c #E23121",
"c c #E63222",
"v c #E83322",
"b c #830C58",
"n c #991451",
"m c #BD2451",
"M c #991460",
"N c #AC1E64",
"B c #A11A6C",
"V c #A71C6D",
"C c #A81C6B",
"Z c #AC1D70",
"A c #B92072",
/* pixels */
"                                                                ",
"                                                                ",
"                                                                ",
"                                                                ",
"                                                                ",
"                                                                ",
"                                                                ",
"                                                                ",
"                                                                ",
"                                                                ",
"                                                                ",
"                                                                ",
"                                                                ",
"                                                                ",
"                                                                ",
"                                                                ",
"                                                                ",
"                                                                ",
"                                                                ",
"                                                                ",
"                                                                ",
"                                                                ",
"                                                                ",
"                                                                ",
"                                                                ",
"                                                                ",
"                                                                ",
"                                                                ",
"                                                                ",
"                                                                ",
"                                                                ",
"                                                                ",
"                                                                ",
"                                                                ",
"                                                                ",
"                                                                ",
"                                                                ",
"                                                                ",
"                                                                ",
"                                                                ",
"                                j 1er                           ",
"                            :;- c;9yx                           ",
"                            xy4 kyyyc                           ",
"                            xywbiyy0                            ",
"                            xylNCyydZph8                        ",
"                         >65msfzVyydVty7                        ",
"                     XO@ 7ytNdyyByydNtq6 @OX                    ",
"                     <hv 9kyyyyu2uyyygO  vh<                    ",
"                     ,gc  +jggga3aggganMApg,                    ",
"                     o*=  .*****$*****#%&**o                    ",
"                                                                ",
"                                                                ",
"                                                                ",
"                                                                ",
"                                                                ",
"                                                                ",
"                                                                ",
"                                                                ",
"                                                                ",
"                                                                ",
"                                                                ",
"                                                                ",
"                                                                ",
"                                                                "
};
