/* XPM */
static char *c1b4c0d4fd8c4b02fe578d95745e8b1cLXbNOxxk9ZJt9BiC[] = {
/* columns rows colors chars-per-pixel */
"64 64 152 2 ",
"   c #FFDEAD",
".  c #0B0204",
"X  c #0E0907",
"o  c #0D0208",
"O  c #130504",
"+  c #1B0704",
"@  c #14030D",
"#  c #1A040D",
"$  c #160D0B",
"%  c #1A0D0B",
"&  c #1B0411",
"*  c #240906",
"=  c #2A0A07",
"-  c #28080D",
";  c #320C09",
":  c #3A0D0B",
">  c #3D120E",
",  c #250515",
"<  c #250518",
"1  c #2B051C",
"2  c #360B11",
"3  c #3A0C12",
"4  c #32061D",
"5  c #221411",
"6  c #281714",
"7  c #291814",
"8  c #321C18",
"9  c #3A211C",
"0  c #330621",
"q  c #3B0726",
"w  c #3E0924",
"e  c #420F0A",
"r  c #45100B",
"t  c #4C120C",
"y  c #5D150E",
"u  c #460F11",
"i  c #400B1B",
"p  c #4B0F18",
"a  c #4C1111",
"s  c #50101A",
"d  c #66170F",
"f  c #641710",
"g  c #681710",
"h  c #6D1911",
"j  c #65141C",
"k  c #6A161A",
"l  c #731A12",
"z  c #7E1C13",
"x  c #7D1C1A",
"c  c #51241D",
"v  c #6E251D",
"b  c #7A261C",
"n  c #490B26",
"m  c #42072B",
"M  c #43082B",
"N  c #4F0A2D",
"B  c #500A2F",
"V  c #590E2A",
"C  c #4E0933",
"Z  c #540A37",
"A  c #511830",
"S  c #621620",
"D  c #6B1425",
"F  c #6E132B",
"G  c #791822",
"H  c #73142C",
"J  c #610B3C",
"K  c #7C1532",
"L  c #7F133C",
"P  c #701938",
"I  c #432721",
"U  c #472923",
"Y  c #4D2C26",
"T  c #502E28",
"R  c #55312A",
"E  c #5C352E",
"W  c #5F3730",
"Q  c #60372F",
"!  c #643A32",
"~  c #683C34",
"^  c #640B41",
"/  c #6C0B46",
"(  c #6E0C48",
")  c #730E42",
"_  c #750C4C",
"`  c #7B0D4D",
"'  c #7E1241",
"]  c #7E0D52",
"[  c #851E14",
"{  c #8A1F15",
"}  c #851C1D",
"|  c #84281E",
" . c #912016",
".. c #9C2317",
"X. c #9E231A",
"o. c #A4241A",
"O. c #AC261B",
"+. c #A42A1E",
"@. c #A92B1F",
"#. c #B3291B",
"$. c #BB2A1C",
"%. c #8E1D25",
"&. c #911E25",
"*. c #87153D",
"=. c #8B1739",
"-. c #871B39",
";. c #921B35",
":. c #A41C3E",
">. c #AA1E3A",
",. c #8F2625",
"<. c #9D2121",
"1. c #9E2329",
"2. c #A42226",
"3. c #AC232A",
"4. c #B52722",
"5. c #B62C20",
"6. c #BD2823",
"7. c #B5252B",
"8. c #BD262E",
"9. c #AF2036",
"0. c #AE2038",
"q. c #B42234",
"w. c #B92431",
"e. c #C32B1E",
"r. c #CD2D1E",
"t. c #D22E1F",
"y. c #C62A26",
"u. c #CC2C23",
"i. c #C0272C",
"p. c #C4292A",
"a. c #D12E20",
"s. c #800E4F",
"d. c #840F4F",
"f. c #831243",
"g. c #881442",
"h. c #871840",
"j. c #87104F",
"k. c #8F134B",
"l. c #8B114D",
"z. c #8C114C",
"x. c #951647",
"c. c #961646",
"v. c #981745",
"b. c #971840",
"n. c #9B1843",
"m. c #9C1942",
"M. c #9B1844",
"N. c #931549",
"B. c #830E51",
"V. c #860F50",
"C. c #861050",
"Z. c #A01A40",
/* pixels */
"                                                                                                                                ",
"                                                                                                                                ",
"                                                                                                                                ",
"                                                                                                                                ",
"                                                                              + - .                                             ",
"                                                                          * } 2.9.&                                             ",
"                                                                          h a.a.u.) @                                           ",
"                                                            . t O     .   2 p.9.l.] &                                           ",
"                                                            y r...e [ O.t K v.8.) & .                                           ",
"                                                            h t.t.t.t.t.t.u.x.L #                                               ",
"                                                          . O.t.t.y.w.a.t.8._ 0                                                 ",
"                                                          O ..t.t.p.Z.a.t.X..                                                   ",
"                                                .     r g $.r.t.t.>.q.t.t.#.+                                                   ",
"                                              = O.o.r $.t.t.t.t.t.a.8.8.a.t.X..                                                 ",
"                                              3 p.t.t.t.t.t.t.t.t.t.:.B.>.u.O..   @ @ .                                         ",
"                                              X.t.t.t.t.p.8.t.t.t.t.y.m.>.v.L . < ` d.Z                                         ",
"                                              i 1.a.t.t.0.:.u.8.a.t.8.u.w.] _ J J v.p.V                                         ",
"                                              = y.t.t.t.a.u.i.N.>.w.n.u.9.x.B.>.w.N.<..                                         ",
"                                              # &.y.t.t.u.w.l.>.q.] B.k.x.0.B.Z.u.y.l ; @                                       ",
"                                                . 2 l r.u.m.l.8.z.B.V.q.V.] z.a.t.t.t.u.s                                       ",
"                                                    . #.t.a.8.V.B.B.:.w.l.B.l.u.t.t.t.6.,                                       ",
"                                                .   . #.t.t.u.j.B.Z.u.a.8.m.B.m.8.a.t.m._ .                                     ",
"                                              O  .k l r.t.t.w.B.B.>.t.t.t.u.x.B.q.q.0.` Z .                                     ",
"                                              r t.y.i.w.y.u.q.N.x.p.t.t.t.>.l.>.a.u.v.] 1                                       ",
"                                              } w.t.a.:.p.>.N.8.:.t.t.t.t.y.M.u.t.t.u.g.@                                       ",
"                                          O d G z.u.t.a.t.u.0.9.>.y.t.t.t.a.v.v.u.t.p.V                                         ",
"                                        . #.t.y.>.a.t.t.t.t.t.t.a.a.t.a.a.>.B.B.>.p.f.&                                         ",
"                                          h t.t.t.t.t.t.t.t.t.t.t.t.u.q.>.x.m.p.y.N.C                                           ",
"                                          t r.t.t.t.t.t.t.t.t.t.t.t.t.y.:.i.t.t.a.%..                                           ",
"                                          . D $.t.a.w.p.t.t.t.t.t.t.t.t.w.8.t.t.r.r                                             ",
"                                          . D t.t.a.Z.q.t.t.a.p.y.t.a.u.Z.>.a.u.>.N m &                                         ",
"                                        , ' x.y.t.a.p.u.w.1.;.Z.p.t.:.w.q.:.Z.y.N.m.l.` 0                                       ",
"                                      # H p.w.w.p.:.>.z.V.A P x.0.t.:.w.k.B.B.m.y.t.w.B.D o.u .                                 ",
"                                      } a.t.t.p.p.w.N.B.l.h.p.t.$.v -.Z.k.B.B.:.a.t.p.9.a.t.8.,                                 ",
"                                      { t.t.t.t.t.a.:.n.Z.a.t.t.t.| u.a.w.B.j.q.a.t.a.u.t.t.t.r .                               ",
"                                      * r.t.t.t.t.t.a.w.k.a.t.t.t.e.#.t.a.9.v.a.t.t.y.p.a.t.t.r.r                               ",
"                                      . o.t.t.t.t.t.p.:.B.w.t.t.t.t.t.t.t.t.u.t.t.t.t.:.q.t.t.t.j                               ",
"                                    . r $.t.t.t.t.t.q.] k.8.t.t.t.t.t.t.t.t.t.t.t.t.t.8.:.a.u.8.x.m                             ",
"                              O * [ X.;.a r.t.t.t.y.0.l.8.t.t.t.t.p.m.p.a.u.t.u.a.t.a.8.z.u.y.k.B.] q                           ",
"                              l u.t.y.N.x.8.t.t.t.8.:.q.:.a.t.t.y.0.N.V.:.N.:.x.y.p.n.B.0.t.p.x.>.] 1                           ",
"                              O 7.t.t.u.u.u.t.t.t.u.v.>.>.a.t.t.a.a.:.w.q.B.B.B.x.m.B.l.u.a.:.w.w.` o                           ",
"                              . <.u.t.p.a.t.t.t.t.u.8.t.t.t.p.a.t.t.q.q.z.j.x.B.B.B.B.N.v.q.l.l.J @                             ",
"                                4 2.>.x.a.{ ; ; z f k t.t.u.x.i.t.t.a.8.v.w.y.N.l.w.k.>.m.] B./ ,                               ",
"                                  p u.:.e.;       . ..t.t.t.9.8.t.t.t.t.t.t.t.u.i.w.C.B.B.B.^ o                                 ",
"                                . =.p.N.;..       O e.t.t.t.a.t.t.t.u.8.a.t.t.t.q.>.l.B.] _ 0                                   ",
"                                . M B ( q         h t.t.t.t.t.t.t.t.w.x.u.t.t.t.8.u.w.v.m .                                     ",
"                                      o .       , 3.t.t.t.t.t.t.t.t.u.i.t.t.t.t.y.u.t.b.1                                       ",
"                                                k t.t.t.t.a.x b r.t.5.,.t.u.u.t.y.u.u.*..                                       ",
"                                                + e.y.a.e.4.w 8 @.| c b +.S 8.u.w.u.;.1                                         ",
"                                                  : F o.* . . U Y Y ! 9 9 > u.w.x.m.^                                           ",
"                                                    . .     . E W E ! Y ! % n s.] ] ^                                           ",
"                                                            . E ~ ~ ! T ~ $   @ & & @                                           ",
"                                                            . E E E ~ R ~ $                                                     ",
"                                                            X Q E E ~ ~ ~ 9                                                     ",
"                                                          . E ~ E E ~ T ~ Y                                                     ",
"                                                            X Y ~ ~ ! I E 9                                                     ",
"                                                              6 E E ! T ~ Y $                                                   ",
"                                                              6 E R W Y E R T                                                   ",
"                                                              6 E Y R T R E 5                                                   ",
"                                                              6 E E ~ ~ R E 5                                                   ",
"                                                              6 T E ~ R R E 5                                                   ",
"                                                              6 R E ! T ~ ~ 5                                                   ",
"                                                              6 W E ! T E ! 5                                                   ",
"                                                              7 E E ~ T R W 5                                                   "
};
