/* XPM */
static char *df2b410ceb9a47fd808c3dc4c2e25ef3q1QPTTbwUuwmcYul[] = {
/* columns rows colors chars-per-pixel */
"64 64 179 2 ",
"   c #FFDEAD",
".  c gray6",
"X  c #222222",
"o  c #3E3E3E",
"O  c #662D57",
"+  c #6A2F56",
"@  c #6F2F58",
"#  c #723057",
"$  c #72325C",
"%  c #7F3A5C",
"&  c #7D3565",
"*  c #4B4B4B",
"=  c #7C4360",
"-  c #7F4862",
";  c #81375D",
":  c #87366D",
">  c #933C6B",
",  c #953C73",
"<  c #9D3E75",
"1  c #A03F76",
"2  c #814B65",
"3  c #944D75",
"4  c #A5486F",
"5  c #A04075",
"6  c #A84772",
"7  c #A54971",
"8  c #AD4C76",
"9  c #A44179",
"0  c #AB437B",
"q  c #B24C75",
"w  c #B1457E",
"e  c #B74C7E",
"r  c #AB5375",
"t  c #A75B7C",
"y  c #B65479",
"u  c #92647B",
"i  c #A9697F",
"p  c #8D6F85",
"a  c #976C81",
"s  c #97778C",
"d  c #9F748C",
"f  c #977C91",
"g  c #9A7C92",
"h  c #AA6B80",
"j  c #B46382",
"k  c #B66887",
"l  c #B7688B",
"z  c #A77185",
"x  c #A97487",
"c  c #A9778B",
"v  c #B37085",
"b  c #B47A8C",
"n  c #C04C80",
"m  c #CA4F86",
"M  c #CD5287",
"N  c #C15888",
"B  c #D05287",
"V  c #D55589",
"C  c #D55B8C",
"Z  c #DB5A8C",
"A  c #E25C8E",
"S  c #E45D90",
"D  c #E85F90",
"F  c #C46283",
"G  c #D1668E",
"H  c #C76E91",
"J  c #D66591",
"K  c #DF6190",
"L  c #DD6F96",
"P  c #DD7397",
"I  c #E8638F",
"U  c #E46692",
"Y  c #ED6393",
"T  c #EB6C96",
"R  c #F46694",
"E  c #F46A97",
"W  c #F96A97",
"Q  c #FD6D98",
"!  c #E27296",
"~  c #EC779B",
"^  c #E37D9D",
"/  c #F3769B",
"(  c #FB739B",
")  c #FC7B9D",
"_  c #FFDEAD",
"`  c #9B8295",
"'  c #9F8699",
"]  c #A2899A",
"[  c #AE8DA1",
"{  c #B48FA3",
"}  c #BB8CA2",
"|  c #A791A2",
" . c #AC94A4",
".. c #AE9AA9",
"X. c #B490A3",
"o. c #B39DAC",
"O. c #B4A1AF",
"+. c #B6A2B1",
"@. c #B9A6B3",
"#. c #BBAAB6",
"$. c #C58090",
"%. c #DB849C",
"&. c #D4889C",
"*. c #E5829D",
"=. c #EC839D",
"-. c #F0829F",
";. c #DB8DA1",
":. c #E485A0",
">. c #EE85A1",
",. c #ED8AA2",
"<. c #F683A2",
"1. c #FC83A2",
"2. c #F38CA5",
"3. c #FD8BA5",
"4. c #FB85AA",
"5. c #FC8DA9",
"6. c #F290A7",
"7. c #FA90A7",
"8. c #F393A8",
"9. c #FD94AA",
"0. c #F59AAB",
"q. c #FC9DAD",
"w. c #FD9FB2",
"e. c #C0AFBB",
"r. c #C2B2BE",
"t. c #EBA2AC",
"y. c #F2A1AC",
"u. c #FEA0AF",
"i. c #FDA5B2",
"p. c #FEACB5",
"a. c #FBA2BB",
"s. c #FEAEB9",
"d. c #FDB0B6",
"f. c #FDB3BC",
"g. c #C4B5C1",
"h. c #C7B8C3",
"j. c #CABBC6",
"k. c #CBBFC8",
"l. c #E7AEC1",
"z. c #FBB3C5",
"x. c #FDBBC3",
"c. c #FABACC",
"v. c #D1C2CC",
"b. c #D3C8CF",
"n. c #D4C9D1",
"m. c #D9D0D7",
"M. c #DDD3DA",
"N. c #E7C6CD",
"B. c #EDC2C9",
"V. c #FBC1C6",
"C. c #FBC6CC",
"Z. c #FBC9CE",
"A. c #FAC1D0",
"S. c #FACDD2",
"D. c #E0D9DE",
"F. c #FAD1D5",
"G. c #FAD5DC",
"H. c #FAD9DC",
"J. c #E1DDE1",
"K. c #FADFE5",
"L. c #E6E0E5",
"P. c #E8E3E7",
"I. c #EAE5EA",
"U. c #EDE9EC",
"Y. c #F9E2E5",
"T. c #F9E5E8",
"R. c #F9E9EA",
"E. c #F9EBEC",
"W. c #F8EDEE",
"Q. c #F9EDF0",
"!. c #F4F2F4",
"~. c #F7F6F7",
"^. c #F8F1F2",
"/. c #F8F3F4",
"(. c #F8F5F5",
"). c #F8F7F8",
"_. c #F8F9F9",
"`. c #FDFDFD",
"'. c #FFDEAD",
/* pixels */
"                                                                                                                                ",
"                                                                                                                                ",
"                                                                                                                                ",
"                                                                                                                                ",
"                                                                                                                                ",
"                                                                                                                                ",
"                                                                                                                                ",
"                                                                                                                                ",
"                                                                                                                                ",
"                                                                                                                                ",
"                                                                                                                                ",
"                      _ _ _ _ _ _ _ _ _ _ _ _ _ _ _ _ _ _ _ _ _ _ _ _ _ _ _ _ _ _ _ _ _ _ _ _ _ _ _ _ _ _                       ",
"                      _ '.'.'.'.'.'.'.'.'.'.'.'.'.'.'.'.'.'.'.'.'.'.'.'.'.'.'.'.'.'.'.'.'.'.'.'.'.'.'.'._                       ",
"                      _ '.'.'.'.'.'.'.'.'.'.'.'.'.'.'.'.'.'.'.'.'.'.'.'.'.'.'.'.'.'.'.'.'.'.'.'.'.'.'.'._                       ",
"                      _ '.'.'.'.'.'.'.'.'.'.'.'.'.'.'.'.'.'.'.'.'.'.'.'.'.'.'.'.'.'.'.'.'.'.'.'.'.'.'.'._                       ",
"                      _ '.'.'.'.'.'.'.'.'.'.'.'.'.'.'.'.'.'.'.'.'.'.'.'.'.'.'.'.'.'.'.'.'.'.'.'.'.'.'.'._                       ",
"                      _ '.'.'.'.'.'.'.'.'.'.'.'.'.'.'.'.'.'.'.'.'.'.'.'.'.'.'.'.'.'.'.'.'.'.'.'.'.'.'.'._                       ",
"                      _ '.'.'.'.'.'.'.'.'.'.'.'.'.'.'.'.'.'.'.'.'.'.'.'.'.'.'.'.'.'.'.'.'.'.'.'.'.'.'.'._                       ",
"                      _ '.'.'.'.'.'.'.'.'.'.'.'.'.'.'.'.] ] ] ] ] ] #.'.'.'.'.'.'.'.'.'.'.'.'.'.'.'.'.'._                       ",
"                      _ '.'.'.'.'.'.'.'.'.'.'.'.~.o.` ` O.o.j o.{ k ..` ` g.'.'.'.'.'.'.'.'.'.'.'.'.'.'._                       ",
"                      _ '.'.'.'.'.'.'.'.'.'.'.o.f o.@.@.~.(.a.Q.Y.z.L.} l  .f j.'.'.'.'.'.'.'.'.'.'.'.'._                       ",
"                      _ '.'.'.'.'.'.'.'.'.'.o.O.h.U.^.F.C.Z.T.(.T.C._.H.x.J.g.| j.'.'.'.'.'.'.'.'.'.'.'._                       ",
"                      _ '.'.'.'.'.'.'.'.+.p +.B.Z.E.(.T.Y.Y._.^.S.T.(.K.Z.~.(.D.| k.'.'.'.'.'.'.'.'.'.'._                       ",
"                      _ '.'.'.'.'.'.'.+...k.I.R.Y.Z.E.S.Z.^.W.S.R.(.R.S.H.V.H._.D.' v.'.'.'.'.'.'.'.'.'._                       ",
"                      _ '.'.'.'.'.).O.o.B.x.x.Y.S.Y./.T.R.W.Z.T.^.T.S.W.^.R.H.H.c.l.] k._.'.'.'.'.'.'.'._                       ",
"                      _ '.'.'.'.'.e.| B.f.3.) 4.G.(.Q.a.T.a.E.^.f.a.E._._._.^.c.9.f.N.` n.'.'.'.'.'.'.'._                       ",
"                      _ '.'.'.'.!. .b p.9.A.Y.Y.x.f.5.q.K.4.W.x.i.x.Y.f.i.1.9.C.Z.f.s.N.g v.).'.'.'.'.'._                       ",
"                      _ '.'.'.'.r.x t.5.c.C.x.x.p.1.q.p.Y.4.E.s.1.x.G.3.i.u.5.q.G.Z.5.i.t.a m.'.'.'.'.'._                       ",
"                      _ '.'.'.'.o.h p.1.9.3.9.i.i.1.u.p.f.G.d.i.) p.V.A.1.p.p.9.) 9.i.3.9.y.2 L.'.'.'.'._                       ",
"                      _ '.'.'.'.o.i p.3.9.i.1.) i.i.1.i.i.5.p.i.) i.p.w.1.p.p.i.i.3.9.i.1.0.- L.'.'.'.'._                       ",
"                      _ '.'.'.'.o.7 <.q.3.9.u.u.p.p.1.8.0.q.) ) i.) ) 3.i.<.1.q.i.p.1.9.3.,.= L.'.'.'.'._                       ",
"                      _ '.'.'.'.o.7 Z T 5.1.) ) q.p.8.J C T u.i.i.0.0.u.,.Z W U ^ p.1.7.q.G # L.'.'.'.'._                       ",
"                      _ '.'.'.'.o.> D R R 5.q.q.1.6.C R R M ( q.2.B V Y R Y A Q Z ^ L Y Z T % L.'.'.'.'._                       ",
"                      _ '.'.'.'.h.t I A A Y W Q >.J R Q Y V Y Y Y Y Y B Z R W Q Z U ) ) ) %.u I.'.'.'.'._                       ",
"                      _ '.'.'.'.'. .r ( A M A W M Y W Y V R M M M V Y R Y Z Y Y M H ;.;.&.d M.'.'.'.'.'._                       ",
"                      _ '.'.'.'.'.h.c *.1.1.K A Z / E m W Q ) Q W A V A ( ~ N 0 < , , , + n.'.'.'.'.'.'._                       ",
"                      _ '.'.'.'.'.'.r.b $.$.F n Y >.<.L 1.1.>.Q E ! 1.1.>.&.l , < 0 0 9 @ n.'.'.'.'.'.'._                       ",
"                      _ '.'.'.'.'.'.'.r.f f f 3 ! K *.:.:.:.Z W ( :.:.%.k : < 9 < < < , + n.'.'.'.'.'.'._                       ",
"                      _ '.'.'.'.'.'.'.'.'.'._.@.b =.P Z Z Z ( ) A Z M 5 < < < < 0 0 9 5 @ n.'.'.'.'.'.'._                       ",
"                      _ '.'.'.'.'.'.'.'.'.'.'.'.+.x v ,.-.y r j S R n , w < 0 w 1 < < & s P.'.'.'.'.'.'._                       ",
"                      _ '.'.'.'.'.'.'.'.'.'.'.'.).r. .z z  .o.[ 4 q Z e < 0 0 < 9 w 0 $ h.'.'.'.'.'.'.'._                       ",
"                      _ '.'.'.'.'.'.'.'.'.'.'.'.'.'.!.r.r.!.'.!.+.[ 8 V e < < w 0 < & f L.'.'.'.'.'.'.'._                       ",
"                      _ '.'.'.'.'.'.'.'.'.'.'.'.'.'.'.'.'.'.'.'.'.U.[ 6 Z , < 5 $ O g P.'.'.'.'.'.'.'.'._                       ",
"                      _ '.'.'.'.'.'.'.'.'.'.'.'.'.'.'.'.'.'.'.'.'.'.U.X.8 M > d r.r.P.'.'.'.'.'.'.'.'.'._                       ",
"                      _ '.'.'.'.'.'.'.'.'.'.'.'.'.'.'.'.'.'.'.'.'.'.'.U.{ ; + | '.'.'.'.'.'.'.'.'.'.'.'._                       ",
"                      _ '.'.'.'.'.'.'.'.'.'.'.'.'.'.'.'.'.'.'.'.'.'.'.'.U.b.n.P.'.'.'.'.'.'.'.'.'.'.'.'._                       ",
"                      _ '.'.'.'.'.'.'.'.'.'.'.'.'.'.'.'.'.'.'.'.'.'.'.'.'.'.'.'.'.'.'.'.'.'.'.'.'.'.'.'._                       ",
"                      _ '.'.'.'.'.'.'.'.'.'.'.'.'.'.'.'.'.'.'.'.'.'.'.'.'.'.'.'.'.'.'.'.'.'.'.'.'.'.'.'._                       ",
"                      _ '.'.'.'.'.'.'.'.'.'.'.'.'.'.'.'.'.'.'.'.'.'.'.'.'.'.'.'.'.'.'.'.'.'.'.'.'.'.'.'._                       ",
"                      _ '.'.'.'.'.'.'.'.'.'.'.'.'.'.'.'.'.'.'.'.'.'.'.'.'.'.'.'.'.'.'.'.'.'.'.'.'.'.'.'._                       ",
"                      _ '.'.'.'.'.'.'.'.'.'.'.'.'.'.'.'.'.'.'.'.'.'.'.'.'.'.'.'.'.'.'.'.'.'.'.'.'.'.'.'._                       ",
"                      _ '.'.'.'.'.'.'.'.'.'.'.'.'.'.'.'.'.'.'.'.'.'.'.'.'.'.'.'.'.'.'.'.'.'.'.'.'.'.'.'._                       ",
"                      _ _ _ _ _ _ _ _ _ _ _ _ _ _ _ _ _ _ _ _ _ _ _ _ _ _ _ _ _ _ _ _ _ _ _ _ _ _ _ _ _ _                       ",
"                                                                                                                                ",
"                                                                                                                                ",
"                                                                                                                                ",
"                                                                                                                                ",
"                                                                                                                                ",
"                                                                                                                                ",
"                                                                                                                                ",
"                                                                                                                                ",
"                                                                                                                                ",
"                                                                                                                                ",
"                                                                                                                                "
};
