/* XPM */
static char *_3d77cc76cb44579c96b693c0f623b5etxpFZmgLPMH7zG7m[] = {
/* columns rows colors chars-per-pixel */
"64 64 198 2 ",
"   c #171719",
".  c #171B1D",
"X  c #1A1B1D",
"o  c #161D22",
"O  c #1C1E21",
"+  c #151F28",
"@  c #211F23",
"#  c #1D2124",
"$  c #1A2329",
"%  c #152733",
"&  c #142E3C",
"*  c #1E323B",
"=  c #212124",
"-  c #262629",
";  c #26292C",
":  c #292B2E",
">  c #2D302F",
",  c #222F34",
"<  c #2B2E31",
"1  c #2D3234",
"2  c #313336",
"3  c #333639",
"4  c #35393C",
"5  c #393C3D",
"6  c #19384B",
"7  c #243D49",
"8  c #3A3E41",
"9  c #3E4144",
"0  c #35444D",
"q  c #2A4555",
"w  c #1B4560",
"e  c #174E6E",
"r  c #1B4E6C",
"t  c #1B506B",
"y  c #165373",
"u  c #185375",
"i  c #1A5A7E",
"p  c #30576B",
"a  c #205D7F",
"s  c #414446",
"d  c #434649",
"f  c #454A4C",
"g  c #4A4C4E",
"h  c #474C50",
"j  c #494E51",
"k  c #4D5255",
"l  c #4E5659",
"z  c #54575A",
"x  c #545A5C",
"c  c #5E605F",
"v  c #4D5860",
"b  c #565C61",
"n  c #5B5F61",
"m  c #4E606B",
"M  c #5C6264",
"N  c #5C6468",
"B  c #626466",
"V  c #61676B",
"C  c #646A6D",
"Z  c #6C6C6D",
"A  c #676E71",
"S  c #696F72",
"D  c #677074",
"F  c #6B7275",
"G  c #6E7679",
"H  c #6F797B",
"J  c #707172",
"K  c #71767A",
"L  c #72797C",
"P  c #7C7D7E",
"I  c #175D82",
"U  c #1A5B81",
"Y  c #1A5F89",
"T  c #196287",
"R  c #1A638B",
"E  c #166791",
"W  c #1B6C96",
"Q  c #1A6C99",
"!  c #296686",
"~  c #2F7091",
"^  c #116FA4",
"/  c #0E71A5",
"(  c #0F77AD",
")  c #1171A5",
"_  c #1275AB",
"`  c #1279AE",
"'  c #1E7BAD",
"]  c #1177B0",
"[  c #147BB3",
"{  c #1B7EB3",
"}  c #157FB9",
"|  c #426F85",
" . c #44758A",
".. c #4E7E96",
"X. c #767E81",
"o. c #7B7F81",
"O. c #1E80B4",
"+. c #1680BA",
"@. c #1582BD",
"#. c #2688BB",
"$. c #48849E",
"%. c #778084",
"&. c #7A8286",
"*. c #7D8589",
"=. c #4D8FB0",
"-. c #1585C2",
";. c #1884C1",
":. c #1689C6",
">. c #1889C6",
",. c #168BCA",
"<. c #198DCC",
"1. c #1791CF",
"2. c #1A90CE",
"3. c #178FD1",
"4. c #198FD0",
"5. c #1691D2",
"6. c #1993D4",
"7. c #1996D8",
"8. c #1B96DA",
"9. c #1799DE",
"0. c #1B99DD",
"q. c #2396D2",
"w. c #249AD6",
"e. c #299CD5",
"r. c #2097DA",
"t. c #239CDD",
"y. c #2A9EDB",
"u. c #27A0DE",
"i. c #2CA1DE",
"p. c #33A5DE",
"a. c #3EA6D9",
"s. c #1B99E0",
"d. c #249EE0",
"f. c #27A0E0",
"g. c #2CA2E1",
"h. c #33A6E2",
"j. c #39A7E2",
"k. c #36A9E2",
"l. c #3CABE3",
"z. c #599FC1",
"x. c #4EA5CF",
"c. c #68B1D0",
"v. c #43AEE4",
"b. c #45B1E5",
"n. c #4BB2E6",
"m. c #4CB3E9",
"M. c #52B6E6",
"N. c #58B8E5",
"B. c #5BBAE6",
"V. c #52B6E9",
"C. c #56B9E9",
"Z. c #5BBCEA",
"A. c #62BFEB",
"S. c #64C1EC",
"D. c #69C2EB",
"F. c #838B8E",
"G. c #8D8D8E",
"H. c #858D92",
"J. c #8A8F92",
"K. c #869094",
"L. c #8B9295",
"P. c #8C959A",
"I. c #8E999D",
"U. c #FFDEAD",
"Y. c #959598",
"T. c #929A9E",
"R. c #999A9B",
"E. c #959EA2",
"W. c #96A0A4",
"Q. c #9AA2A6",
"!. c #9DA6AC",
"~. c #9DA8AD",
"^. c #A4A7A9",
"/. c #A5A9AC",
"(. c #A3ADB3",
"). c #A6B0B5",
"_. c #ACB5BB",
"`. c #ABB5BC",
"'. c #B6B6B7",
"]. c #B6B8BA",
"[. c #AFB9C0",
"{. c #B4BDC4",
"}. c #B5C1C6",
"|. c #BFC0C0",
" X c #B6C1C8",
".X c #B9C4CA",
"XX c #C0C0C1",
"oX c #C7C7C8",
"OX c #CCCDCE",
"+X c #D3D4D4",
"@X c #DCDCDD",
"#X c #E9EAEA",
"$X c #FFDEAD",
"%X c #FFDEAD",
"&X c #F7F8F8",
"*X c #FFDEAD",
"=X c #FCFCFC",
"-X c #FFDEAD",
/* pixels */
"U.U.U.U.U.U.U.U.U.U.U.U.U.U.U.U.U.U.U.U.U.U.U.U.U.U.U.U.U.U.U.U.U.U.U.U.U.U.U.U.U.U.U.U.U.U.U.U.U.U.U.U.U.U.U.U.U.U.U.U.U.U.U.U.",
"U.U.U.U.U.U.U.U.U.U.U.U.U.U.U.U.U.U.U.U.U.U.U.U.U.U.U.U.U.U.U.U.U.U.U.U.U.U.U.U.U.U.U.U.U.U.U.U.U.U.U.U.U.U.U.U.U.U.U.U.U.U.U.U.",
"U.U.U.U.U.U.U.U.U.U.U.U.U.U.U.U.U.U.U.U.U.U.U.U.U.U.U.U.U.U.U.U.U.U.U.U.U.U.U.U.U.U.U.U.U.U.U.U.U.U.U.U.U.U.U.U.U.U.U.U.U.U.U.U.",
"U.U.U.U.U.U.U.U.U.U.U.U.U.U.U.U.U.U.U.U.U.U.U.U.U.U.U.U.U.U.U.U.U.U.U.U.U.U.U.U.U.U.U.U.U.U.U.U.U.U.U.U.U.U.U.U.U.U.U.U.U.U.U.U.",
"U.U.U.U.U.U.U.U.U.U.U.U.U.U.U.U.U.U.U.U.U.U.U.U.U.U.U.U.U.U.U.U.U.U.U.U.U.U.U.U.U.U.U.U.U.U.U.U.U.U.U.U.U.U.U.U.U.U.U.U.U.U.U.U.",
"U.U.U.U.U.U.U.U.U.U.U.U.U.U.U.U.U.U.U.U.U.U.U.U.U.U.U.U.U.U.U.U.U.U.U.U.U.U.U.U.U.U.U.U.U.U.U.U.U.U.U.U.U.U.U.U.U.U.U.U.U.U.U.U.",
"U.U.U.U.U.U.U.U.U.U.U.U.U.U.U.U.U.U.U.U.U.U.U.U.U.U.U.U.U.U.U.U.U.U.U.U.U.U.U.U.U.U.U.U.U.U.U.U.U.U.U.U.U.U.U.U.U.U.U.U.U.U.U.U.",
"U.U.U.U.U.U.U.U.U.U.U.U.U.U.U.U.U.U.U.U.U.U.U.U.U.U.U.U.U.U.U.U.U.U.U.U.U.U.U.U.U.U.U.U.U.U.U.U.U.U.U.U.U.U.U.U.U.U.U.U.U.U.U.U.",
"U.U.U.U.U.$X%X%X%X%X%X%X%X%X%X%X%X%X%X%X%X%X%X%X%X%X%X%X'.- - - - - - - - +X%X%X%X%X%X%X%X%X%X%X%X%X%X%X%X%X%X%X%X%X$XU.U.U.U.U.",
"U.U.U.U.U.*X-X-X-X-X-X-X-X-X-X-X-X-X-X-X-X*XXXXXXXXXXX|.Y.9 9 9 9 9 9 d f /.|.XXXXXXXXoX-X-X-X-X-X-X-X-X-X-X-X-X-X-X*XU.U.U.U.U.",
"U.U.U.U.U.*X-X-X-X-X-X-X-X-X-X-X-X-X-X-X-X$XO . . . . . d ~.~.~.~.~.~._..X3 . . . . . 2 -X-X-X-X-X-X-X-X-X-X-X-X-X-X*XU.U.U.U.U.",
"U.U.U.U.U.*X-X-X-X-X-X-X-X-X-X-X$XP P P P P C C C C V O 8 F.E.~.~.~.~.`..X3 # j j j j k P P P @X-X-X-X-X-X-X-X-X-X-X*XU.U.U.U.U.",
"U.U.U.U.U.*X-X-X-X-X-X-X-X-X-X-X@XX X X . = Q.!.!.~.Q.# 3 G P.!.~.~.~.`..X3 - K G G G C X . X ].-X-X-X-X-X-X-X-X-X-X*XU.U.U.U.U.",
"U.U.U.U.U.*X-X-X-X-X-X-X-XR.5 5 d P.E.(.5 # L H.!.~.~.(.&.- b X.Q.~.~.C 2 M F W.W.W.W.K.X j P.k f &X-X-X-X-X-X-X-X-X*XU.U.U.U.U.",
"U.U.U.U.U.*X-X-X-X-X-X%X+XP : O : ~.).{.s # F &.E.!.!.Q.L X g N F.J.J.k . S *.~.~.~.K.&.: b ~.l 8 OX#X-X-X-X-X-X-X-X*XU.U.U.U.U.",
"U.U.U.U.U.*X-X-X-X-X-XOX  f K : < ~.~.!.8 # F G G T.W.O . X . . . . . . . K.~.~.~.~.3 = G F.!.~.E.X C -X-X-X-X-X-X-X*XU.U.U.U.U.",
"U.U.U.U.U.*X-X-X-X-XU.o.M L K.1 : H.T.~.X.A f d d z N i i i i i U U U U U m M M n M j k H.T.~.~.W.N S F.+X-X-X-X-X-X*XU.U.U.U.U.",
"U.U.U.U.U.*X-X-X-X*X1 3 !.~.!.3 - G F./.{.].$ o o o $ q.8.0.l.m.t.8.0.0.0.6 o o . o M L ~.~.~.~.~.^.K X '.-X-X-X-X-X*XU.U.U.U.U.",
"U.U.U.U.U.*X-X-XJ.g P.W.~.~.~.J.X.< 1 4 8 0 ' { { =.z.N.Z.Z.A.S.Z.Z.N.N.N.#.{ { { { 7 8 {.{.{.{.`.8 < . 5 k $X-X-X-X*XU.U.U.U.U.",
"U.U.U.U.U.*X-X-XJ X ).{.~.~.~.T.*.& & & * 7 e.t.t.n.Z.N.Z.Z.p.t.C.Z.Z.Z.Z.h.y.t.u.u.w 7 (.(.(.(.Q.O = < 1 4 +X#X-X-X*XU.U.U.U.U.",
"U.U.U.U.U.*X-X-XJ X ).{.~.~.!.3 & q.8.r.N.D.D.D.D.p.0.0.0.0.8.8.8.0.0.0.0.Z.D.D.D.D.y.#.o . . . . X j ~.[.{.= c -X-X*XU.U.U.U.U.",
"U.U.U.U.U.*X-X-XJ X G &.P.K.L.1 & 8.g.l.b.n.n.n.n.e.1.5.5.5.:.@.,.3.5.5.5.v.n.n.n.n.l.a.t r r % O k F ~.).).= n -X-X*XU.U.U.U.U.",
"U.U.U.U.U.*X-X-XF X . < G G K : & 8.l.D.g.0.0.0.0.,.@.@.@.@.:.<.-.@.+.+.@.8.0.0.0.0.Z.Z.8.0.0.6 - Q.~.~.~.W.= n -X-X*XU.U.U.U.U.",
"U.U.U.U.U.*XOXn F X.X.S 3 3 3 ..=.M.v.i.2.:.:.:.>.4.7.5.5.5.8.0.8.5.5.5.5.<.:.,.,.:.y.h.V.V.V.q = W.~.~.K.%.= > x XX*XU.U.U.U.U.",
"U.U.U.U.U.*X].. S Q.!.H.# O . z.S.S.v.8.:.@.@.@.@.5.t.t.t.t.b.Z.t.0.0.0.t.:.@.@.@.@.7.t.S.S.A.p , T.E.E.X.A = # X ^.*XU.U.U.U.U.",
"U.U.U.U.U.*X'.. k L Q.!.W.M . O.0.0.<.-.@.-.0.0.0.m.S.S.S.S.N.Z.S.S.S.S.S.y.0.0.,.@.@.-.0.0.0.M.c.# O O O # S z . ^.*XU.U.U.U.U.",
"U.U.U.U.U.*X].. k G K.I.!.M o O.0.5.:.@.:.<.l.k.k.v.m.n.n.n.i.8.v.n.n.m.n.l.l.k.w.,.@.-.5.7.0.l.x.$ 1 k k k F x . ^.*XU.U.U.U.U.",
"U.U.U.U.U.*X].. k K G X.!.M o O.8.@.@.@.7.t.S.D.D.p.0.0.0.0.5.,.0.0.0.s.0.Z.D.D.v.0.-.@.@.<.0.0.<.+ j !.~.!.L x . ^.*XU.U.U.U.U.",
"U.U.U.U.U.Z B l d 8 D A j p W @.,.1.1.1.a.m.j.j.k.t.0.,.,.,.-.@.:.,.,.5.0.h.j.j.v.n.q.5.5.<.,.8.<.+ k `.(.!.H x . g Z U.U.U.U.U.",
"U.U.U.U.U.= 3 H 9 # C M . i 0.-.-.0.0.0.V.Z.0.0.0.0.7.@.@.@.@.@.@.@.@.,.8.0.8.0.v.S.g.0.s.3.@.5.<.% v {.(.W.H z O X = U.U.U.U.U.",
"U.U.U.U.U.= d !.W.W.< O . e @.@.-.0.l.S.h.0.8.5.@.@.@.@.@.@.-.-.@.@.+.@.@.@.:.s.0.8.C.Z.0.<.+.@.@.6.W = = = O 3 F 5 = U.U.U.U.U.",
"U.U.U.U.U.= 9 I.W.!.x d . e @.:.<.h.l.M.w.5.5.<.@.@.@.:.,.,.8.0.,.:.,.-.@.@.-.5.5.7.v.n.h.e.>.;.@.5.R . 4 d d x *.9 = U.U.U.U.U.",
"U.U.U.U.U.= 3 G P.~.}.W.. e @.8.t.D.v.0.:.@.@.@.@.@.@.0.0.0.h.j.0.9.9.,.@.@.@.@.@.@.7.w.S.b.0.:.@.@.I X L !.!.~.~.k = U.U.U.U.U.",
"U.U.U.U.U.= - 9 S F.).P.. u <.j.v.j.g.0.:.+.@.@.@.,.5.v.v.v.Z.D.n.v.v.e.,.-.@.@.@.@.8.0.l.v.b.w.<.@.U X L !.!.~.~.k = U.U.U.U.U.",
"U.U.U.U.U.= . . k G W.F.. i 0.Z.Z.8.0.0.:.@.@.@.@.8.t.S.D.D.v.p.S.D.D.j.8.-.@.@.@.@.8.0.0.j.D.g.8.@.I X L ~.!.~.^.k = U.U.U.U.U.",
"U.U.U.U.U.= 2 S 9 # - = . i 8.Z.Z.0.3.-.@.@.@.:.8.n.Z.t.t.t.8.8.t.t.t.v.A.t.5.@.@.@.-.:.0.l.D.g.8.@.I X H.{.~.%.- O = U.U.U.U.U.",
"U.U.U.U.U.= 4 %.k 4 3 1 . a y.M.V.0.,.@.@.@.:.1.i.n.C.0.8.7.[ / <.8.0.l.Z.p.w.-.-.@.@.-.0.h.Z.h.y.>.Y . L !.K.D : = # U.U.U.U.U.",
"U.U.U.U.U.= d ~.[..X.XW.. | D.i.9.0.<.@.@.@.0.h.D.h.0.8.,./ ) _ ) [ 8.0.8.Z.C.0.,.@.+.-.0.0.0.V.S.t.W . . . . 3 K 8 = U.U.U.U.U.",
"U.U.U.U.U.= d ~.)._.`.P.. | D.f.0.<.:.@.<.<.v.v.v.e.0.:.-.] ` ] [ [ -.5.0.l.v.v.y.<.-.-.<.7.0.V.S.8.W . . X b A H.d = U.U.U.U.U.",
"U.U.U.U.U.= d ~.~.~.~.F.. | D.u.8.@.@.@.7.t.S.m.0.0.8./ _ @._ ) +.[ ) :.0.0.i.D.l.0.-.@.@.<.0.V.S.0.W . . # W.~.~.k = U.U.U.U.U.",
"U.U.U.U.U.= 4 %.I.~.~.F.. | D.u.8.@.@.@.7.0.S.n.0.@.] [ -.-.) ) ] <.[ ] ] 8.g.D.l.0.-.@.@.,.0.V.S.t.W X V H.!.~.!.k = U.U.U.U.U.",
"U.U.U.U.U.= 2 V F.E.E.*.. | Z.u.5.@.@.-.7.i.A.v.7.[ ) [ [ ;.t.e.6.] } ` ) <.y.Z.n.0.,.@.@.,.8.n.A.t.W . F W.~.W.H.d = U.U.U.U.U.",
"U.U.U.U.U.= . . k G F M . | p.0.-.@.@.3.8.Z.Z.0.@./ [ / / -.m.S.q.) ^ [ _ ) 8.l.D.h.0.-.+.@.,.8.Z.Z.W . z H Q.X.. . = U.U.U.U.U.",
"U.U.U.U.U.= 2 C l f f 9 . | M.t.<.@.@.,.8.v.Z.h.,._ ] [ _ @.h.b.8.) [ [ ) -.t.m.V.i.5.@.+.-.6.h.A.j.W . 5 g N V C 4 = U.U.U.U.U.",
"U.U.U.U.U.= j .Xb . . . . | D.g.8.@.@.+.8.t.S.n.0.[ ) @.;.-.} } @.:.@.` / 8.i.D.v.0.:.@.@.,.0.M.S.0.W . . . . j  Xx = U.U.U.U.U.",
"U.U.U.U.U.= f (.Q.E.E.&.. | D.g.8.@.+.@.7.t.D.n.0.7.<._ [ @._ ) [ @._ @.1.8.g.D.l.s.:.@.@.,.0.M.S.0.W . M *.*.P.(.k = U.U.U.U.U.",
"U.U.U.U.U.= d ~._. X XW.. | D.g.8.-.@.@.7.t.S.b.t.0.0.( ` +._ ) } [ ) :.0.d.p.A.l.8.:.@.@.,.0.M.S.0.W X G !.~.~.~.k = U.U.U.U.U.",
"U.U.U.U.U.= d ~.~.~.~.F.. | D.i.0.0.<.@.@.-.8.l.S.i.0.8.<./ [ [ ) [ 8.9.0.Z.C.8.<.@.@.-.8.0.0.M.A.0.Q X x H !.~.~.k = U.U.U.U.U.",
"U.U.U.U.U.= d ~.~.~.~.F.. ! n.l.h.0.,.@.@.-.1.i.n.j.h.0.5.} _ ) [ -.0.g.h.n.l.5.,.+.+.-.0.t.k.b.n.5.E X 9 z G &.I.f = U.U.U.U.U.",
"U.U.U.U.U.= d ~.~.~.~.F.. U 8.Z.Z.0.,.@.@.@.@.,.9.M.S.0.0.0.,.:.8.9.9.n.D.t.7.@.@.+.@.-.0.l.D.h.8.@.I X . . . 3 K 8 = U.U.U.U.U.",
"U.U.U.U.U.= d ~.P.*.*.F . i 8.Z.Z.0.8.5.-.@.@.-.,.y.k.m.M.m.i.0.n.m.m.v.h.<.:.@.@.@.<.7.0.l.D.h.8.@.I X x L F.F 4 - = U.U.U.U.U.",
"U.U.U.U.U.= d Q.*.F D M . i 8.C.C.0.0.0.:.@.@.@.@.5.8.S.S.S.Z.Z.S.S.S.l.0.-.+.@.@.@.7.0.0.l.S.i.8.@.I X L ~. XP.= O = U.U.U.U.U.",
"U.U.U.U.U.= X O O O O O . e @.8.i.S.v.0.:.@.@.@.@.@.-.8.0.0.b.Z.t.8.t.<.@.@.@.@.@.@.7.t.S.b.0.<.-.@.I X L ~.~.(.{.x = U.U.U.U.U.",
"U.U.U.U.U.= : h g g = . . y @.3.q.m.v.k.2.:.:.-.@.@.@.5.5.5.8.0.6.5.7.,.@.@.@.:.:.,.i.k.m.p.5.:.@.:.T X S P.!.(.[.x = U.U.U.U.U.",
"U.U.U.U.U.= d ~.~.!.: . . u @.@.-.0.l.D.i.0.0.3.@.@.@.@.@.@.>.,.@.@.@.@.@.@.-.0.0.0.Z.A.8.4.@.+.-.0.Q X z K !.~.~.j = U.U.U.U.U.",
"U.U.U.U.U.= : k *.!.x d X U <.-.:.0.g.l.b.b.0.7.5.5.4.@.@.@.@.@.@.@.@.:.5.5.5.0.h.n.j.k.0.4.@.,.6.b.~ . 2 9 Q.~.~.j = U.U.U.U.U.",
"U.U.U.U.U.= . X F !.L b X T 8.-.:.0.0.0.C.Z.8.0.0.0.0.@.@.@.@.@.@.@.@.<.s.0.0.0.v.S.i.0.0.4.@.5.t.S.$.. . # E.!.~.k = U.U.U.U.U.",
"U.U.U.U.U.= X X = - = # . T 0.8.7.-.-.-.8.i.Z.A.A.g.0.8.8.8.,.-.7.8.8.0.0.C.S.S.v.t.>.-.-.,.8.0.d.S.$.. . . - j !.k = U.U.U.U.U.",
"U.U.U.U.U.= . . < 5 9 4 . ! g.0.7.:.-.@.4.q.C.N.C.k.g.g.g.g.t.s.g.g.g.g.g.M.C.C.p.8.-.@.:.,.s.d.p.N.$.. : 1 4 k *.s = U.U.U.U.U.",
"U.U.U.U.U.= . . F ~. XT..  .D.f.s.s.<.@.@.-.0.0.0.C.D.D.D.D.n.l.S.D.D.D.D.t.0.0.,.@.@.-.0.0.0.V.S.8.Q . z L Q.X.O . = U.U.U.U.U.",
"U.U.U.U.U.= ; f &.~.`.K.. ! a.v.v.v.e.,.-.-.<.,.,.p.v.v.v.l.Z.S.v.v.v.v.v.6.<.<.-.@.,.6.v.v.v.v.j.<.R . z L Q.K.N 3 = U.U.U.U.U.",
"U.U.U.U.U.= 3 G P.~.~.*.. y +.N.D.D.v.0.-.@.+.@.@.5.8.0.0.0.i.p.8.0.0.0.0.-.+.+.+.+.6.t.D.D.D.h.8.@.I . z L W.!.!.k @ U.U.U.U.U.",
"U.U.U.U.U.G.L.U.R.R.R.U.G.L.P.T.E.E.T.I.P.P.P.P.P.I.I.I.I.I.I.I.I.I.I.I.I.P.P.P.P.P.I.I.T.E.T.T.I.P.L.G.U.U.R.R.R.U.G.U.U.U.U.U.",
"U.U.U.U.U.U.U.U.U.U.U.U.U.U.U.U.U.U.U.U.U.U.U.U.U.U.U.U.U.U.U.U.U.U.U.U.U.U.U.U.U.U.U.U.U.U.U.U.U.U.U.U.U.U.U.U.U.U.U.U.U.U.U.U."
};
