
/* XPM */
static char * azul_modificado_xpm[] = {
"16 16 15 1",
"   c #2A9EDB",
".  c #27A0DE",
"X  c #1A5B81",
"o  c #1A638B",
"O  c #1A90CE",
"+  c #1B96DA",
"@  c #3EA6D9",
"#  c #4BB2E6",
"$  c #5BBCEA",
"%  c #27A0DE",
"&  c #2A9EDB",
"*  c #3EA6D9",
"=  c #1A90CE",
"-  c #1B96DA",
";  c #1A5B81",
"                ",
" .............. ",
" .XXXXXXXXXXXXo ",
" .O++++++++++@o ",
" .O++++++++++@o ",
" .O++++++++++@o ",
" .O++++++++++@o ",
" .O++++++++++@o ",
" .O++++++++++@o ",
" .O++++++++++@o ",
" .O++++++++++@o ",
" .O++++++++++@o ",
" .############o ",
" .$$$$$$$$$$$$o ",
" .%%%%%%%%%%%%o ",
" oooooooooooooo "};
