/* XPM */
static char *_9084842444540d2b551bd04a7f5a1a7Acftng9ASr6X0cfs[] = {
/* columns rows colors chars-per-pixel */
"64 64 140 2 ",
"   c #FFDEAD",
".  c #0B0B09",
"X  c #190E0B",
"o  c #171413",
"O  c #24140F",
"+  c #281611",
"@  c #2D1913",
"#  c #321C16",
"$  c #1D2317",
"%  c #27241B",
"&  c #2F2B1D",
"*  c #36231A",
"=  c #3A2019",
"-  c #322D1F",
";  c #262220",
":  c #2B2421",
">  c #302723",
",  c #342A25",
"<  c #3B2F2B",
"1  c #2D3427",
"2  c #363222",
"3  c #393625",
"4  c #303926",
"5  c #3C312C",
"6  c #353F29",
"7  c #3E3A2E",
"8  c #3D3633",
"9  c #3F3835",
"0  c #571E10",
"q  c #40241C",
"w  c #49281F",
"e  c #592010",
"r  c #572C1F",
"t  c #7B2B16",
"y  c #7B2D18",
"u  c #412C20",
"i  c #4E2C22",
"p  c #512D23",
"a  c #453627",
"s  c #4D3929",
"d  c #533326",
"f  c #563628",
"g  c #5A3C2C",
"h  c #403732",
"j  c #453A35",
"k  c #483C37",
"l  c #663223",
"z  c #36422B",
"x  c #39432E",
"c  c #3C4433",
"v  c #5D412F",
"b  c #454334",
"n  c #484030",
"m  c #404837",
"M  c #4A423C",
"N  c #4B4D3A",
"B  c #504130",
"V  c #594431",
"C  c #514B33",
"Z  c #5B4A34",
"A  c #544E38",
"S  c #594F3B",
"D  c #4D513C",
"F  c #5A5237",
"G  c #5C543B",
"H  c #5C5A3D",
"J  c #60402F",
"K  c #70452B",
"L  c #604F3B",
"P  c #695737",
"I  c #61523D",
"U  c #645C3F",
"Y  c #6A5D3B",
"T  c #4E4541",
"R  c #554B46",
"E  c #584E49",
"W  c #525342",
"Q  c #595640",
"!  c #535944",
"~  c #5A5841",
"^  c #5B514C",
"/  c #5D5F4D",
"(  c #645D43",
")  c #695C58",
"_  c #546442",
"`  c #5E6444",
"'  c #566149",
"]  c #5D634C",
"[  c #5C6F48",
"{  c #5E714A",
"}  c #646144",
"|  c #6A6247",
" . c #6A654A",
".. c #646B4C",
"X. c #696A4E",
"o. c #70694F",
"O. c #60744C",
"+. c #6A6E51",
"@. c #6D605B",
"#. c #657553",
"$. c #687756",
"%. c #677954",
"&. c #697957",
"*. c #6D7D5C",
"=. c #707F5F",
"-. c #707F60",
";. c #82301A",
":. c #875539",
">. c #88583C",
",. c #947A59",
"<. c #6F805F",
"1. c #70805F",
"2. c #748363",
"3. c #788767",
"4. c #7C8B62",
"5. c #778768",
"6. c #7B8B69",
"7. c #829B5F",
"8. c #8DAB5E",
"9. c #978661",
"0. c #988A64",
"q. c #859E61",
"w. c #84916C",
"e. c #8E9972",
"r. c #929E76",
"t. c #949F7C",
"y. c #90B060",
"u. c #98A37F",
"i. c #A3AB80",
"p. c #A4AB81",
"a. c #A3AE83",
"s. c #A4AD82",
"d. c #A5B186",
"f. c #AABA85",
"g. c #AEBF88",
"h. c #BEC49F",
"j. c #BFC5A0",
"k. c #C3C9A3",
"l. c #C4CAA4",
"z. c #C8CEA7",
/* pixels */
"                                                                                                                                ",
"                                                                                                                                ",
"                                                                                                                                ",
"                                                                                                                                ",
"                                                                                                                                ",
"                                                                                                                                ",
"                                                                                                                                ",
"                                                                                                                                ",
"                                                                                                                                ",
"                                                                                                                                ",
"                                                                                                                                ",
"                                                                                                                                ",
"                                                                                                                                ",
"                                                                                                                                ",
"                                                                                                                                ",
"                                                                                                                                ",
"                                                              $ x 3 * * # # # # # O                                             ",
"                                                              4 { H g f p p p p p =                                             ",
"                                                          X @ a G Z g f p p p d f s z x                                         ",
"                                                          @ p f g g g f p p p d g Z { O.                                        ",
"                                                      + @ q p f g Z H Z f d p d g Z { { 6 6                                     ",
"                                                      w p p p f g G { H g f p d g Z { { { O..                                   ",
"                                                      w p d f V H ` { H g g f V ( } { { { O..                                   ",
"                                                      w p f g G { { { H g g g G %.#.{ { { O..                                   ",
"                                                      i f V H ` #.#.#...( I g I *.*.#.#.{ O.                                    ",
"                                                      d g G { O.%.%.%.*.1. .g I 1.*.%.$.{ O..                                   ",
"                                                      C G ` #.%.*.*.*.*.1. .g I 1.*.*.*.#.#..                                   ",
"                                                      _ { #.%.*.1.1.1.1.1. .g I 1.1.<.1.%.&..                                   ",
"                                                      _ { #.*.' c c c c c N ( ( ( Q c c x x                                     ",
"                                                      _ { %.1.c           1 1.X.g u                                             ",
"                                                      _ [ #.1.c     .     1 1.X.g u     . .                                     ",
"                                                          c 1.2.2.u.l.g.y.q.1.X.g Y y.y.k.z..                                   ",
"                                                          c 1.1.1.t.j.f.8.7.1.X.g Y 8.8.h.k..                                   ",
"                                                          c 1.1.1.*.*.*.*.=.1.X.g L *.-.#.%..                                   ",
"                                                          c 2.1.1.1.1.1.1.1.1.X.g L 2.2.%.&..                                   ",
"                                                  j k 5 5 D { %.1.1.1.1.1.1.1.2.2.+.g g %.&..                                   ",
"                                                  h j 5 5 D { %.2.1.*.*.1.<.*.*.1.+.g f $.*..                                   ",
"                                              p p j j 5 5 5 < N { 4.i.e.1.w.i.r.1.6.s.d.g g                                     ",
"                                              i p j j 5 5 5 5 D O.4.p.e.*.w.a.r.*.6.a.d.v J                                     ",
"                                              i p p p 5 5 5 5 5 < N { 4.i.,.t :.i.9.t t                                         ",
"                                              i p p p 5 5 5 5 5 5 N { 4.p.,.y >.a.0.y ;.                                        ",
"                                              5.6.d p 5 5 5 5 5 5 5 5 N { P y y t 0                                             ",
"                                              5.6.d p 5 5 5 5 5 5 5 5 N { P y y y e                                             ",
"                                              j j 2.3.j 5 5 5 5 5 5 5 W 1.] 5 5 j ,                                             ",
"                                              j j 2.6.j 5 5 5 5 5 5 < W 2.] 5 5 j ,                                             ",
"                                              j j k k , , , , , , N *.! , 5 j j j ,                                             ",
"                                              j j j j , , , , , , N *.! , 5 j j j ,                                             ",
"                                              j j j j , > > > > > 7 D B r d j j j ,                                             ",
"                                              j j j j : : : : : : : : w y l j j j ,                                             ",
"                                              j j j j j n n n n n n n v K v j j j ,                                             ",
"                                              j j j j U U U U U U U U U U S j j j ,                                             ",
"                                              / / / / ( U U U U U U U U U ( / / / b                                             ",
"                                              2.5.5.5.} U U U U F G U U U X.5.5.5.'                                             ",
"                                              &.*.+.+.| | | | } ( ( U ( | ~ m m m 1                                             ",
"                                              [ { F F  .o.o.o.o.o. .U | o.n                                                     ",
"                                              [ { 2 - ( ( |  . . .A 3 3 7 %                                                     ",
"                                              [ O..   C F G U U U 2                                                             ",
"                                              z x     & 2 n G G G ,                                                             ",
"                                                          ; M M M ;                                                             ",
"                                                          ; M T R h ; o                                                         ",
"                                                          ; M E ) ) ) 8                                                         ",
"                                                          ; M ^ @.@.@.9                                                         ",
"                                                                                                                                ",
"                                                                                                                                "
};
