/* XPM */
static char *_6255d4e70ec4f40d20ca4eca49e7ce7kALeW4XxO3yz49HS[] = {
/* columns rows colors chars-per-pixel */
"64 64 148 2 ",
"   c #FFDEAD",
".  c #0A0605",
"X  c #0B0906",
"o  c #0C0C09",
"O  c #110907",
"+  c #120D0B",
"@  c #0F120C",
"#  c #14120C",
"$  c #131410",
"%  c #1A1615",
"&  c #151813",
"*  c #1B1C16",
"=  c #1D1918",
"-  c #230D07",
";  c #23130F",
":  c #2E1109",
">  c #3A150B",
",  c #251410",
"<  c #2C1D15",
"1  c #231D1B",
"2  c #341D17",
"3  c #1D2317",
"4  c #26231C",
"5  c #29241D",
"6  c #242A1F",
"7  c #2E2A1D",
"8  c #322D1E",
"9  c #2B2420",
"0  c #262D21",
"q  c #2E2C23",
"w  c #312723",
"e  c #352B26",
"r  c #342D28",
"t  c #3A2F2B",
"y  c #2C3324",
"u  c #2F3824",
"i  c #353121",
"p  c #3A3525",
"a  c #303926",
"s  c #33352B",
"d  c #3C312C",
"f  c #333C2B",
"g  c #3F3B2C",
"h  c #3E3734",
"j  c #3D3A30",
"k  c #5F2313",
"l  c #632413",
"z  c #792915",
"x  c #7C2D18",
"c  c #4F2D24",
"v  c #522D23",
"b  c #453E2D",
"n  c #543126",
"m  c #573629",
"M  c #57392A",
"N  c #5A3C2C",
"B  c #413631",
"V  c #453A35",
"C  c #483D38",
"Z  c #39432E",
"A  c #3B4332",
"S  c #45402B",
"D  c #5A422F",
"F  c #444234",
"G  c #4A4332",
"H  c #404937",
"J  c #4E4936",
"K  c #49413C",
"L  c #434D39",
"P  c #4E4B3D",
"I  c #534E32",
"U  c #5C4A35",
"Y  c #544C3B",
"T  c #5D4F3A",
"R  c #4C5C33",
"E  c #47523C",
"W  c #4A523E",
"Q  c #4B5A3B",
"!  c #5A5237",
"~  c #57563E",
"^  c #5D553A",
"/  c #535F3D",
"(  c #5D5B3E",
")  c #724428",
"_  c #62533D",
"`  c #635B3E",
"'  c #4E603E",
"]  c #4D4440",
"[  c #534845",
"{  c #574D49",
"}  c #4C5641",
"|  c #515242",
" . c #525D40",
".. c #625640",
"X. c #645D44",
"o. c #695C58",
"O. c #556242",
"+. c #5A6545",
"@. c #5C6A46",
"#. c #5D624D",
"$. c #5C6F48",
"%. c #5E714A",
"&. c #626046",
"*. c #696146",
"=. c #65654A",
"-. c #68674C",
";. c #636B4A",
":. c #696B4C",
">. c #70694F",
",. c #61744D",
"<. c #6F704A",
"1. c #787D4A",
"2. c #606350",
"3. c #666955",
"4. c #7C6F53",
"5. c #667553",
"6. c #6D7254",
"7. c #6A775B",
"8. c #6C7C5B",
"9. c #727D5E",
"0. c #875438",
"q. c #88573B",
"w. c #8A5E41",
"e. c #8C6244",
"r. c #947B5A",
"t. c #6F805F",
"y. c #70805F",
"u. c #7A8F5F",
"i. c #7F965F",
"p. c #748363",
"a. c #7B8A6A",
"s. c #8DAB5F",
"d. c #83906C",
"f. c #869A68",
"g. c #8A9A6E",
"h. c #8E9A72",
"j. c #8F9B79",
"k. c #909C72",
"l. c #939E75",
"z. c #939E7B",
"x. c #9BB271",
"c. c #98A380",
"v. c #A3AB80",
"b. c #A2AC82",
"n. c #A4AD82",
"m. c #A8B983",
"M. c #ADB591",
"N. c #BEC49F",
/* pixels */
"                                                                                                                                ",
"                                                                                                                                ",
"                                                                                                                                ",
"                                                                                                                                ",
"                                                                                                                                ",
"                                                                                                                                ",
"                                                                                                                                ",
"                                                                                                                                ",
"                                                                                                                                ",
"                                                                                                                                ",
"                                                                                                                                ",
"                                                                                                                                ",
"                                                          O.,.U N n v v v v v ,                                                 ",
"                                                          ' %.U N n v v v v v ;                                                 ",
"                                                    . v v N N N N n v v v m N ( ,.u                                             ",
"                                                    . v v N N N N n v v v m N ( %.u                                             ",
"                                                . 2 2 v v N N ^ ( D m n v m N ( %.Q Z 3                                         ",
"                                                X v v v v N N +.%.U N n v m N ( %.%.%.a                                         ",
"                                                X v v m m ^ ( @.%.U N M m T X.;.%.%.%.a                                         ",
"                                                X v v N N @.%.%.%.U N N N &.5.,.%.%.%.a                                         ",
"                                                X m M ( ( ;.5.5.5.=.=.U N =.8.5.5.,.%.a                                         ",
"                                                X N D %.%.5.5.5.5.8.y._ N -.y.8.5.,.%.a                                         ",
"                                                o ( ( 5.5.8.8.8.8.8.y._ N -.y.8.8.5.5.s                                         ",
"                                                @ %.%.5.5.8.y.y.y.y.y._ N -.y.y.y.8.5.f                                         ",
"                                                @ %.,.8.8.H A A A A A ~ X.X.X.P A Z f *                                         ",
"                                                @ %.,.p.p.$           } y...N <                                                 ",
"                                                X f Z p.y.L A #.3./ R 5.y...N I R +.3.s                                         ",
"                                                    o p.y.y.y.M.N.x.s.u.y...N 1.s.m.N.2.                                        ",
"                                                    o p.y.y.y.j.c.f.i.y.y...N <.i.g.z.W                                         ",
"                                                    o p.y.y.y.y.y.y.y.y.y...N =.y.8.5.f                                         ",
"                                                    o p.y.y.y.y.y.y.y.y.y...N =.9.8.5.f                                         ",
"                                                    o %.%.8.y.y.y.y.y.y.y.p.p...N ..5.f                                         ",
"                                                    o %.%.8.y.y.y.y.y.y.y.y.y...N X.5.f                                         ",
"                                                X C V t t +.%.l.v.a.y.l.v.d.y.h.n.4.N <                                         ",
"                                                X V V d d +.%.l.v.a.8.l.b.d.8.h.b.4.N <                                         ",
"                                            O v v v v d d t t O.$.h.v.0.z r.v.w.z >                                             ",
"                                            O v v v c d d d d +.%.k.v.q.x r.b.e.x >                                             ",
"                                            * a.9.v v V V d d t t  .$.) x z z v d %                                             ",
"                                            * a.9.v c V V d d d d O.,.) x x x v d %                                             ",
"                                                $ a.p.V V d d d d d t d d d d B V 1                                             ",
"                                                $ a.p.V V d d d d d d t t d d B V 1                                             ",
"                                                X V V V V d d d d d d ;.p.| d B V V V 1                                         ",
"                                                X V V V V d d d d t t #.y.| d B V V V 1                                         ",
"                                                X V V V V r e e e #.8.8.8.y   5 V V V 1                                         ",
"                                                X V V V V e e e e #.8.8.8.y   9 C V V 1                                         ",
"                                                . e e V V V V t e #.8.0 .         4 V V B t                                     ",
"                                                . e e V V V V t e #.8.6           4 V V V d                                     ",
"                                                . w r #.#.#.#.d w F W *           4 V V V B 1 1                                 ",
"                                                . 9 r a.p.p.p.j 9 9 9 o           4 V V V V V d                                 ",
"                                            X 8 8 G G 6.6.6.6.J b b b p i #       $ 1 F #.#.#.|                                 ",
"                                            # ! ^ ` ` ` ` ` ` ` ` ` ` ` ` 4           H p.p.p.7.                                ",
"                                            # ! ^ ` ` ` ` ` ` ^ ^ ^ ` ` ` 4           6 H H H A                                 ",
"                                            # ! ^ ` ` ` ` ` ` ^ ! ^ ` ` ` 4                                                     ",
"                                        X 4 q Y Y *.*.*.*.*.*.^ ! ^ ` ` ` 4                                                     ",
"                                        $ K K K P >.>.>.>.>.>.^ ! ^ ` ` ` 4                                                     ",
"                                        % { ] 9 r X.X.X.X.F g i 8 I ` ` ` b 7 #                                                 ",
"                                        = o.[   o ! ! ! ! o       S ` ` ` ` ` 7                                                 ",
"                                        + h r   X i i i i X       5 p ~ :.:.:.q                                                 ",
"                                                                      E 8.8.y.s                                                 ",
"                                                              - : .   E 8.t.p.} y &                                             ",
"                                                              k x -   E 8.p.p.p.p.A                                             ",
"                                                              l x -   W t.p.a.a.a.A                                             ",
"                                                                                                                                ",
"                                                                                                                                "
};
