/* XPM */
static char *_2a9910bbc9c45e8c84da4ca01d51810K9dn7l2xj06tyl60[] = {
/* columns rows colors chars-per-pixel */
"64 64 143 2 ",
"   c #FFDEAD",
".  c #0B0705",
"X  c #070806",
"o  c #0A0A07",
"O  c #0C0C0A",
"+  c #120C09",
"@  c #0F100C",
"#  c #12140E",
"$  c #1C130E",
"%  c #161912",
"&  c #1A1C13",
"*  c #1D1918",
"=  c #221D1A",
"-  c #361E17",
";  c #1D2217",
":  c #1F241A",
">  c #262217",
",  c #24201E",
"<  c #262E1E",
"1  c #36241B",
"2  c #3B271D",
"3  c #322D1F",
"4  c #3C281E",
"5  c #2C2521",
"6  c #272D21",
"7  c #2A2F23",
"8  c #302723",
"9  c #342A25",
"0  c #362D2A",
"q  c #392E29",
"w  c #353122",
"e  c #3E3023",
"r  c #303228",
"t  c #3C312C",
"y  c #3C392B",
"u  c #3C3432",
"i  c #3A3C31",
"p  c #572B1F",
"a  c #582B1E",
"s  c #782612",
"d  c #772A16",
"f  c #7A2A15",
"g  c #772D19",
"h  c #7B2D18",
"j  c #7C331D",
"k  c #4A2F26",
"l  c #522D23",
"z  c #582F23",
"x  c #4C3027",
"c  c #45342C",
"v  c #553628",
"b  c #55382A",
"n  c #5A3C2C",
"m  c #423732",
"M  c #453A35",
"N  c #493B36",
"B  c #7D3721",
"V  c #36422B",
"C  c #3A462E",
"Z  c #3B4233",
"A  c #46422E",
"S  c #454132",
"D  c #484130",
"F  c #424A36",
"G  c #494937",
"H  c #474738",
"J  c #4A433B",
"K  c #414938",
"L  c #4D4C3C",
"P  c #5D4331",
"I  c #5D4A36",
"U  c #514A3A",
"Y  c #455336",
"T  c #5A5237",
"R  c #51533F",
"E  c #5D563B",
"W  c #5C5B3D",
"Q  c #6E452C",
"!  c #645C3F",
"~  c #584E49",
"^  c #4E5A42",
"/  c #535543",
"(  c #525B44",
")  c #5D5F40",
"_  c #5C5E4A",
"`  c #6C5740",
"'  c #635D43",
"]  c #6D5942",
"[  c #605E48",
"{  c #695C58",
"}  c #5E6645",
"|  c #5C6C47",
" . c #5E614D",
".. c #5D6C4B",
"X. c #5E714A",
"o. c #696247",
"O. c #626844",
"+. c #666248",
"@. c #6B6449",
"#. c #656A4C",
"$. c #69694C",
"%. c #70694F",
"&. c #61734D",
"*. c #616552",
"=. c #646851",
"-. c #6A6E51",
";. c #726B51",
":. c #657554",
">. c #6A7354",
",. c #6D7D56",
"<. c #6D7759",
"1. c #6C7C5B",
"2. c #707557",
"3. c #6E805E",
"4. c #70805F",
"5. c #738362",
"6. c #788768",
"7. c #7C8C6B",
"8. c #87A25F",
"9. c #8DAA5F",
"0. c #83916F",
"q. c #869471",
"w. c #9E9A73",
"e. c #8AA661",
"r. c #8FAC61",
"t. c #90AF61",
"y. c #92B163",
"u. c #9AA37A",
"i. c #9FA77E",
"p. c #A1A57C",
"a. c #A1A87F",
"s. c #9EA980",
"d. c #A3AB80",
"f. c #A4AB81",
"g. c #A3AE83",
"h. c #A4AD82",
"j. c #A4AE84",
"k. c #A3B085",
"l. c #B1BD8E",
"z. c #B6C293",
"x. c #BEC39F",
"c. c #C2C8A3",
"v. c #C3C9A4",
/* pixels */
"                                                                                                                                ",
"                                                                                                                                ",
"                                                                                                                                ",
"                                                                                                                                ",
"                                                                                                                                ",
"                                                                                                                                ",
"                                                                                                                                ",
"                                                                                                                                ",
"                                                                                                                                ",
"                                                                                                                                ",
"                                                                                                                                ",
"                                                                                                                                ",
"                                                                                                                                ",
"                                                                                                                                ",
"                                              . 4 2 - - - - 4 4 4 4 +                                                           ",
"                                              + n n l l l l n n n n $                                                           ",
"                                          . 1 4 n n l l l l n n E W F C %                                                       ",
"                                          + n n n n l l l l n n } X.X.X.<                                                       ",
"                                      + 1 e W E n n l l v v W W | X.X.X.Y V %                                                   ",
"                                      $ n I X.} n n l l n n X.X.X.X.X.X.X.X.<                                                   ",
"                                      & W ) X.} n n v b ' ' X.X.X.X.X.X.X.X.<                                                   ",
"                                      ; X.X.X.} n n n P :.:.X.X.X.X.X.X.X.X.<                                                   ",
"                                      ; X.X.:.#.n P +.+.1.1.:.:.:.:.&.X.X.X.<                                                   ",
"                                      ; X.&.:.#.n P 5.4.4.4.:.:.:.:.&.X.X.X.<                                                   ",
"                                      : :.:.1.>.n P 5.4.4.4.1.1.1.1.:.:.&.X.<                                                   ",
"                                      : :.<.4.>.n P 5.4.4.4.4.4.4.4.<.:.&.X.<                                                   ",
"                                      ; ....:.#.P I 1.1.:.:.:.:.:.:.:.:.&.X.<                                                   ",
"                                              % 5.1.n v             ^ 4.:.X.<                                                   ",
"                                      X O O o ; 5.<.n b o o O O o X ( 4.&.| <                                                   ",
"                                      i c.z.t.e.4.<.n P y.y.v.c.q.5.5.4.7                                                       ",
"                                      i x.l.9.8.4.<.n P r.r.x.x.0.4.4.4.7                                                       ",
"                                      : :.:.1.1.4.<.n P 5.1.1.1.4.4.4.4.7                                                       ",
"                                      : :.<.4.4.4.<.n P 5.5.5.5.4.4.4.4.7                                                       ",
"                                      : :.<.4.4.4.4.5.1.n n n n -.4.:.X.G t M N =                                               ",
"                                      : :.<.1.1.4.4.1.1.n n n n >.5.:.X.G t m M =                                               ",
"                                      ; X.,.d.u.4.6.f.i.5.5.h.h.` n c q t t m M M N =                                           ",
"                                      ; &.4.d.u.1.6.g.s.1.4.j.g.] n c t t t m M M M =                                           ",
"                                          % | ,.d.w.s j h.p.s f k t t t t t m M M M =                                           ",
"                                          & &.,.f.w.h B k.a.f h x t t t t t m M M M =                                           ",
"                                              # X.O.h h f d t t t t t t t t m M M M =                                           ",
"                                              # X.O.h h h h t t t t t t t t m M M M =                                           ",
"                                              @ R U z z z z t t t t t t L _ L M M M =                                           ",
"                                              O M M t t t t t t t t t t  .4./ M M M =                                           ",
"                                              O M M m m 0 q q q q q L ( / / J M M M =                                           ",
"                                              O M M M M 9 9 9 9 9 9  .<.H 9 t M M M =                                           ",
"                                              O M M M M a p 5 8 8 8 S L t 8 t M M M =                                           ",
"                                              O M M M N h g 5 5 5 5 5 5 5 5 t M M M =                                           ",
"                                              O M M M N Q Q D D D D D D D D M M M M =                                           ",
"                                              O M M M N ! ! ! ! ! ! ! ! ! ! U M M M =                                           ",
"                                              #  . . ._ ! ! ! ! ! E ! ! ! ! [  . . .7                                           ",
"                                              % 6.6.6.5.! ! ! ! E T ! ! ! ! 2.6.6.6.Z                                           ",
"                                              O K K K K @.o.! ! ' ' o.o.o.o.$.-.=.*.r                                           ",
"                                                      o ;.%.! ! @.%.%.%.%.%.' T U J ,                                           ",
"                                                      X y y w w E @.@.@.+.' A 3 N ~ 5                                           ",
"                                                                D ! ! ! E T >   u { 0                                           ",
"                                                                L $.$.$.A 3 #   = u *                                           ",
"                                                                ( <.<.<.6                                                       ",
"                                                                ^ <.<.<.6                                                       ",
"                                                          X 7.7.6.6.3.1.6                                                       ",
"                                                          X 7.7.7.7.5.3.7                                                       ",
"                                                                                                                                ",
"                                                                                                                                ",
"                                                                                                                                ",
"                                                                                                                                "
};