/* XPM */
static char *_85d8132ec0f40adfd71b583d2116aefsuYDti8mGl5mpyQe[] = {
/* columns rows colors chars-per-pixel */
"64 64 143 2 ",
"   c #FFDEAD",
".  c #0D0C08",
"X  c #1A0A05",
"o  c #11100B",
"O  c #19160F",
"+  c #151411",
"@  c #1B1614",
"#  c #1D1C13",
"$  c #290F08",
"%  c #2C1108",
"&  c #31120A",
"*  c #3E170C",
"=  c #201D14",
"-  c #231E1C",
";  c #272419",
":  c #282419",
">  c #24291E",
",  c #332119",
"<  c #302C1E",
"1  c #272320",
"2  c #2C2521",
"3  c #2C2821",
"4  c #342B25",
"5  c #302B28",
"6  c #3B2F2B",
"7  c #363122",
"8  c #3B3727",
"9  c #3F3927",
"0  c #3C312C",
"q  c #333B2A",
"w  c #3D3E2F",
"e  c #3B3431",
"r  c #43190D",
"t  c #511E10",
"y  c #7A2D18",
"u  c #4F2C22",
"i  c #442F28",
"p  c #522D23",
"a  c #5E2F22",
"s  c #45322B",
"d  c #4E372C",
"f  c #543327",
"g  c #563528",
"h  c #583629",
"j  c #5B3C2C",
"k  c #403530",
"l  c #453A35",
"z  c #483C37",
"x  c #453D3A",
"c  c #483D38",
"v  c #622F20",
"b  c #3A462E",
"n  c #3D4534",
"m  c #3C4930",
"M  c #49432E",
"N  c #5A442F",
"B  c #4B4534",
"V  c #404B35",
"C  c #49413C",
"Z  c #464F3B",
"A  c #4D4F3E",
"S  c #534B33",
"D  c #524A3D",
"F  c #5D4B3A",
"G  c #4D523C",
"H  c #5A5237",
"J  c #50573E",
"K  c #5C553A",
"L  c #51593F",
"P  c #6C5032",
"I  c #60573F",
"U  c #625A3E",
"Y  c #7A543C",
"T  c #4F4641",
"R  c #564C47",
"E  c #594F4A",
"W  c #4E5040",
"Q  c #5C5A42",
"!  c #5A5D4A",
"~  c #655D44",
"^  c #715740",
"/  c #675A56",
"(  c #695C58",
")  c #546147",
"_  c #5D6B46",
"`  c #566449",
"'  c #5B614B",
"]  c #5C6F48",
"[  c #5E714A",
"{  c #666144",
"}  c #6D6B44",
"|  c #6E674C",
" . c #7F6041",
".. c #70654B",
"X. c #70694F",
"o. c #62754D",
"O. c #65794F",
"+. c #737245",
"@. c #6B6F52",
"#. c #667554",
"$. c #697655",
"%. c #677955",
"&. c #697957",
"*. c #6C7C5B",
"=. c #7C7053",
"-. c #747C5C",
";. c #727F62",
":. c #855035",
">. c #8E6C4C",
",. c #81785A",
"<. c #907252",
"1. c #70805F",
"2. c #778B5F",
"3. c #7E955E",
"4. c #738363",
"5. c #7B8A67",
"6. c #788768",
"7. c #7B8B6A",
"8. c #7F9660",
"9. c #8B825F",
"0. c #84A15A",
"q. c #8DAB5F",
"w. c #8B8360",
"e. c #818E65",
"r. c #839067",
"t. c #86926C",
"y. c #88946E",
"u. c #8B9C6F",
"i. c #869371",
"p. c #8A9570",
"a. c #919B7B",
"s. c #939E7B",
"d. c #8EAC61",
"f. c #9AAB76",
"g. c #A0A87E",
"h. c #A5B77E",
"j. c #98A380",
"k. c #9BA683",
"l. c #B3B896",
"z. c #B4B897",
"x. c #BEC49F",
"c. c #BFC5A0",
"v. c #C0C5A1",
/* pixels */
"                                                                                                                                ",
"                                                                                                                                ",
"                                                                                                                                ",
"                                                                                                                                ",
"                                                                                                                                ",
"                                                                                                                                ",
"                                                                                                                                ",
"                                                                                                                                ",
"                                                                                                                                ",
"                                                                                                                                ",
"                                                                                                                                ",
"                                                  , j h p p p h j j j ,                                                         ",
"                                                  , j g p p p g j j j ,                                                         ",
"                                              j j j j g p p p g j K [ o.o.m                                                     ",
"                                              j j j j g p p p f j K [ [ [ b                                                     ",
"                                          j j [ [ K j g p g j K [ [ [ [ [ [ o.O.                                                ",
"                                          j j [ [ K j g p f j K [ [ [ [ [ [ [ o.                                                ",
"                                          [ [ [ [ K j j j ~ &.#.[ [ [ [ [ [ [ o.                                                ",
"                                          [ [ [ [ K j j j I $.#.[ [ [ [ [ [ [ o.                                                ",
"                                          [ [ $.$.~ j ~ 4.4.1.*.$.$.$.#.[ [ [ o.                                                ",
"                                          [ [ $.$.~ j ~ 1.1.1.&.$.$.$.#.[ [ [ o.                                                ",
"                                          $.$.1.1.~ j ~ 1.*.1.1.1.1.1.*.$.#.[ o.                                                ",
"                                          &.&.4.4.~ j ~ 4.4.4.4.4.4.4.*.$.#.[ o.                                                ",
"                                                  n -.~ j ,           q 1.&.[ o.                                                ",
"                                                  n 1.~ j ,           q 1.&.o.O.                                                ",
"                                          l.z.0.0.3.1.~ j } 0.f.l.a.&.*.1.G . .                                                 ",
"                                          c.v.d.q.3.1.~ j +.q.h.x.k.1.1.1.Z                                                     ",
"                                          s.s.8.3.2.1.~ j } 3.u.j.i.1.1.1.Z                                                     ",
"                                          $.$.1.1.1.1.~ j ~ 1.1.1.1.1.1.1.Z                                                     ",
"                                          $.$.1.1.1.1.@.~ ~ ~ ~ ~ @.1.*.%.V                                                     ",
"                                          $.$.1.1.1.1.1.1.~ j j j ~ 1.&.[ b                                                     ",
"                                          #.o.t.y.5.1.5.y.-.~ ..=.X.{ Q G w - -                                                 ",
"                                          [ [ g.g.y.1.y.g.p.1.y.g.,.j d 0 k l c                                                 ",
"                                          q q e.r.t.t.9.<.9.t.w.<.^ d s 0 k l l - -                                             ",
"                                              ] [ e.g.>.y >.g.>.y a 0 0 0 k l l l c                                             ",
"                                              G J $.t. .y :.<.Y v f 0 0 k k l l l c                                             ",
"                                              0 0 G [ P y y y a 0 0 0 k l l l l l c                                             ",
"                                              i s B L N v v v f 0 0 0 k l l l l 2 2                                             ",
"                                              u p i 0 0 0 0 0 0 0 0 0 k l l l c                                                 ",
"                                          + + F F z 0 0 0 0 0 0 0 0 0 k l l l c                                                 ",
"                                          l l 6.6.! 0 0 0 0 0 0 0 0 0 k l l l c                                                 ",
"                                          l l 6.6.! 0 0 0 0 0 0 0 0 6 0 l l l c                                                 ",
"                                          l l l l -   @ 4 4 4 4 4 A *.' l l l c                                                 ",
"                                          l l z z -   @ 4 4 4 4 4 G *.' l l l c                                                 ",
"                                      l l l z             @ 4 4 4 0 l l l 0 4 4                                                 ",
"                                      z l l z             @ 4 4 4 0 l l l 0 4 4                                                 ",
"                                  l k l l l z             + 2 2 2 A 4.4.4.! 2 2                                                 ",
"                                  l l l l l c             + 2 2 2 W 6.6.6.' 2 2                                                 ",
"                                  4.;.;.4.. .         < H H H K H I { { { ~ K K S S                                             ",
"                                  7.6.6.7.            7 U I I I I I U U U U U ~ H K                                             ",
"                                  + + + +             7 U I I K H K I I U U U ~ H K                                             ",
"                                                      7 U I I K H K I I U U U ~ H K                                             ",
"                                                      7 U I I K H ~ | | | | | | _ _ ) `                                         ",
"                                                      7 U I I K H ~ X.X.X.X.X.X.[ [ &.*.                                        ",
"                                                  ; M H U I I 9 O # # 8 I I I I # # *.*.                                        ",
"                                                  7 U U U I I 4       : H H H K     *.*.                                        ",
"                                                  3 D D D 8 = o       . # # # #     > >                                         ",
"                                                  1 C C C 1                                                                     ",
"                                              2 2 l R T C 1   X & X                                                             ",
"                                              / ( ( ( E C 1   * y r                                                             ",
"                                              x x x x e 5 @   $ t %                                                             ",
"                                                                                                                                ",
"                                                                                                                                ",
"                                                                                                                                "
};