/* XPM */
static char *_0421565185f47d0c79822a3e616161ffdHNDZzKa3Yug7NY[] = {
/* columns rows colors chars-per-pixel */
"64 64 145 2 ",
"   c #FFDEAD",
".  c #0C0604",
"X  c #0F0A07",
"o  c #0E0B0B",
"O  c #120A07",
"+  c #120D0A",
"@  c #0F100D",
"#  c #13130D",
"$  c #151511",
"%  c #191612",
"&  c #161912",
"*  c #191B15",
"=  c #20120E",
"-  c #231D1B",
";  c #341D17",
":  c #1D2216",
">  c #1F2018",
",  c #25221E",
"<  c #2B221F",
"1  c #2C281C",
"2  c #3C221A",
"3  c #3E291E",
"4  c #2C2420",
"5  c #262B20",
"6  c #302723",
"7  c #342A25",
"8  c #352D29",
"9  c #382E29",
"0  c #2D3523",
"q  c #2F3728",
"w  c #363122",
"e  c #3C3727",
"r  c #33342A",
"t  c #3C312C",
"y  c #333A2B",
"u  c #3A3D2F",
"i  c #3F3530",
"p  c #772C17",
"a  c #792915",
"s  c #772C18",
"d  c #7A2D18",
"f  c #422D21",
"g  c #4D2E25",
"h  c #512D23",
"j  c #403A27",
"k  c #443129",
"l  c #4A3128",
"z  c #433C2C",
"x  c #533125",
"c  c #563729",
"v  c #573B2C",
"b  c #5A3C2C",
"n  c #413631",
"m  c #453A35",
"M  c #4E3A31",
"N  c #493F39",
"B  c #643D2D",
"V  c #743C23",
"C  c #3C482F",
"Z  c #3D4634",
"A  c #5B422F",
"S  c #454336",
"D  c #484130",
"F  c #414E33",
"G  c #484837",
"H  c #4A433A",
"J  c #414938",
"K  c #4B4C3A",
"L  c #5C4431",
"P  c #5D4935",
"I  c #504F3F",
"U  c #5F4B38",
"Y  c #47523C",
"T  c #4E513E",
"R  c #4B5A3B",
"E  c #5A5237",
"W  c #5C5239",
"Q  c #5D5D3F",
"!  c #794127",
"~  c #614F3B",
"^  c #61523C",
"/  c #645C3F",
"(  c #5B4F4D",
")  c #545B46",
"_  c #5D5E40",
"`  c #5C554C",
"'  c #535D48",
"]  c #5A5B4A",
"[  c #645D41",
"{  c #645E49",
"}  c #625552",
"|  c #655854",
" . c #546045",
".. c #5D6141",
"X. c #5E6A46",
"o. c #576448",
"O. c #5D634D",
"+. c #5D6C4A",
"@. c #5E714A",
"#. c #66644A",
"$. c #69664D",
"%. c #696A4E",
"&. c #75664C",
"*. c #70694F",
"=. c #61734D",
"-. c #6A6D51",
";. c #716A50",
":. c #667554",
">. c #6B7455",
",. c #667850",
"<. c #6C7C5B",
"1. c #707D5E",
"2. c #717D61",
"3. c #802F1A",
"4. c #82452C",
"5. c #83492F",
"6. c #844D32",
"7. c #875539",
"8. c #88593D",
"9. c #70805F",
"0. c #748363",
"q. c #788768",
"w. c #7D8B6A",
"e. c #81985E",
"r. c #8AA65F",
"t. c #8DAA5F",
"y. c #978762",
"u. c #849E60",
"i. c #8B9674",
"p. c #929D76",
"a. c #8DAA60",
"s. c #8FAD60",
"d. c #96A279",
"f. c #9FA77E",
"g. c #A1A97F",
"h. c #A3AB81",
"j. c #A4AB81",
"k. c #A3AD82",
"l. c #A5AC81",
"z. c #A7B684",
"x. c #ADBC88",
"c. c #B3BC94",
"v. c #B8BF9A",
"b. c #BBC49A",
"n. c #C1C7A1",
/* pixels */
"                                                                                                                                ",
"                                                                                                                                ",
"                                                                                                                                ",
"                                                                                                                                ",
"                                                                                                                                ",
"                                                                                                                                ",
"                                                                                                                                ",
"                                                                                                                                ",
"                                                                                                                                ",
"                                                                                                                                ",
"                                                                                                                                ",
"                                                    . f f 2 2 2 2 2 2 2 2 +                                                     ",
"                                                    . b b h h h h h h h h =                                                     ",
"                                                . 3 f ..Q c c x h h h c c D F :                                                 ",
"                                                X b A @.+.b b x h h h c b Q @.0                                                 ",
"                                            . ; 2 b A @.+.b b x h c c W _ X.@.R C :                                             ",
"                                            O h x b A @.+.b b x h b b ..@.@.@.@.@.0                                             ",
"                                            O h x b A @.+.b b c c W [ X.@.@.@.@.@.0                                             ",
"                                            O h x b A @.+.b b b b #.:.=.@.@.@.@.@.0                                             ",
"                                            O c v Q Q :.=.b b [ #.:.<.:.:.=.@.@.@.0                                             ",
"                                            + b L @.@.:.:.b b >.9.9.9.<.:.=.@.@.@.0                                             ",
"                                            # P W =.=.<.:.b b >.9.9.9.<.<.,.=.@.@.0                                             ",
"                                            & @.=.:.:.9.<.b b >.9.9.9.9.9.<.:.=.@.0                                             ",
"                                            & =.+. . .O.O.P P %.>.<.9.:.O.o. .+.=.q                                             ",
"                                            & :.o.      . 0.9.U b -.9.5       Z :.y                                             ",
"                                            & :.+.* * # & 0.9.U b -.9.y # & * Y :.y                                             ",
"                                            & :.0.n.b.t.a.1.9.U b -.9.u.s.x.n.i.:.y                                             ",
"                                            & :.0.v.c.r.r.1.9.~ L %.<.e.r.z.v.i.:.y                                             ",
"                                            * 9.9.<.<.9.9.9.9.0.0.~ b %.9.<.<.9.9.u                                             ",
"                                            * 9.9.9.9.9.9.9.9.9.9.^ b %.<.1.9.9.9.u                                             ",
"                                            & @.=.9.9.9.9.9.9.9.9.0.0.^ b $.9.,.@.0                                             ",
"                                            & @.=.9.9.9.9.9.9.9.9.9.9.^ b %.9.,.@.0                                             ",
"                                            o m H @.=.j.g.<.9.d.h.w.9.p.k.&.b M m -                                             ",
"                                            o m H @.,.h.f.<.9.d.h.w.9.p.h.&.b M m -                                             ",
"                                            O h g 9 t @.=.l.h.4.a y.h.7.a h t n m -                                             ",
"                                            O h g t z @.=.h.g.5.d y.g.7.d x t n m -                                             ",
"                                            % %.{ g l G K 9.9.! d 6.8.B x k t n m 9 4 $                                         ",
"                                            * q.1.h g t t @.@.V d d d x t t t n m m m -                                         ",
"                                            $ ] ] $.{ t t K K c x x x k t t t n m m m -                                         ",
"                                            o m H q.2.t t t t t t t t t t t t n m m m -                                         ",
"                                            o m N ] ] t t t t t t t t I ] S 9 i m m m -                                         ",
"                                            o m m m m t t t t t t t t O.9.K 7 t m m m -                                         ",
"                                            . - , m m 9 9 9 9 9 9 K ) :.<.u % * - 8 m -                                         ",
"                                                o m m 7 7 7 7 7 7 O.<.<.<.0       , m -                                         ",
"                                                o m m t t 7 7 7 7 O.<.' T >       , m 8 - #                                     ",
"                                                o m m m m 7 7 7 7 O.<.S 7 #       , m m m -                                     ",
"                                                @ O.O.O.] 4 6 6 6 S K t 6 +       , m m m -                                     ",
"                                                $ q.q.q.0.< 4 4 4 4 4 4 4 +       , m m m -                                     ",
"                                                # >.>.>.-.z D D D D D D D e w #   r O.O.O.r                                     ",
"                                                + [ / / / / / / / / / / / / / 1   J q.q.q.Z                                     ",
"                                                + [ / / / / / / / / / / / / / 1   , J J J ,                                     ",
"                                                + [ / / / / / W E / / / / / / 1                                                 ",
"                                                + [ / / / / / W E / / / / / / 1                                                 ",
"                                                # ;.;.;.;.;.;.%   j E / / / / 1                                                 ",
"                                                # ;.*.*.*.;.;.%   z W / / / / 1                                                 ",
"                                                + } } } (             z / / / 1                                                 ",
"                                                + | | | `             z / / / 1                                                 ",
"                                                                      Y <.<.<.q                                                 ",
"                                                                      Y <.<.<.q                                                 ",
"                                                    . 3.p             ) q.q.q.y                                                 ",
"                                                    . 3.s             ' w.w.w.u                                                 ",
"                                                                                                                                ",
"                                                                                                                                ",
"                                                                                                                                "
};