/* XPM */
static char *_56062e3af03446e9421d27d0543e3f0Sp40IGjHLgTCGbL9[] = {
/* columns rows colors chars-per-pixel */
"64 64 147 2 ",
"   c #FFDEAD",
".  c #070806",
"X  c #0D0C0A",
"o  c #1B0F0B",
"O  c #10120E",
"+  c #161312",
"@  c #1D1917",
"#  c #22130F",
"$  c #271A13",
"%  c #2C1C15",
"&  c #221D1B",
"*  c #1F2519",
"=  c #26211D",
"-  c #2B221F",
";  c #2D291D",
":  c #33231E",
">  c #3B211A",
",  c #302C1E",
"<  c #3F291E",
"1  c #2C2420",
"2  c #2D2826",
"3  c #322621",
"4  c #342A25",
"5  c #352D29",
"6  c #392E29",
"7  c #2A3122",
"8  c #343123",
"9  c #393626",
"0  c #303628",
"q  c #3C312C",
"w  c #333B2B",
"e  c #383A2C",
"r  c #402B1F",
"t  c #6E2E1D",
"y  c #7A2A16",
"u  c #7C2D18",
"i  c #492F26",
"p  c #512D23",
"a  c #5A2F22",
"s  c #413D29",
"d  c #533227",
"f  c #563628",
"g  c #51382C",
"h  c #5A3C2C",
"j  c #493630",
"k  c #453A35",
"l  c #39412F",
"z  c #3A4231",
"x  c #5C412F",
"c  c #464335",
"v  c #4D4536",
"b  c #49413C",
"n  c #4C4D3C",
"m  c #5C4432",
"M  c #554D35",
"N  c #5D4B36",
"B  c #554C3A",
"V  c #5B4D3A",
"C  c #435034",
"Z  c #4A543E",
"A  c #4B5A3B",
"S  c #5A5237",
"D  c #50533E",
"F  c #5D543B",
"G  c #5C593C",
"H  c #61533D",
"J  c #685539",
"K  c #645C3F",
"L  c #4E4F40",
"P  c #544F40",
"I  c #4C5740",
"U  c #4F5B43",
"Y  c #515341",
"T  c #555C45",
"R  c #585A47",
"E  c #555F49",
"W  c #5A5E4A",
"Q  c #645C43",
"!  c #615F48",
"~  c #6A5D59",
"^  c #576344",
"/  c #5E6544",
"(  c #5D6945",
")  c #5C624C",
"_  c #5C6D4B",
"`  c #5E714A",
"'  c #5F6D51",
"]  c #666047",
"[  c #606C47",
"{  c #676249",
"}  c #6C664B",
"|  c #676E4D",
" . c #6F694E",
".. c #70694F",
"X. c #62744E",
"o. c #6B724F",
"O. c #65794F",
"+. c #626451",
"@. c #626E52",
"#. c #6B6C51",
"$. c #736D53",
"%. c #667554",
"&. c #6A7556",
"*. c #667853",
"=. c #687956",
"-. c #6B7759",
";. c #6D7B5A",
":. c #737356",
">. c #7C7356",
",. c #717852",
"<. c #707F5E",
"1. c #7A7D5D",
"2. c #8E694B",
"3. c #867254",
"4. c #837B5C",
"5. c #70805F",
"6. c #7D945E",
"7. c #738363",
"8. c #778768",
"9. c #7B8A6A",
"0. c #95825F",
"q. c #85A259",
"w. c #8DAB5E",
"e. c #8B8764",
"r. c #818D69",
"t. c #829665",
"y. c #8C986F",
"u. c #92916D",
"i. c #8A9571",
"p. c #8D9972",
"a. c #9E9D75",
"s. c #939E7B",
"d. c #8FA767",
"f. c #98B16D",
"g. c #94A07D",
"h. c #98A178",
"j. c #9EA078",
"k. c #A0A279",
"l. c #A1A97F",
"z. c #A3AB80",
"x. c #A4AB81",
"c. c #B1B893",
"v. c #B4B996",
"b. c #B6BC99",
"n. c #BCC39C",
"m. c #BEC49F",
"M. c #C1C7A2",
/* pixels */
"                                                                                                                                ",
"                                                                                                                                ",
"                                                                                                                                ",
"                                                                                                                                ",
"                                                                                                                                ",
"                                                                                                                                ",
"                                                                                                                                ",
"                                                                                                                                ",
"                                                                                                                                ",
"                                                      $ $ # # # # # # # # # o                                                   ",
"                                                    . h h p p p p p p p p p >                                                   ",
"                                                    . h h p p p p p p p p p >                                                   ",
"                                                % h x ` ` m h h p p p p f h N X.O.                                              ",
"                                                % h h ` ` m h h p p p p f h m ` X.                                              ",
"                                            % > i h h ` ` m h h p p f f S / ( ` ` A A *                                         ",
"                                            > p f h h ` ` m h h p p f h G ` ` ` ` ` ` 7                                         ",
"                                            > p f h h ` ` m h h p p h h G ` ` ` ` ` ` 7                                         ",
"                                            > p f h h ` ` m h h h h %.=.%.` ` ` ` ` ` 7                                         ",
"                                            > p d h h ` ` m h h h f @.%.X.` ` ` ` ` ` 7                                         ",
"                                            < f N / ( %.%.m h x &.&.;.;.;.%.%.` ` ` ` 7                                         ",
"                                            r h F ` ` =.=.m h m 7.5.5.5.;.%.%.` ` ` ` 7                                         ",
"                                            s F / X.%.;.;.m h m 7.5.5.5.;.;.=.X.X.` ` 7                                         ",
"                                            C ` X.%.=.7.7.m h m 7.5.5.5.5.5.;.%.=.` ` 7                                         ",
"                                            C X._ ) ) @.@.N m N ;.-.<.5.-.@.' ) ) ` X.7                                         ",
"                                            Z %.l         @.7.;.f f ;.5.z         %.%.7                                         ",
"                                            Z %.l         ' 5.;.f f ;.5.z         %.%.7                                         ",
"                                            Z %.i.v.c.q.q.5.5.;.f f ;.5.6.q.d.v.b.=.%.7                                         ",
"                                            Z %.p.m.n.w.w.5.5.;.f f ;.5.t.w.f.M.M.=.%.7                                         ",
"                                            I ;.9.s.s.6.6.5.5.<.{ { Q Q ,.6.t.s.g.;.;.7                                         ",
"                                            U 5.5.5.5.5.5.5.5.5.5.7.m h ] 5.5.5.5.7.5.0                                         ",
"                                            Z ;.;.5.5.5.5.5.5.5.5.7.H H Q #.&.5.5.;.;.7                                         ",
"                                            C ` *.5.5.5.5.5.5.5.5.5.5.5.Q h N 7.7.` ` 7                                         ",
"                                            C ` *.5.5.5.5.5.5.5.5.5.5.5.Q h N 7.7.` ` 7                                         ",
"                                            e D ) *.=.p.p.7.5.7.p.p.7.5.1.4.>.Q Q D D =                                         ",
"                                            4 k D ` X.x.z.8.5.7.z.z.7.5.i.l.u.f h k k @                                         ",
"                                            3 j v T ^ p.y.r.r.r.0.0.r.r.e.0.3.g g k k @                                         ",
"                                            > p i q q ` ` h.l.j.y y a.l.2.u t q q k k @                                         ",
"                                            > p i q q X.` h.x.k.y y a.x.2.u t q q k k @                                         ",
"                                            > p i q q 6 6 ^ ` ( y u y y a q q q q k k @                                         ",
"                                            > p i q q q q ( ` [ y u u u a q q q q k k @                                         ",
"                                            n #.P 5 5 q q c c c p d d d V +.R 5 5 k k @                                         ",
"                                            E 8.W 4 4 q q q q q q q q q R 5.@.4 4 k k @                                         ",
"                                        & & L +.c @ @ 6 6 6 6 6 6 6 n Y Y R Y q q k k @                                         ",
"                                        k k k k =     5 4 4 4 4 4 4 %.;.Z 4 6 k k k k @                                         ",
"                                        k k k k =     4 4 4 4 4 4 4 @.;.n 4 6 k k k k @                                         ",
"                                        k k k k =     1 1 1 1 3 u u : - - 1 4 k k k k @                                         ",
"                                        k k k k =     1 1 1 1 : u u : 1 1 1 4 k k k k @                                         ",
"                                        k k k k v M M F F F F F J J F F F F B k k k k @                                         ",
"                                        k k k k B K K K K K K K K K K K K K G k k k k @                                         ",
"                                        +.) ) ) ! K K K K K K K F F K K K K Q ) ) ) ) 1                                         ",
"                                        9.8.8.8.&.K K K K K K K S S K K K K } 8.8.8.8.w                                         ",
"                                        9.9.9.9.:.K K K K K K K F F K K K K } 8.8.9.9.w                                         ",
"                                        O O O O 9 K K K K F F M X X Q  . . . .$.:.O O .                                         ",
"                                                , K K K K F S M     Q ..........$.                                              ",
"                                                , K K K Q 8 ; ;     8 9 D | | | o.                                              ",
"                                                , K K K Q X             w ` ` ` X.                                              ",
"                                                ; G G G Q X             7 A A A A                                               ",
"                                                & b b b b .                                                                     ",
"                                                & b b b b .                                                                     ",
"                                                5 ~ ~ ~ ~ X                                                                     ",
"                                                5 ~ ~ ~ ~ X                                                                     ",
"                                                + 2 2 2 2 .                                                                     ",
"                                                                                                                                ",
"                                                                                                                                "
};
