/* XPM */
static char *_ab5c167bbac4890b6a9c76bc5aa49e2d4hC7NwNsf9SHkzj[] = {
/* columns rows colors chars-per-pixel */
"64 64 136 2 ",
"   c #FFDEAD",
".  c #040303",
"X  c #060705",
"o  c #080705",
"O  c #090805",
"+  c #0C0A09",
"@  c #100D0C",
"#  c #1A1B15",
"$  c #191D15",
"%  c #221C19",
"&  c #25211F",
"*  c #2A221F",
"=  c #252D1D",
"-  c #332219",
";  c #34231A",
":  c #3D221A",
">  c #332E1F",
",  c #2D2521",
"<  c #252B20",
"1  c #302723",
"2  c #312823",
"3  c #332A25",
"4  c #362B26",
"5  c #362C27",
"6  c #352F2D",
"7  c #3B2F2B",
"8  c #293120",
"9  c #373223",
"0  c #383322",
"q  c #323C27",
"w  c #3D3825",
"e  c #36302E",
"r  c #3A302C",
"t  c #3C312C",
"y  c #3D332D",
"u  c #512D23",
"i  c #522E24",
"p  c #542F24",
"a  c #413B27",
"s  c #463E2E",
"d  c #553327",
"f  c #553527",
"g  c #563628",
"h  c #593729",
"j  c #5A3B2B",
"k  c #5A3C2C",
"l  c #5D3E2D",
"z  c #413C31",
"x  c #453A35",
"c  c #56412F",
"v  c #4B4331",
"b  c #4E4634",
"n  c #484A32",
"m  c #4D4831",
"M  c #48413C",
"N  c #414A39",
"B  c #474A3A",
"V  c #444D3B",
"C  c #484A3A",
"Z  c #494D3B",
"A  c #4B4D3C",
"S  c #4C4D3C",
"D  c #594732",
"F  c #5C4432",
"G  c #5E4734",
"H  c #524B32",
"J  c #534C33",
"K  c #514836",
"L  c #544D34",
"P  c #584F36",
"I  c #564D3B",
"U  c #45503B",
"Y  c #47523C",
"T  c #4E5E3D",
"R  c #5A5237",
"E  c #5B5338",
"W  c #5C5038",
"Q  c #5C563B",
"!  c #5C5A3D",
"~  c #5D5D3F",
"^  c #604D39",
"/  c #61593D",
"(  c #645C3F",
")  c #504F40",
"_  c #515040",
"`  c #515441",
"'  c #575A47",
"]  c #565C46",
"[  c #5C5C4C",
"{  c #645A43",
"}  c #625C43",
"|  c #605C45",
" . c #675E47",
".. c #675A56",
"X. c #695C58",
"o. c #546542",
"O. c #5E6142",
"+. c #5F624F",
"@. c #5E714A",
"#. c #656143",
"$. c #666245",
"%. c #666248",
"&. c #646549",
"*. c #68654A",
"=. c #6B6A4C",
"-. c #60724C",
";. c #61744C",
":. c #606450",
">. c #606B50",
",. c #636C53",
"<. c #676C50",
"1. c #636F55",
"2. c #656F54",
"3. c #6A6F52",
"4. c #6D6F51",
"5. c #637350",
"6. c #667152",
"7. c #637450",
"8. c #647451",
"9. c #677655",
"0. c #6E7256",
"q. c #687656",
"w. c #687855",
"e. c #667258",
"r. c #6A7A58",
"t. c #6F7A5B",
"y. c #6D7C5B",
"u. c #6E7E5D",
"i. c #707459",
"p. c #70805F",
"a. c #728361",
"s. c #748363",
"d. c #758364",
"f. c #778667",
"g. c #778668",
"h. c #7B8A6A",
/* pixels */
"                                                                                                                                ",
"                                                                                                                                ",
"                                                                                                                                ",
"                                                                                                                                ",
"                                                                                                                                ",
"                                                                                                                                ",
"                                                                                                                                ",
"                                                                                                                                ",
"                                                                                                                                ",
"                                                                                                                                ",
"                                                                                                                                ",
"                                                                                                                                ",
"                                                                                                                                ",
"                                                                                                                                ",
"                                                    ; l h p p p p p p p p :                                                     ",
"                                                    - k g u u u u u u u u :                                                     ",
"                                                8 q n Q D f f i u d f c P m q q                                                 ",
"                                                T @.@.@.! k k i u g k Q @.@.@.@.                                                ",
"                                            = = o.@.@.@.! k k f d D W O.@.@.@.@.= =                                             ",
"                                            ;.@.@.@.@.@.! k k k k ~ @.@.@.@.@.@.@.;.X                                           ",
"                                            ;.@.@.@.@.@.! k k F F O.-.@.@.@.@.@.@.;.X                                           ",
"                                            ;.@.@.@.@.@.! k j 6.9.9.9.7.@.@.@.@.@.;.X                                           ",
"                                            ;.@.@.@.@.@.! k j 6.9.9.9.7.@.@.@.@.@.;.X                                           ",
"                                            ;.@.@.@.8.q.} k j t.a.a.a.y.q.8.@.@.@.;.X                                           ",
"                                            ;.@.@.@.5.9.} k j t.p.p.p.t.9.8.@.@.@.;.X                                           ",
"                                            ;.@.8.9.y.p.%.k j t.p.p.p.p.p.u.9.9.@.;.X                                           ",
"                                            ;.@.8.9.y.p.%.k j t.p.p.p.p.p.u.9.9.@.;.X                                           ",
"                                            w.8.y.u.%.^  .i.i.d.f.f.f.a.p.p.u.u.8.w.X                                           ",
"                                            r.9.u.p.{ k  .f.f.f.f.f.f.d.p.p.p.p.9.r.X                                           ",
"                                            r.9. .{  .%.0.f.f.f.f.f.f.d.p.p.p.p.9.r.X                                           ",
"                                            r.9.F k %.p.s.f.f.f.f.f.f.d.p.p.p.p.9.r.X                                           ",
"                                            r.9.F k %.p.2.' ' ' ' ' ' ,.p.p.p.p.9.r.X                                           ",
"                                            r.9.F k %.p.' 3 3 4 4 4 4 ` p.p.p.p.9.r.X                                           ",
"                                            y.r.G l *.a.] 3 3 4 4 4 4 ` a.a.a.a.w.y.X                                           ",
"                                            4 3 3 4 3 3 3 3 4 4 3 3 4 4 3 3 3 3 3 4                                             ",
"                                            4 4 4 4 4 4 3 3 3 4 3 4 4 4 4 4 4 4 4 4                                             ",
"                                            4 4 4 4 3 3 3 3 4 4 3 3 4 4 4 4 4 4 4 4                                             ",
"                                            4 4 4 4 3 3 3 3 4 4 4 3 4 4 3 3 4 3 4 4                                             ",
"                                            4 4 4 4 4 3 4 4 4 4 4 3 3 4 3 4 3 3 4 4                                             ",
"                                            4 4 4 4 3 3 4 4 4 4 4 4 4 4 3 3 3 3 4 4                                             ",
"                                            3 1 3 3 3 3 4 4 4 4 4 3 3 3 4 4 4 4 , 3                                             ",
"                                            , , 3 3 3 3 4 4 4 4 4 3 3 3 4 4 4 4 , ,                                             ",
"                                            , , 1 2 3 3 4 4 4 4 4 z A t 4 3 2 2 , ,                                             ",
"                                            , , , , 1 3 3 4 4 4 4 ] r.` 4 3 , , , ,                                             ",
"                                            , , , , 3 5 5 5 4 z z ' >.S 5 2 % % , , + O .                                       ",
"                                            , , , , 5 t t t 7 r.p.) t t t ,     , , , , @                                       ",
"                                            , , , , 5 t t t t r.p._ t t t ,     , , , , @                                       ",
"                                            , , , , r x [ h.h.g.g.h.h.:.x 3     , , , , @                                       ",
"                                            , , , , r x [ f.f.f.f.f.f.+.x 3     , , , , @                                       ",
"                                            , , s v K I | 4.4.4.4.4.4.| I b 9 9 , , , , @                                       ",
"                                            , , E ( ( ( ( ( ( ( ( ( ( ( ( ( ( ( * , , , @                                       ",
"                                            Z B ! ( ( ( ( ( ( / / / ( ( ( ( ( ( B C C C #                                       ",
"                                            r.9.#.( ( ( ( ( ( E R / ( ( ( ( ( ( 9.9.9.9.<                                       ",
"                                            Y U &.=.=.=.$./ / a w J / / / / ( ( U V V V $                                       ",
"                                                1.f.f.f.3.R Q O   0 R R R Q ( (                                                 ",
"                                                1.f.f.f.<.H L o   > H L E Q ( (                                                 ",
"                                                1.f.f.f.N             9 ( ( ( (                                                 ",
"                                                e.h.h.h.V             9 ( ( ( (                                                 ",
"                                                                      & M M M M                                                 ",
"                                                                      & M M M M                                                 ",
"                                                                      6 ........                                                ",
"                                                                      e X.X.X.X.                                                ",
"                                                                      @ % % % %                                                 ",
"                                                                                                                                "
};