/* XPM */
static char *f101b2a7e6344c74dcd0c1310babf13cWCxTvg9PBdCEwAQe[] = {
/* columns rows colors chars-per-pixel */
"64 64 128 2 ",
"   c #FFDEAD",
".  c #050302",
"X  c #070505",
"o  c #0A0705",
"O  c #070906",
"+  c #080907",
"@  c #090B08",
"#  c #0C0909",
"$  c #0F0D09",
"%  c #0F0D0D",
"&  c #100F0A",
"*  c #110D0C",
"=  c #0F120C",
"-  c #10120E",
";  c #15110F",
":  c #11140F",
">  c #18160F",
",  c #14180F",
"<  c #161110",
"1  c #121510",
"2  c #181311",
"3  c #191412",
"4  c #1C1714",
"5  c #161A11",
"6  c #1E1C15",
"7  c #37140B",
"8  c #291712",
"9  c #201A17",
"0  c #2E1F16",
"q  c #211F18",
"w  c #261E1B",
"e  c #231E1D",
"r  c #241F1E",
"t  c #29261A",
"y  c #2A221E",
"u  c #2C281C",
"i  c #2D2521",
"p  c #2E2824",
"a  c #302723",
"s  c #312823",
"d  c #332824",
"f  c #342A25",
"g  c #372C27",
"h  c #3D2E27",
"j  c #3B2F2B",
"k  c #293120",
"l  c #2D3623",
"z  c #2E3624",
"x  c #313825",
"c  c #323D27",
"v  c #30362A",
"b  c #3D3028",
"n  c #3E332E",
"m  c #3E372F",
"M  c #313829",
"N  c #323D28",
"B  c #333A2D",
"V  c #373F2D",
"C  c #3D382C",
"Z  c #383F2F",
"A  c #3F3930",
"S  c #501D10",
"D  c #7F2F19",
"F  c #512D23",
"G  c #542F24",
"H  c #563327",
"J  c #553427",
"K  c #563328",
"L  c #5A3A2B",
"P  c #5A3B2C",
"I  c #5B3D2D",
"U  c #433733",
"Y  c #403B30",
"T  c #403C31",
"R  c #463B36",
"E  c #443D35",
"W  c #483E38",
"Q  c #3B4432",
"!  c #5C402F",
"~  c #464036",
"^  c #404D33",
"/  c #484338",
"(  c #5C4130",
")  c #5E4734",
"_  c #574C35",
"`  c #584C35",
"'  c #585136",
"]  c #5B5338",
"[  c #5C5238",
"{  c #5D5439",
"}  c #5E573C",
"|  c #625A3D",
" . c #645C3F",
".. c #655D40",
"X. c #685C53",
"o. c #685D54",
"O. c #695C58",
"+. c #6C5F5B",
"@. c #5F6947",
"#. c #5E6E48",
"$. c #5E714A",
"%. c #666143",
"&. c #626A4C",
"*. c #656E4F",
"=. c #60724B",
"-. c #60724C",
";. c #616D51",
":. c #6D605B",
">. c #667353",
",. c #647451",
"<. c #657054",
"1. c #677655",
"2. c #697252",
"3. c #687756",
"4. c #697856",
"5. c #687A58",
"6. c #6E795A",
"7. c #6B7C5B",
"8. c #6B7A5C",
"9. c #6D7B5C",
"0. c #6F7C5C",
"q. c #707F5E",
"w. c #707E61",
"e. c #70805F",
"r. c #718261",
"t. c #778667",
"y. c #788768",
"u. c #798869",
/* pixels */
"                                                                                                                                ",
"                                                                                                                                ",
"                                                                                                                                ",
"                                                                                                                                ",
"                                                                                                                                ",
"                                                                                                                                ",
"                                                                                                                                ",
"                                                                                                                                ",
"                                                                                                                                ",
"                                                                                                                                ",
"                                                    . 0 0 8 8 8 8 8 8 8 8                                                       ",
"                                                    o I P F F F F F F F G                                                       ",
"                                                O l x { [ H K F F J H _ ` l l 5                                                 ",
"                                                = $.$.$.#.P I F F I P $.$.$.$.k                                                 ",
"                                            5 k x $.$.$.#.P I H H [ [ $.$.$.$.^ k ,                                             ",
"                                            N $.$.$.$.$.#.P I I I $.$.$.$.$.$.$.$.l                                             ",
"                                            N $.$.$.$.$.#.P I L L $.$.$.$.$.$.$.$.l                                             ",
"                                            N $.$.$.$.$.#.P I 5.4.3.3.$.$.$.$.$.$.l                                             ",
"                                            N $.$.$.$.$.#.P I 1.1.1.1.$.$.$.$.$.$.l                                             ",
"                                            N $.$.$.$.1.>.L I r.e.e.e.1.3.$.$.$.$.l                                             ",
"                                            N $.$.$.$.1.>.L I r.e.e.e.1.3.$.$.$.$.l                                             ",
"                                            N $.-.1.3.e.0.L I r.e.e.e.e.r.1.1.-.$.l                                             ",
"                                            c $.=.1.3.r.0.L I r.e.e.e.e.r.1.1.-.$.l                                             ",
"                                            V 1.4.e.6.I ( e.q.e.e.e.e.e.e.e.e.5.1.M                                             ",
"                                            V 1.4.r.6.L I r.e.e.e.e.e.e.e.e.e.5.1.M                                             ",
"                                            V 1.*.! ) 0.0.t.t.t.t.t.t.e.e.e.e.5.1.M                                             ",
"                                            V 1.*.I ( r.r.t.t.t.t.t.t.e.e.e.e.5.1.M                                             ",
"                                            V 1.*.I ( r.r.t.t.t.t.t.t.e.e.e.e.5.1.M                                             ",
"                                            V 1.*.I ( r.r.y.y.y.y.y.y.e.e.e.e.5.1.M                                             ",
"                                            N -.@.I ( r.0.m A A A A m r.r.3.4.,.-.z                                             ",
"                                            N $.@.I ( r.9.d f f f f d r.r.1.1.-.$.l                                             ",
"                                            q C C h b T T f f f f f f T T A Y C C 6                                             ",
"                                            4 f f f f f f f f f f f f f f f f f f 3                                             ",
"                                            4 f f f f f f f f f f f f f f f f f f 3                                             ",
"                                            4 f f f f f f f f f f f f f f f f f f 3                                             ",
"                                        # < w f f f f f f f f f f f f f f f f f f 3                                             ",
"                                        3 a d f f f f f f f f f f f f f f f f f f 3                                             ",
"                                        3 a d d d f f f f f f f f f f f f f f f d 3                                             ",
"                                        3 a a a d f f f f f f f f f f f f f f d a 2                                             ",
"                                        3 a a a a d d f f f f f f f f f f d d s a 2                                             ",
"                                        3 a a a a i i f f f f f f f f f f i i i a 2                                             ",
"                                        3 a y q q 9 q g g g g g g ~ ~ f g i i y q *                                             ",
"                                        3 a 3       X n n n n n n r.r.j n a a <                                                 ",
"                                    X @ 9 a 3       X n n n n / ~ <.<.j n a a <                                                 ",
"                                    4 a a a 3       X n n n n r.r.j n n n a a <                                                 ",
"                                    4 a a a 3       X n n ~ ~ r.r.E ~ n n a a <                                                 ",
"                                    4 a a a 3       o R W u.y.t.t.y.u.U R a a <                                                 ",
"                                    4 a a a 3       X R W u.y.y.y.y.u.U R a a ;                                                 ",
"                                    Z ;.;.;.M   $ ] ] | | %.%.%.%.%.%.| | } } t                                                 ",
"                                    Q 1.1.1.V   & .. . . . . . . . . . . . . .u                                                 ",
"                                    @ - - - +   & .. . . . . .] { .. . . . . .u                                                 ",
"                                                & .. . . . . .' ' .. . . . . .u                                                 ",
"                                                & ..| { { { ] - - { { o.X.X.X.p                                                 ",
"                                                & ..| ' ' ' '     { ' O.O.O.O.p                                                 ",
"                                                & .. .| { > >     3 > +.O.O.O.p                                                 ",
"                                                & .. . .}             :.O.O.O.p                                                 ",
"                                                - 2.2.2.&.            r e e e %                                                 ",
"                                                : 7.5.5.1.                                                                      ",
"                                                1 r.r.r.8.            S S                                                       ",
"                                                1 y.t.t.w.            D D                                                       ",
"                                                + B B B v             7 7                                                       ",
"                                                                                                                                ",
"                                                                                                                                ",
"                                                                                                                                "
};