/* XPM */
static char *_6c5a17fd0664d5b9549a38800b8bdf7l7IVmC1j4CF8LFlw[] = {
/* columns rows colors chars-per-pixel */
"64 64 169 2 ",
"   c #FFDEAD",
".  c #0C0503",
"X  c #090907",
"o  c #0C0C0A",
"O  c #170B07",
"+  c #1D0B06",
"@  c #120C0A",
"#  c #1C0D08",
"$  c #0F120C",
"%  c #12150F",
"&  c #19160F",
"*  c #131310",
"=  c #1B1715",
"-  c #161A12",
";  c #1B1A15",
":  c #21120E",
">  c #32130A",
",  c #2C1913",
"<  c #231D1A",
"1  c #23211D",
"2  c #2C261B",
"3  c #262E1E",
"4  c #2F2B1D",
"5  c #302018",
"6  c #3A271D",
"7  c #302D1E",
"8  c #2A2421",
"9  c #262B21",
"0  c #2C2C23",
"q  c #322723",
"w  c #342A25",
"e  c #352D29",
"r  c #3A2F2A",
"t  c #2D3326",
"y  c #2E3328",
"u  c #3A3524",
"i  c #31362A",
"p  c #3C312C",
"a  c #333E28",
"s  c #3E3631",
"d  c #3C3E32",
"f  c #41180D",
"g  c #511E10",
"h  c #42251D",
"j  c #5E2313",
"k  c #502518",
"l  c #562C1F",
"z  c #632514",
"x  c #652D1E",
"c  c #6B2D1C",
"v  c #782713",
"b  c #7B2B17",
"n  c #732D1A",
"m  c #7A2D18",
"M  c #7A331D",
"N  c #512D23",
"B  c #5D2F22",
"V  c #4C3126",
"C  c #41312B",
"Z  c #523628",
"A  c #5A3B2C",
"S  c #423732",
"D  c #453A35",
"F  c #4A3B33",
"G  c #643524",
"H  c #6A3522",
"J  c #633827",
"K  c #6D3E29",
"L  c #763820",
"P  c #783F28",
"I  c #3E4636",
"U  c #3D4A31",
"Y  c #41472F",
"T  c #49422E",
"R  c #55412F",
"E  c #58492F",
"W  c #474336",
"Q  c #4F4734",
"!  c #434835",
"~  c #4E4831",
"^  c #4A423C",
"/  c #4B4D3F",
"(  c #504734",
")  c #5E4432",
"_  c #534C34",
"`  c #5F4E3C",
"'  c #4D533D",
"]  c #5A5237",
"[  c #50553D",
"{  c #5F573B",
"}  c #515A3F",
"|  c #6A4129",
" . c #6E4C2F",
".. c #774129",
"X. c #7A432C",
"o. c #614533",
"O. c #6F4D31",
"+. c #724C32",
"@. c #6C5032",
"#. c #61523F",
"$. c #645C3F",
"%. c #695B3B",
"&. c #745237",
"*. c #715E37",
"=. c #75553B",
"-. c #65613E",
";. c #524A44",
":. c #525241",
">. c #535D41",
",. c #5D5F40",
"<. c #635740",
"1. c #655C41",
"2. c #6E5E41",
"3. c #745F43",
"4. c #615651",
"5. c #695C58",
"6. c #596746",
"7. c #5A6947",
"8. c #5A644E",
"9. c #5C6F48",
"0. c #5E714A",
"q. c #5E6A52",
"w. c #646340",
"e. c #6E6247",
"r. c #606B46",
"t. c #65644C",
"y. c #746547",
"u. c #766749",
"i. c #697F46",
"p. c #62744F",
"a. c #78754F",
"s. c #626552",
"d. c #696F50",
"f. c #7B6E50",
"g. c #667555",
"h. c #6B7355",
"j. c #677957",
"k. c #6D7658",
"l. c #677958",
"z. c #6C7D5C",
"x. c #727454",
"c. c #707D5C",
"v. c #8B5239",
"b. c #836638",
"n. c #8F6B4C",
"m. c #698047",
"M. c #6F805E",
"N. c #758556",
"B. c #70805F",
"V. c #7C915F",
"C. c #738363",
"Z. c #788768",
"A. c #7D9260",
"S. c #8DAB5F",
"D. c #8A8D6C",
"F. c #839067",
"G. c #85936B",
"H. c #8B976E",
"J. c #8C986E",
"K. c #878D70",
"L. c #8B9373",
"P. c #8E9A77",
"I. c #909B79",
"U. c #9EB475",
"Y. c #A3AD82",
"T. c #A4B186",
"R. c #AFB792",
"E. c #BAC29A",
"W. c #BEC59F",
/* pixels */
"                                                                                                                                ",
"                                                                                                                                ",
"                                                                                                                                ",
"                                                                                                                                ",
"                                                                                                                                ",
"                                                                                                                                ",
"                                                                                                                                ",
"                                                                                                                                ",
"                                                                                                                                ",
"                                                                                                                                ",
"                                                    f z k h h h h h h h h                                                       ",
"                                                    g m x N N N N N N N N                                                       ",
"                                                5 6 E %.| c B N N N N c c Y U $                                                 ",
"                                                V A ,.0. .m x N N N N m b r.0.-                                                 ",
"                                          . , , Z A ,.0. .m x N N c x m b r.0.U a -                                             ",
"                                          @ N N A A ,.0. .m x N N m m m b r.0.0.0.3                                             ",
"                                          @ N N G H $.0. .m n x x &.&.m m  .@.r.0.3                                             ",
"                                          @ N N n m %.0. .m m m b j.l.b m m m -.0.3                                             ",
"                                          O x x n m %.p.O.m P &.&.z.z.b m m m -.0.3                                             ",
"                                          + m m m m 2.g.+.m =.B.B.M.C.b m m m -.0.3                                             ",
"                                          + m m m m 2.g.+.m =.B.B.B.C.b b m m w.0.3                                             ",
"                                          + m m m m y.B.&.m =.B.B.B.B.C.C.M m m m >                                             ",
"                                          + b b m m u.C.&.b =.C.C.B.B.C.C.M m m m >                                             ",
"                                          ; d.h.& . X o ! c.=.M M C.C.o o . . j m >                                             ",
"                                          ; g.j.%       I B.=.m b C.C.        j m >                                             ",
"                                          ; g.g.K.L.N.i.*.X.K J J C.C.m.i.L.L.X.m >                                             ",
"                                          ; g.g.R.W.U.S.b.m H A A C.z.S.S.E.W.v.m >                                             ",
"                                          & +.+.D.I.G.V.a.3.e.t.t.<.#.A.V.P.I.f.3.2                                             ",
"                                          + m m x.B.B.B.B.B.B.B.C.A A C.B.B.B.B.B.y                                             ",
"                                          # L L x.B.B.B.B.B.B.B.C.) ) k.k.c.B.x.x.0                                             ",
"                                          - 0.0.z.B.B.B.B.B.B.B.B.C.C.A A z.B.X.m >                                             ",
"                                          - 0.0.z.B.B.C.B.B.B.C.C.B.C.A A z.c...m >                                             ",
"                                          @ D D 6.0.H.Y.G.B.L.Y.Y.z.z.Y.Y.) A F D =                                             ",
"                                          @ D D 7.0.J.Y.G.z.L.Y.Y.z.z.Y.T.o.A F D ;                                             ",
"                                          @ D D p r } 9.F.Y.n.b v Y.Y.v b C p S D ;                                             ",
"                                          o D D p p >.0.F.Y.n.m b T.T.b b C p S D =                                             ",
"                                      : N N N N C p p p [ 0.@.m m M M p p p p S D D D e                                         ",
"                                      : N N N N C p p p ' 0.@.m m m m p p p p S D D D p                                         ",
"                                      2 <.` N N C p p p W ' R B B B B p p p p S D D D p                                         ",
"                                      i Z.h.N N C p p p p p p p p p p p p p p S D D D p                                         ",
"                                      9 s.t.#.#.C r p p p p p p p p p :.:.p r S D D D p                                         ",
"                                      ; D ;.Z.Z.S w r p p p p p p p r C.C.p w S D D D p                                         ",
"                                      ; D ^ 8.8.0 < w r r r C V V ^ W M.B.8 < w w s D p                                         ",
"                                      ; D e         < w w w l m b z.z.z.z.X       8 D p                                         ",
"                                    X < D e         < w w w l n n z.z.g.g.X       8 D p X X                                     ",
"                                  < D D D e         < w w w w w w z.z.q w         8 D D D D                                     ",
"                                  < D D D e         < w w w w w w z.z.w w         8 D D D D                                     ",
"                                  < D D D e         < w w w w w w q q w w         8 D D D D                                     ",
"                                  < D D D e         < w w w w w w w w w w         8 D D D D                                     ",
"                                  i s.s.s./     4 u T Q Q Q Q Q Q Q Q Q ( u u o   d s.s.s.8.                                    ",
"                                  I Z.Z.Z.8.    _ $.$.$.$.$.$.$.$.$.$.$.$.$.$.&   ' Z.Z.Z.C.                                    ",
"                                  1 I I I i     _ $.$.$.$.$.$.{ { $.$.$.$.$.$.&   9 I I I I                                     ",
"                                                _ $.$.$.$.$.{ ] ] 1.$.$.$.$.$.&                                                 ",
"                                                _ $.$.$.$.$.T 7 7 $.{ $.$.$.$.&                                                 ",
"                                                _ $.$.$.{ ] 7     { ] $.$.$.$.&                                                 ",
"                                                _ $.$.$.~ u ;     u u $.$.$.$.&                                                 ",
"                                                _ $.$.$.7             1.$.$.$.&                                                 ",
"                                                _ $.$.$.7             1.$.$.$.&                                                 ",
"                                                s ^ ^ ^ 1             z.z.z.z.;                                                 ",
"                                                s ^ ^ ^ 1             z.z.z.z.;                                                 ",
"                                          * ;.;.4.4.;.^ 1             C.z.C.Z.g.q.9                                             ",
"                                          = 5.5.5.5.;.^ 1             C.B.Z.Z.Z.Z.i                                             ",
"                                          X 8 8 8 8 < ; o             t t t y y y *                                             ",
"                                                                                                                                "
};
