/* XPM */
static char *_5626baed08449c1cfbc303e05fe421fBfXw19sy3B4Jabtt[] = {
/* columns rows colors chars-per-pixel */
"64 64 165 2 ",
"   c #FFDEAD",
".  c #090705",
"X  c #0C0A07",
"o  c #0E0C0A",
"O  c #110E0B",
"+  c #16100D",
"@  c #18120F",
"#  c #131312",
"$  c #1C1512",
"%  c #1C1914",
"&  c #1C1E1F",
"*  c #221815",
"=  c #291A17",
"-  c #251D1A",
";  c #2A1E1B",
":  c #2E221E",
">  c #26291F",
",  c #31221E",
"<  c #292322",
"1  c #2C2924",
"2  c #332522",
"3  c #382723",
"4  c #362926",
"5  c #3A2A27",
"6  c #3B2C29",
"7  c #31312F",
"8  c #3E302D",
"9  c #292F33",
"0  c #293034",
"q  c #2F383D",
"w  c #363532",
"e  c #32393D",
"r  c #3D3839",
"t  c #422F2C",
"y  c #45312C",
"u  c #4C342F",
"i  c #413531",
"p  c #4D3531",
"a  c #443835",
"s  c #4B3A33",
"d  c #453C3B",
"f  c #4A3E3C",
"g  c #523A35",
"h  c #553D39",
"j  c #593F39",
"k  c #3F4636",
"l  c #4D4336",
"z  c #4C403E",
"x  c #464E3C",
"c  c #534039",
"v  c #5A423D",
"b  c #534B3B",
"n  c #3E4A52",
"m  c #4E4340",
"M  c #464649",
"N  c #514442",
"B  c #5E4541",
"V  c #574A47",
"C  c #5F4A43",
"Z  c #4C5541",
"A  c #555047",
"S  c #565248",
"D  c #5B564C",
"F  c #575949",
"G  c #414B53",
"H  c #43515A",
"J  c #49555E",
"K  c #5B5A58",
"L  c #634A45",
"P  c #6D4B47",
"I  c #674E48",
"U  c #665049",
"Y  c #6C534C",
"T  c #71574F",
"R  c #7B534F",
"E  c #6C5D56",
"W  c #745750",
"Q  c #7F5551",
"!  c #755A51",
"~  c #7C5E56",
"^  c #61605E",
"/  c #75665E",
"(  c #7B6B5F",
")  c #637056",
"_  c #667359",
"`  c #6B765D",
"'  c #6B795E",
"]  c #4E5A63",
"[  c #505C63",
"{  c #56626A",
"}  c #58646C",
"|  c #646362",
" . c #706866",
".. c #746C69",
"X. c #6E7D61",
"o. c #7A7978",
"O. c #835954",
"+. c #925A57",
"@. c #955D5A",
"#. c #83645C",
"$. c #88685F",
"%. c #896860",
"&. c #837367",
"*. c #947167",
"=. c #927369",
"-. c #9B766B",
";. c #9C786E",
":. c #857E7C",
">. c #977A71",
",. c #9F7A70",
"<. c #B66C69",
"1. c #A27D73",
"2. c #908277",
"3. c #918479",
"4. c #A68075",
"5. c #A98277",
"6. c #AF877C",
"7. c #AC887C",
"8. c #B48B7F",
"9. c #858584",
"0. c #8E8784",
"q. c #8E8886",
"w. c #908581",
"e. c #918885",
"r. c #988F84",
"t. c #9A9186",
"y. c #9D958E",
"u. c #929191",
"i. c #B68D81",
"p. c #BE9286",
"a. c #B09C8A",
"s. c #A49D94",
"d. c #ABA59D",
"f. c #BDAC9B",
"g. c #A6A2A1",
"h. c #ABA8A7",
"j. c #AEABAA",
"k. c #B3AEAD",
"l. c #BFB1AD",
"z. c #B1B1B0",
"x. c gray73",
"c. c #C2968A",
"v. c #C4988B",
"b. c #CC9E90",
"n. c #CFA395",
"m. c #C1AC98",
"M. c #C1AD99",
"N. c #D2A395",
"B. c #D3A496",
"V. c #D4A597",
"C. c #D8A99A",
"Z. c #D8AB9C",
"A. c #DCAD9E",
"S. c #C7B8AA",
"D. c #CDBCAA",
"F. c #E2B3A3",
"G. c #E2B3A4",
"H. c #E4B5A5",
"J. c #D2C1B0",
"K. c #D4C8BD",
"L. c #DBCCBC",
"P. c #C3C3C3",
"I. c #D8D0C7",
"U. c #D7D1CC",
"Y. c gray83",
/* pixels */
"                                                                                                                                ",
"                                                                                                                                ",
"                                                                                                                                ",
"                                                                                                                                ",
"                                                                                                                                ",
"                                                                                                                                ",
"                                                                                                                                ",
"                                                                                                                                ",
"                                                                                                                                ",
"                                                                                                                                ",
"                                                          . . . . . .       .                                                   ",
"                                                          X X X X X X .   . X .                                                 ",
"                                                          + + + + + + .   X + X                                                 ",
"                                        . X X X X X X X O p p p p p p * X 3 p : X .                                             ",
"                                        X + + + + + + @ $ g g g g g g ; + 5 g , X .                                             ",
"                                    . X ; u u u u u p h h L L L L L L h u v L 6 X .                                             ",
"                                    . X ; p p u u u u h h L L L L L L g u v L 6 . .                                             ",
"                                        . o * h v L L L L L L L L L L L L L L L L 4 X .                                         ",
"                                        . . $ h v L L L L L L L L L L L L L L L L 5 X .                                         ",
"                                    . X : h v L L L L L L L L L L L L L L L L L L 5 X .                                         ",
"                                    . X 2 h v L L L L L L L L L L L L L L L L L L 5 X .                                         ",
"                                    . X 2 h v L L L L L L L L h g g g v L L L L L 3                                             ",
"                                    . X 2 h v L L L L L L L L p u u u v L L L L L 2                                             ",
"                                . . * 5 y p g v v L L L L L L 5.8.h u v L h g v L h t 2                                         ",
"                                . X ; u u u p h v L L L L L L v.V.j u v L g u h L v h 6                                         ",
"                                  . + ; 5 u g B B L L L I 1.,.b.B.-.*.W L #.*.~ L i ; $                                         ",
"                                    . X ; u g L L L L L Y V.N.N.N.N.N.%.L 6.N.,.L 2                                             ",
"                                    . X : g h L L L I 1.4.B.V.T L B.A.i.1.! L #.1.Y 2 *                                         ",
"                                    . X 2 h v L L L I V.N.N.V.- . n.H.C.N.s X Y N.*.h 6                                         ",
"                                  . O * 5 h v L I Q O.V.N.N.V.: O B.H.A.C.c + Y N.$.5 ;                                         ",
"                                . X ; u g h v L R <.<.B.N.N.V.5 * B.H.H.H.L = ! N.Y                                             ",
"                                . . $ 2 y h h B P +.@.B.N.N.B.~ Y Z.H.H.H.*.Y ;.N.Y                                             ",
"                                    . X 2 h h h h h v V.N.N.N.F.H.H.H.H.H.H.H.A.N.Y                                             ",
"                                    . . ; p s h h h v c.c.N.N.F.H.H.H.H.H.G.F.n.i.C                                             ",
"                                        . . $ h h h h h v V.N.F.H.H.H.H.H.C.N.W   . X .                                         ",
"                                        . + - h h h h h v c.p.A.F.F.F.F.F.c.8.U o % 2 -                                         ",
"                                    . X - i i i i i i h h h g c.N.N.N.N.N.s . < z >.H.7.X .                                     ",
"                                    . X - i i i i i i h h h h c.N.N.N.V.V.s . < z >.H.7.X .                                     ",
"                                    . X - i i i a z z X.` 5 5 a.m.m.m./ N z f a i =.H.7.X .                                     ",
"                                    . X - i i i a z m X.` 5 5 a.m.m.m./ z z z d i =.H.7.X .                                     ",
"                                        o $ - i i a a S A d a E E E E V z d a ..h.k.l.w.X .                                     ",
"                                        . X $ i i i i z z z z z z z z z z a i :.Y.P.z.9.X .                                     ",
"                                        . X O $ - i i a a a a a a a a a a q.j.z.x.o.w 1                                         ",
"                                        . X X X $ i i i i i i i i i i i i g.Y.P.z.^ X .                                         ",
"                                        . X % k x F F 6 8 8 6 ( &.2.3.0.q.k.P.u.K 7 . .                                         ",
"                                        . X > X.X.X.' 5 5 5 5 a.m.L.L.U.Y.x.z.| X .                                             ",
"                                        . X > X.X.' _ 5 5 5 5 f.D.D.D.K.I.e. .d X .                                             ",
"                                        . X > X.' _ ) 5 5 5 5 S.L.m.m.J.L.E 5 - X .                                             ",
"                                        . X > X.' _ ) 5 5 5 5 y.d.t.r.s.d.D 5 - X .                                             ",
"                                        . X > X.' _ ) 5 5 5 5 G H H H H H r 5 - X .                                             ",
"                                          . % Z Z x x r r d d J J H H J J M d 1 X .                                             ",
"                                              X X X o H H } { { { H H [ { { { e X .                                             ",
"                                              . . X o H H { { [ [ n n ] { { { e X .                                             ",
"                                                  X O } { H H # . . . q H [ { e X .                                             ",
"                                                . # # } { H H # X X X e H ] { e X .                                             ",
"                                              X & H H } { H H # X X X e H H H 9 X .                                             ",
"                                              X & H H } { H H # X X X e H H H 0 X .                                             ",
"                                              X $ 4 4 5 4 o O     . X ; 4 4 4 - X .                                             ",
"                                              . + 2 2 2 2 . X     . X ; 2 2 2 * . .                                             ",
"                                        . X % b b b b b l . X     . X ; 2 s b b b 1 X .                                         ",
"                                        . X % b b b b b l . X     . X ; 2 l b b b 4 . .                                         ",
"                                        . . X % % % % % $ . . . . . . O O $ % % % + . .                                         ",
"                                            . . . . . . . . . . . . . . . . . . . . . .                                         ",
"                                              . . . . .     . . . . . .       . . . .                                           "
};
