/* XPM */
static char *_f402b4e04ac4b1ed1ed90eff045f400xMBKrPG7BqTlda3u[] = {
/* columns rows colors chars-per-pixel */
"64 64 160 2 ",
"   c #FFDEAD",
".  c #080705",
"X  c #0B0907",
"o  c #0E0C09",
"O  c #130E0C",
"+  c #15110E",
"@  c #141412",
"#  c #1B1513",
"$  c #1D1A16",
"%  c #1E1E1D",
"&  c #201713",
"*  c #231915",
"=  c #2A1A17",
"-  c #261C18",
";  c #2B1F1C",
":  c #25221D",
">  c #2B211D",
",  c #2C281F",
"<  c #31231F",
"1  c #212425",
"2  c #2B2320",
"3  c #2D2C2C",
"4  c #362622",
"5  c #382723",
"6  c #362826",
"7  c #362F2C",
"8  c #3A2B28",
"9  c #3E332D",
"0  c #353A2C",
"q  c #3F392D",
"w  c #2E3539",
"e  c #2F383C",
"r  c #3C3431",
"t  c #3A3836",
"y  c #30373C",
"u  c #402C27",
"i  c #412E2B",
"p  c #44332D",
"a  c #4C342F",
"s  c #433430",
"d  c #4D3531",
"f  c #433C30",
"g  c #4E3B36",
"h  c #473D3A",
"j  c #523A35",
"k  c #553D39",
"l  c #593F3A",
"z  c #4C403E",
"x  c #524039",
"c  c #5A423D",
"v  c #544C3C",
"b  c #343C40",
"n  c #3D3E42",
"m  c #3D4145",
"M  c #3D4448",
"N  c #3F4B53",
"B  c #484745",
"V  c #4A494C",
"C  c #514442",
"Z  c #5D4641",
"A  c #524B44",
"S  c #565349",
"D  c #414A52",
"F  c #404E58",
"G  c #43515A",
"H  c #4A575F",
"J  c #525150",
"K  c #5B5A59",
"L  c #614642",
"P  c #634A45",
"I  c #684D47",
"U  c #674D48",
"Y  c #6D4F49",
"T  c #6D5049",
"R  c #71524C",
"E  c #735750",
"W  c #765852",
"Q  c #7E5E56",
"!  c #725D58",
"~  c #7F5F58",
"^  c #5F6951",
"/  c #656954",
"(  c #74605B",
")  c #7F6059",
"_  c #667359",
"`  c #69765C",
"'  c #6A785D",
"]  c #4A5760",
"[  c #4D5A63",
"{  c #525D65",
"}  c #56626A",
"|  c #666564",
" . c #6D6C6A",
".. c #6E7D61",
"X. c #747B68",
"o. c #757474",
"O. c #81625A",
"+. c #8C6C63",
"@. c #906E66",
"#. c #8F786C",
"$. c #957167",
"%. c #94756B",
"&. c #9D7A6F",
"*. c #907E70",
"=. c #9E7B70",
"-. c #B76B69",
";. c #B86B69",
":. c #BA726F",
">. c #A17E73",
",. c #758468",
"<. c #948375",
"1. c #87967E",
"2. c #A88277",
"3. c #AA8479",
"4. c #878786",
"5. c #8B8B8A",
"6. c #9F9085",
"7. c #959594",
"8. c #9A9999",
"9. c #A29387",
"0. c #B39F8D",
"q. c #B99D8D",
"w. c #B3A08D",
"e. c #BDAB99",
"r. c #A8A7A6",
"t. c #ADADAC",
"y. c #AFB0B0",
"u. c gray69",
"i. c gray72",
"p. c #C3978A",
"a. c #C79A8D",
"s. c #C99B8E",
"d. c #CB9E90",
"f. c #CCA193",
"g. c #C6A997",
"h. c #C0AC98",
"j. c #D2A395",
"k. c #D3A496",
"l. c #D5A697",
"z. c #D6A698",
"x. c #D8A99B",
"c. c #DAAB9C",
"v. c #DCAE9E",
"b. c #C5B19E",
"n. c #C6B4A3",
"m. c #CBB8A6",
"M. c #C6B8AA",
"N. c #CCBAA8",
"B. c #CCBCAD",
"V. c #DFB0A0",
"C. c #E2B3A4",
"Z. c #E2B4A4",
"A. c #E4B5A5",
"S. c #D1C0AE",
"D. c #D4C4B3",
"F. c #D6C8B9",
"G. c #DBCCBC",
"H. c gray77",
"J. c #CCCCCC",
"K. c gray83",
/* pixels */
"                                                                                                                                ",
"                                                                                                                                ",
"                                                                                                                                ",
"                                                                                                                                ",
"                                                                                                                                ",
"                                                                                                                                ",
"                                                                                                                                ",
"                                                                                                                                ",
"                                                                                                                                ",
"                                                        X X X X X X       X .                                                   ",
"                                                        X X X X X X .   . X .                                                   ",
"                                      . X X X X X X X X u p p p p p & X & p < X X                                               ",
"                                      . X X X X X X X X p a a a a a = X & a 4 X X                                               ",
"                                  . . # 4 4 4 4 4 4 8 8 c c c c c c p 4 p c 8 X X                                               ",
"                                  . X - a a a a a d k k P P P P P P k a k P s X X                                               ",
"                                      O & 4 j j c c Z Z P P P P P P Z c Z P c s p . .                                           ",
"                                      . X ; k k P P P P P P P P P P P P P P P P Z X X                                           ",
"                                    . + > i c c P P P P P P P P P P P P P P P P Z X X                                           ",
"                                  . X > k c P P P P P P P P P P P P P P P P P P Z X X                                           ",
"                                  . X > k c P P P P P P P P c c c c Z P P P P P Z . .                                           ",
"                                  . X > k c P P P P P P P P d a a a c P P P P P Z                                               ",
"                                  O # 4 j c L L P P P P P P Y T l a c P P Z Z P Z O O                                           ",
"                              . X 5 a a a j k k P P P P P P a.j.Q a c P c a k P P k j                                           ",
"                              . . ; 8 i a j c c P P P P ) O.s.j.$.R U P I R T P P 8 8                                           ",
"                                  . X - a k P P P P P P s.j.j.j.j.j.+.P +.j.3.P Z                                               ",
"                                  . X - d k P P P P U U s.j.d.d.j.k.@.U +.d.2.U P                                               ",
"                                  . X > k c P P P E l.l.j.l.$ X %.A.c.l.+.X k l.d.k j                                           ",
"                                  X O > k c P P I W k.j.j.l.& o %.A.c.k.+.o x j.s.g d                                           ",
"                              . X 5 d j k c P Y ;.:.k.j.j.l.8 = =.A.A.A.>.= P j.p.                                              ",
"                              . X 5 d j k c P Y -.:.k.j.j.l.5 = &.A.A.A.>.= P j.p.                                              ",
"                                  o + < k k k l L R k.j.j.j.f.f.v.A.A.A.v.f.f.j.p.                                              ",
"                                  . X > k k k k k P z.l.j.j.C.A.A.A.A.A.A.A.V.l.a.                                              ",
"                                      . + > k k k k P L s.j.C.A.A.A.A.A.V.l.%.# #                                               ",
"                                      . X ; k k k k k k a.j.C.A.A.A.A.A.v.j.+.                                                  ",
"          . .                         . X + - - - > k k Q ~ f.x.x.x.x.x.3.x 6                                                   ",
"        . X X                         . X X X X X + k k k k a.j.j.j.j.j.+.X .                                                   ",
"      . V 7.o.. .             . . . . $ 7 7 7 7 7 r / / s i q.g.g.g.g.g.#.> $ . .                                               ",
"    . X  .K.r.X X             . X X X : z z z z z A ....9 8 0.h.h.h.h.h.*.8 > X X                                               ",
"    . X | H.t.| J . . . . . . $ 2 2 2 7 z z z z z A ....9 8 e.N.N.N.b.h.*.8 > X X                                               ",
"    . X K u.i.K.r.X X X X X X 7 z z z z z z z z z A ....9 6 B.G.G.G.m.h.*.8 > X X                                               ",
"    . X B 5.8.J.t.t t # # # # r z z z h r h A A A S ,.,.9 6 B.G.G.G.B.n.<.8 2 # #                                               ",
"        . X 7 u.i.K.K.C z z z z z z z 6 X 0 ...._ ' 1.1.s 6 B.G.G.G.G.G.9.8 s z h X X                                           ",
"        . X 1 4.7.J.J.( ! ! ! z r r r > X 0 ...._ ` X.X.9 6 n.D.F.G.G.G.9.8 s z h X X                                           ",
"              X 3 u.y.Z.A.A.A.g X X X X X 0 ......_ 8 8 8 8 0.h.S.G.G.G.9.8 s z h X X                                           ",
"              X 3 t.t.C.C.C.C.g X X X X X 0 ......_ 8 8 8 8 w.h.S.G.G.G.9.8 s z h X X                                           ",
"                  X X X X X X         . X 0 ...._ ^ 8 8 8 6 B.G.m.h.S.G.9.8 8 8 8 z h X X                                       ",
"                  X X X X X X         . X 0 ...._ ^ 8 8 8 6 M.F.n.e.B.F.6.8 8 8 8 C z X X                                       ",
"                                      . X 0 ...._ ^ 8 8 8 8 N F F F F F M 8 8 8 s z.a.X X                                       ",
"                                      . X 0 ...._ / 8 8 8 8 D G G G G G M 8 8 8 s z.a.X X                                       ",
"                                          o $ $ $ : D D D D { } } } } } { { m + + 2 >                                           ",
"                                          . X X X @ G G G G } } } } } } } } M X X X X                                           ",
"                                                X @ G G { } } } [ G { } } } M X X                                               ",
"                                                X @ G G } } } } ] G [ } } } M X X                                               ",
"                                                X @ G G } } ] ] y 1 M ] [ } M X X                                               ",
"                                                X @ G G } } G G 1 X w G H } M X X                                               ",
"                                                X @ G G } } G G 1 X w G G H b X X                                               ",
"                                                X @ G G } } G G 1 X w G G G e X X                                               ",
"                                                X + n n V V n n % X 3 n n n 3 X X                                               ",
"                                                X O 4 4 4 4 4 4 # X - 4 4 4 - X X                                               ",
"                                                X + p p p p p p & X - 4 8 p 9 , > . .                                           ",
"                                                X + v v v v v v : X - 4 p v v v z X X                                           ",
"                                                X + f f f f f f * X # ; 4 f f f q X X                                           ",
"                                          . .   . . . . . . . . . . . . . . . . . . .                                           ",
"                                          .     . . . . . . . . . . . . . . . . . . .                                           "
};
