/* XPM */
static char *_e8c37a44ddd485cb4920e621dfe82667YipExUMk9eSB2n6[] = {
/* columns rows colors chars-per-pixel */
"64 64 153 2 ",
"   c #FFDEAD",
".  c #080704",
"X  c #0C0A07",
"o  c #0D0B08",
"O  c #120E0B",
"+  c #16110E",
"@  c #151514",
"#  c #1A1411",
"$  c #1C1B15",
"%  c #1E1F18",
"&  c #231714",
"*  c #251A16",
"=  c #291A17",
"-  c #241B18",
";  c #291E1A",
":  c #26201E",
">  c #2C221D",
",  c #2D281F",
"<  c #33241F",
"1  c #2E2420",
"2  c #2F2A21",
"3  c #222729",
"4  c #292A2B",
"5  c #352522",
"6  c #352925",
"7  c #3B2B27",
"8  c #362C28",
"9  c #3A2B28",
"0  c #353026",
"q  c #383227",
"w  c #3B322A",
"e  c #292F32",
"r  c #2B3236",
"t  c #2D3539",
"y  c #313637",
"u  c #3D393A",
"i  c #412D29",
"p  c #43342E",
"a  c #4C342F",
"s  c #413531",
"d  c #4D3631",
"f  c #463D33",
"g  c #4D3A35",
"h  c #4A3E3B",
"j  c #523A36",
"k  c #553D39",
"l  c #583F3A",
"z  c #464032",
"x  c #4C403E",
"c  c #4D4A3D",
"v  c #56433C",
"b  c #5A413D",
"n  c #544C3C",
"m  c #3D4044",
"M  c #3B454B",
"N  c #4C4341",
"B  c #45474B",
"V  c #40494F",
"C  c #4A4B4F",
"Z  c #5E4641",
"A  c #5C4B43",
"S  c #5A5C4C",
"D  c #414A50",
"F  c #43515A",
"G  c #4B5359",
"H  c #5E5451",
"J  c #52595F",
"K  c #604742",
"L  c #634A45",
"P  c #754D49",
"I  c #66564E",
"U  c #60584A",
"Y  c #71564E",
"T  c #7C504C",
"R  c #605754",
"E  c #625956",
"W  c #6C5B52",
"Q  c #745952",
"!  c #58634D",
"~  c #76675F",
"^  c #647257",
"/  c #667459",
"(  c #68725A",
")  c #4E5A63",
"_  c #535D64",
"`  c #5A5E60",
"'  c #5D6467",
"]  c #56636B",
"[  c #58646C",
"{  c #60676B",
"}  c #626A6E",
"|  c #6E7D61",
" . c #79716F",
".. c #7B7371",
"X. c #965C59",
"o. c #85665D",
"O. c #86685E",
"+. c #A3615E",
"@. c #8B6B62",
"#. c #916F65",
"$. c #937066",
"%. c #97756B",
"&. c #99766C",
"*. c #A56461",
"=. c #B56A68",
"-. c #A37D73",
";. c #AD7F76",
":. c #B27E75",
">. c #988779",
",. c #A68176",
"<. c #AD867A",
"1. c #AB8D7F",
"2. c #B38A7E",
"3. c #8B8B8A",
"4. c #989696",
"5. c #9A9898",
"6. c #B58E81",
"7. c #B98F83",
"8. c #A79483",
"9. c #AA9787",
"0. c #AA9887",
"q. c #BD9286",
"w. c #BFAB97",
"e. c #ADAEAE",
"r. c #BCADA0",
"t. c #B0B0B0",
"y. c #C68B82",
"u. c #C1988A",
"i. c #CA9D8F",
"p. c #CA9F92",
"a. c #CCA494",
"s. c #C0AC98",
"d. c #D3A395",
"f. c #D7A799",
"g. c #D6A99A",
"h. c #D9AA9B",
"j. c #DAAB9C",
"k. c #DDAE9F",
"l. c #C5B29E",
"z. c #D7B2A5",
"x. c #DBB4A7",
"c. c #D0BFAE",
"v. c #E1B3A3",
"b. c #E4B5A5",
"n. c #E7B8A8",
"m. c #D1C0AE",
"M. c #D6C7B6",
"N. c #DACBBC",
"B. c #DBCCBC",
"V. c #DCCDBD",
"C. c gray80",
"Z. c LightGray",
"A. c #D5D5D5",
/* pixels */
"                                                                                                                                ",
"                                                                                                                                ",
"                                                                                                                                ",
"                                                                                                                                ",
"                                                                                                                                ",
"                                                                                                                                ",
"                                                                                                                                ",
"                                                                                                                                ",
"                                                    . .     . . . . .                                                           ",
"                                                    X X     . X X X .                                                           ",
"                                            . . . . ; 5 o . & 5 5 5 & . . . .                                                   ",
"                                            X X X X i a + X < a a a < X X X X                                                   ",
"                                        . . ; ; 1 1 d k > * i k k k p ; ; * # . . . .                                           ",
"                                        X X k k L L L L j a b L L L Z k j a 7 X X X X                                           ",
"                                        . . 6 6 L L L L l k Z L L L K b b k d - ; > > . .                                       ",
"                                            X o L L L L L L L L L L L L L L Z a d k k X X                                       ",
"                                            # # L L L L L L L L L L L L L L Z d d k k X X                                       ",
"                                        X X k k L L L L L L L L L L L L L L K k k k k X X                                       ",
"                                        X X b b Z Z Z Z L L L L L L L L L L K b k k k X X                                       ",
"                                        X X L L a a a a Z L L L L L L L L L L L K k k X X                                       ",
"                                        X X L L a a a a Z L L L L L L L L L L L K k k X X                                       ",
"                                    X # a a L L d.d.L a Z L k a b L L L L L K k j a a a a X X                                   ",
"                                    X # a a L L d.d.L d K L k d b L L L L L K k j a a a a X X                                   ",
"                                        X X L L d.d.d.d.Q L ,.d.@.L L L L L L L Z a a X X                                       ",
"                                        X X L L d.d.d.d.Q L ,.d.@.L L L L L L L Z a a X X                                       ",
"                                        X X q.7.6 6 6.d.a.p.Q 6 @.q.%.L b j k L K j j p p X X                                   ",
"                                        X X d.a.X X <.d.v.b.L X @.d.-.L b a j L K k k k k X X                                   ",
"                                    X + i i d.a.& & q.v.b.b.Y & #.d.i.q.:.+.X.L K k k # #                                       ",
"                                    X # a a d.a.* = u.b.b.b.Y = $.d.d.d.y.=.*.L K k k X X                                       ",
"                                    . o * - d.d.%.%.g.b.b.b.6.%.q.d.d.d.;.T P b b k k X X                                       ",
"                                        X X d.d.b.b.b.b.b.b.b.b.h.d.d.d.&.k k k k k k X X                                       ",
"                                        . . b Z j.h.v.b.b.b.b.b.h.d.2.o.Y k k k d ; ; . .                                       ",
"                                            X O d.d.v.b.b.b.b.b.h.d.-.k k k k k p X X                                           ",
"                                        . . - - O.o.a.k.k.k.k.k.,.o.Y k k k j g p - - A A                                       ",
"                                        X X s s X X <.d.d.d.d.d.v X ; k k k j s s s s b.v.                                      ",
"                                        X X s s : : 1.a.a.a.a.a.A $ w U A g g f f s s b.v.                                      ",
"                                        X X s s x x 9.s.s.s.s.s.W 9 c | S s s x h s s b.v.                                      ",
"                                        X X s s x x >.0.0.0.0.0.I 9 c ( S s f h N H H x.z.                                      ",
"                                        X X s s x x x x x x x x x x x x x x h s E A.A.t.e.                                      ",
"                                        X X 8 8 h h h h h h h h h h h h h h N R  .C.C.5.4.                                      ",
"                                            X o s s s s s s s s s s s s s s H A.C.t.t.x h X X                                   ",
"                                            X o s s s s s s s s s s s s s s H A.C.t.t.x h X X                                   ",
"                                            X o 9 9 8.w.M.N.N.N.~ 9 9 9 ..Z.C.t.3.o o 9 9 x x # X                               ",
"                                            X o 9 9 8.s.M.B.B.B.~ 9 9 9 ..Z.C.t.3.X X 9 9 x x # o                               ",
"                                            X o 9 7 r.V.l.s.c.B.~ 9 9 9 c ^ / | ! X X X o n.b.f.d.1 X .                         ",
"                                            X o 9 7 r.V.l.s.m.B.~ 9 9 9 c / / | ! X X X o b.b.f.d.1 X .                         ",
"                                            X o 9 9 ` } ' ' { } N 9 9 9 c / / | ! X X     9 9 6 6 X                             ",
"                                            X o 9 9 V F F F F F u 9 9 9 c / / | ! X X     X X X X                               ",
"                                            X o _ J _ ] F F ) ] _ J G D y $ $ % #                                               ",
"                                            X o [ ] ] ] F F ) ] ] ] ) F r X X X X                                               ",
"                                            X o [ ] ) ) e 3 M ) _ ] ) F r X X .                                                 ",
"                                            X o [ ] F F @ X t F ) ] ) F r X X                                                   ",
"                                            X o ) ) F F @ X t F ) ] ) F r X X                                                   ",
"                                            X o F F F F @ X t F ) ] ) F r X X                                                   ",
"                                            X o m m m m @ X 4 m B C B m 4 X X                                                   ",
"                                            X o 5 5 5 5 O X - 5 5 5 5 5 * X X                                                   ",
"                                            . . - * w p + X , p p p p p > X X                                                   ",
"                                                X X z n # X q n n n n n 0 X X                                                   ",
"                                                X X w f + X 2 f f f f f , X .                                                   ",
"                                              . . . . . . . . . . . . . . . .                                                   ",
"                                            . . . . . . . . . . . . . . . . .       .                                           ",
"                                            . .         . .             . .         .                                           ",
"                                    . .       .                                   . .                                           ",
"                                                                                                                                "
};
