/* XPM */
static char *_ec31fb0e7b34a0b959aded93bd56f13En0JWJZQMlqIcUMC[] = {
/* columns rows colors chars-per-pixel */
"64 64 150 2 ",
"   c #FFDEAD",
".  c #080704",
"X  c #0B0A07",
"o  c #0E0C09",
"O  c #120E0C",
"+  c #18120F",
"@  c #161210",
"#  c #1A1411",
"$  c #1E1915",
"%  c #1D1E1D",
"&  c #221613",
"*  c #221916",
"=  c #281916",
"-  c #251D1A",
";  c #2A1E1B",
":  c #1F2018",
">  c #26211C",
",  c #2B211C",
"<  c #32231F",
"1  c #1E2223",
"2  c #212222",
"3  c #2D2623",
"4  c #2F2A21",
"5  c #212628",
"6  c #282C2C",
"7  c #342522",
"8  c #352925",
"9  c #3A2A26",
"0  c #3A2B28",
"q  c #32312F",
"w  c #3D312D",
"e  c #3D3635",
"r  c #412F2B",
"t  c #42342D",
"y  c #4C342F",
"u  c #453630",
"i  c #4D3631",
"p  c #463F32",
"a  c #4C3B36",
"s  c #473A38",
"d  c #4E3F3A",
"f  c #523A36",
"g  c #553D39",
"h  c #583F3B",
"j  c #474033",
"k  c #4B4135",
"l  c #4C413E",
"z  c #4D483D",
"x  c #51413A",
"c  c #5A423D",
"v  c #544C3C",
"b  c #61453F",
"n  c #3B3D41",
"m  c #3D4044",
"M  c #40484F",
"N  c #4B4C4D",
"B  c #564743",
"V  c #5E4540",
"C  c #544F44",
"Z  c #5D4942",
"A  c #555146",
"S  c #595044",
"D  c #55524B",
"F  c #5F5649",
"G  c #575B48",
"H  c #414D54",
"J  c #414F58",
"K  c #43515A",
"L  c #49565E",
"P  c #51575D",
"I  c #5D5C5B",
"U  c #614742",
"Y  c #634A45",
"T  c #694C45",
"R  c #625149",
"E  c #6C534C",
"W  c #74534E",
"Q  c #675750",
"!  c #6A5953",
"~  c #605F5E",
"^  c #715650",
"/  c #7D5450",
"(  c #735950",
")  c #5D614E",
"_  c #7D6259",
"`  c #657358",
"'  c #69755C",
"]  c #4B5861",
"[  c #525E66",
"{  c #535F68",
"}  c #56626A",
"|  c #58636B",
" . c #666564",
".. c #6A6969",
"X. c #776E6D",
"o. c #6E7C61",
"O. c #707664",
"+. c #767E6A",
"@. c #7A7A7A",
"#. c #A05F5C",
"$. c #82635B",
"%. c #89665F",
"&. c #8F6B63",
"*. c #8A7D79",
"=. c #9E7B70",
"-. c #B66A68",
";. c #A9706A",
":. c #A57F73",
">. c #BF7D77",
",. c #738166",
"<. c #7F8A74",
"1. c #86947C",
"2. c #AB8377",
"3. c #AB8378",
"4. c #818180",
"5. c #8D8D8C",
"6. c #909090",
"7. c #9D9D9C",
"8. c #B09582",
"9. c #BC9285",
"0. c #BFAB97",
"q. c #A1A0A0",
"w. c #AFAFAF",
"e. c #B2B2B2",
"r. c #BCBCBC",
"t. c #C3998C",
"y. c #CD9F91",
"u. c #CCA595",
"i. c #C0AC97",
"p. c #C1AD99",
"a. c #CDA898",
"s. c #D0A294",
"d. c #D3A496",
"f. c #D4A597",
"g. c #D7A99A",
"h. c #D9AA9B",
"j. c #DBAB9D",
"k. c #DCAD9D",
"l. c #C5B29E",
"z. c #C7B4A0",
"x. c #CBB9A7",
"c. c #D5B4A9",
"v. c #E1B2A2",
"b. c #E5B6A6",
"n. c #D6C6B5",
"m. c #DBCCBC",
"M. c gray78",
"N. c #CBCBCB",
"B. c #D3D3D3",
"V. c #D8D8D8",
/* pixels */
"                                                                                                                                ",
"                                                                                                                                ",
"                                                                                                                                ",
"                                                                                                                                ",
"                                                                                                                                ",
"                                                                                                                                ",
"                                                  . .     . . . .                                                               ",
"                                                  X X     X X X X                                                               ",
"                                          . . . O < < . . < < < < X . . .                                                       ",
"                                        . X X X $ y y . O i y y i O X X X                                                       ",
"                                      . * 9 0 t i c c < 7 c c c c 0 9 7 7 + . . .                                               ",
"                                    . X 7 g c Y Y Y Y y i Y Y Y Y g g i y & X X X .                                             ",
"                                      . $ 9 t Y Y Y Y g g Y Y Y Y c c g g 7 = - ; + .                                           ",
"                                        . X * Y Y Y Y Y Y Y Y Y Y Y Y Y Y f y f g 7 X .                                         ",
"                                      . + , 9 Y Y Y Y Y Y Y Y Y Y Y Y Y Y g f f g 7 X .                                         ",
"                                    . X 7 g c Y Y Y Y Y Y Y Y Y Y Y Y Y Y c g g g 7 X .                                         ",
"                                    . X 7 c c V V V V Y Y Y Y Y Y Y Y Y Y c c g g 7 X .                                         ",
"                                    . X 8 Y c y y y i Y Y Y Y Y Y Y Y Y Y Y Y V g 7 X .                                         ",
"                                    o # 0 Y Y T b y i Y Y V V Y Y Y Y Y Y U U c f 8 # O                                         ",
"                                . X ; y g Y $.s.3.y i Y Y y y U Y Y Y Y Y c g f y y y 9 X X                                     ",
"                                . X ; y g Y $.s.2.y i Y Y y y U Y Y Y Y Y c g f y y y 9 X X                                     ",
"                                    . X 8 Y $.s.s.s.y.Y E f.d.W Y Y Y Y Y Y Y c y , X .                                         ",
"                                    . X 8 Y $.s.s.s.y.Y E s.s.^ Y Y Y Y Y Y Y c y , o .                                         ",
"                                    . X E d.=.. t s.d.b.g.. . 9.f.E Y f y c Y V g g g t X X                                     ",
"                                    . X E s.=.X u s.d.b.g.. . 9.f.E Y f y c Y V g g g t X X                                     ",
"                                . . * 0 %.s.:.& c v.v.b.g.& & 9.s.9.9.;.#.W Y V g 9 # +                                         ",
"                                . X ; y &.s.:.= c b.b.b.g.= = 9.s.s.s.>.-./ Y V g 7 X .                                         ",
"                                    X + ( s.u.t.u.b.b.b.v.t.t.s.s.s.s.%.U c h g g 7 X .                                         ",
"                                    . X E s.g.b.b.b.b.b.b.b.b.f.s.s.s._ g g g g g 7 X .                                         ",
"                                      . 7 Z _ j.k.b.b.b.b.b.b.f.d.&.%.Y g g g r ; + .                                           ",
"                                        . X t s.g.b.b.b.b.b.b.f.f.U g g g g g 7 X .                                             ",
"                    . .                 . X * c _ h.h.h.h.h.j.E c g g g g 8 ; + .                                               ",
"                    . X                 . X . X u s.s.s.s.s.f.- . a g g g * X .                                                 ",
"                .   D I o .           . @ - - $ x u.u.u.u.u.a.8 $ S F x i * X .                                                 ",
"                X . r.V.% X .       . X 3 l s 0 R p.p.p.p.p.p.a 9 ' o.z 0 # X .                                                 ",
"                X . w.M...~ 2 . . . @ > w l s 0 R x.x.x.x.p.p.a 9 ' o.z 0 ; $ O .                                               ",
"                X . 7.e.B.B.N X X X 3 l l l s 0 ! m.m.m.m.i.p.a 9 ' o.z 0 0 0 - X .                                             ",
"                . . 4.6.M.N. .q - # 8 l l l s 0 ! m.m.m.m.l.z.a 9 o.,.z 0 0 0 - X .                                             ",
"                    . . q.e.M.B.X.l l l l l s 0 ! m.m.m.m.m.m.d 9 <.1.C 0 0 0 - X .                                             ",
"                    . . 4.5.r.N.*.! ! ! B e w 0 Q n.n.m.m.m.m.d 9 O.+.A p t w - X .                                             ",
"                        . X @.e.c.b.b.b._ X # 0 R p.p.m.m.m.m.d 0 0 0 ) o.D l 3 X .                                             ",
"                        . X @.e.c.b.b.b._ X # 0 R p.p.m.m.m.m.d 0 0 0 ) o.D l 3 X .                                             ",
"                            . o o o o o X X # 0 ! m.m.p.p.m.m.d 0 0 0 G ` A l l l 3 X .                                         ",
"                            . X X X X X X X # 0 ! m.m.0.p.m.m.d 0 0 0 G ` A l l l 3 X .                                         ",
"                                        . X # 0 e J J J J J K w 0 0 0 G ` 8.d.k.b._ X .                                         ",
"                                        . X # 0 e K K K K K K w 0 0 0 G ` 8.s.k.b._ X .                                         ",
"                                        . X % P [ [ [ [ [ [ { H M M M 6 : 3 8 8 0 $                                             ",
"                                        . X 2 } } } } } } } } K K K K 1 X X X X X .                                             ",
"                                        . X 2 } } } } L L } } } } K K 1 X .                                                     ",
"                                        . X 2 } } } } K K | } } } K K 1 X                                                       ",
"                                        . X 2 } } ] L 5 6 ] ] } } K K 1 X                                                       ",
"                                        . X 2 } [ K H . O K K } } K K 1 X                                                       ",
"                                        . X % ] L K H . O K K } } K K 1 X                                                       ",
"                                        . X % K K K H . O K K } } K K 1 X                                                       ",
"                                        . X $ m m m n . o m m N N m m % X                                                       ",
"                                        . X + 7 7 7 7 . o 8 7 7 7 7 7 # X .                                                     ",
"                                      . @ , 8 t w 7 7 . O t t t t t t $ X .                                                     ",
"                                    . X 4 v v v k 7 7 . O v v v v v v > X .                                                     ",
"                                    . . , p j p w , ; . O j p p p p p $ X .                                                     ",
"                                    . . . . . . . . . . . . . . . . . . . .                                                     ",
"                                    . . . . . . . . . . . . . . . . . . .                                                       ",
"                                    . .                 . .             . .                                                     ",
"                                                                                                                                ",
"                                                                                                                                "
};
