/* XPM */
static char *f34d0aee5ba6435cee2f8212dad462caNtU2lb39sCw9wBQE[] = {
/* columns rows colors chars-per-pixel */
"64 64 155 2 ",
"   c #FFDEAD",
".  c #080604",
"X  c #0C0A07",
"o  c #0E0B09",
"O  c #120D0B",
"+  c #16120E",
"@  c #151514",
"#  c #1D1612",
"$  c #171817",
"%  c #1D1914",
"&  c #171918",
"*  c #1A1B1B",
"=  c #201715",
"-  c #251A16",
";  c #291A17",
":  c #241C19",
">  c #2B1F1B",
",  c #23221C",
"<  c #2C221D",
"1  c #32231E",
"2  c #1D2123",
"3  c #2D2421",
"4  c #24292B",
"5  c #2E2A2B",
"6  c #342622",
"7  c #322A24",
"8  c #392A27",
"9  c #352C28",
"0  c #3A2C29",
"q  c #3C332B",
"w  c #3F382C",
"e  c #3C3534",
"r  c #3B3638",
"t  c #422F2C",
"y  c #42322E",
"u  c #4C342F",
"i  c #43392F",
"p  c #413531",
"a  c #4D3631",
"s  c #453934",
"d  c #4C3C34",
"f  c #473B38",
"g  c #493D3A",
"h  c #533B36",
"j  c #553D39",
"k  c #4D4336",
"l  c #4C403E",
"z  c #53433D",
"x  c #5A423D",
"c  c #544C3C",
"v  c #343D43",
"b  c #374148",
"n  c #384349",
"m  c #3D484F",
"M  c #3F4C54",
"N  c #494847",
"B  c #524640",
"V  c #5E4641",
"C  c #5A594C",
"Z  c #414E57",
"A  c #43515A",
"S  c #48555E",
"D  c #565453",
"F  c #5F5C53",
"G  c #624642",
"H  c #684743",
"J  c #634A45",
"K  c #6B4E47",
"L  c #694F49",
"P  c #794E4A",
"I  c #73554F",
"U  c #615755",
"Y  c #625958",
"T  c #765B53",
"R  c #7C5E57",
"E  c #7E5F58",
"W  c #616852",
"Q  c #6A615F",
"!  c #7C6157",
"~  c #667158",
"^  c #4F5C64",
"/  c #535F67",
"(  c #57636B",
")  c #5A656D",
"_  c #6D6762",
"`  c gray43",
"'  c #726A67",
"]  c #746B6A",
"[  c #6F7E62",
"{  c #737A68",
"}  c #797F6E",
"|  c #80514E",
" . c #815652",
".. c #875855",
"X. c #81625B",
"o. c #8E625C",
"O. c #A5625F",
"+. c #86716A",
"@. c #8F726A",
"#. c #93736A",
"$. c #9C7A6F",
"%. c #9F7C70",
"&. c #A86563",
"*. c #B56A68",
"=. c #AF716C",
"-. c #B2736E",
";. c #A37E73",
":. c #BC7773",
">. c #86947C",
",. c #A88377",
"<. c #A7867B",
"1. c #A98378",
"2. c #898483",
"3. c #938E8C",
"4. c #8F9B86",
"5. c #979796",
"6. c #989392",
"7. c gray62",
"8. c #AD968F",
"9. c #BB9185",
"0. c #A19F9E",
"q. c #BFAB97",
"w. c #AAA6A6",
"e. c #B1B1B1",
"r. c #BBBBBB",
"t. c #C4988B",
"y. c #C6998C",
"u. c #C89B8E",
"i. c #CA9C8F",
"p. c #CC9E91",
"a. c #C1AD98",
"s. c #D1A295",
"d. c #D2A395",
"f. c #D3A496",
"g. c #D4A596",
"h. c #D6A698",
"j. c #D7A89A",
"k. c #D9AA9B",
"l. c #DDAE9E",
"z. c #C5B19D",
"x. c #DDAFA0",
"c. c #C7B3A0",
"v. c #D5B4A8",
"b. c #E1B2A2",
"n. c #E3B4A4",
"m. c #E4B4A4",
"M. c #E7B8A8",
"N. c #E8B8A8",
"B. c #C2C5BF",
"V. c #D7C7B7",
"C. c #DCCDBD",
"Z. c #C0C0C0",
"A. c #C8C8C8",
"S. c #D3D3D3",
"D. c #E1D1C0",
/* pixels */
"                                                                                                                                ",
"                                                                                                                                ",
"                                                                                                                                ",
"                                                                                                                                ",
"                                                                                                                                ",
"                                                                                                                                ",
"                                                                                                                                ",
"                                                                                                                                ",
"                                                                                                                                ",
"                                                                                                                                ",
"                                                                                                                                ",
"                                                      . . . .         . .                                                       ",
"                                                      X X X X         X X                                                       ",
"                                          . . . . . O < < < > . . . . > < O .                                                   ",
"                                        . X X X X X # u u u y X X X X u u # X                                                   ",
"                                        o # # # # # < h h h a # # # # h h < # X                                                 ",
"                                    . X - u u u u u h J J J G u u u u J J h u # X .                                             ",
"                                    . . # 6 t h h h x J J J J h h h h J J x h 6 < + .                                           ",
"                                        . X 6 J J J J J J J J J J J J J J J J J J 6 X .                                         ",
"                                        X + 8 J J J J J J J J J J J J J J J J J J 7 O .                                         ",
"                                    . X 3 J J J J J J J J J J J J J J J J J J J J j a : X .                                     ",
"                                    . X 3 J J J J J J V V V G J J G V J J J J J J j u > + o                                     ",
"                                    . X 3 J J J J J x u u u a J J a u J J J J J J j u u u 6 X .                                 ",
"                                    . X 3 J J J J J x u u u a J J a u J J J J J J j u u a 6 X .                                 ",
"                                . X 1 u u a j J J J X.d.i.u a J J y.d.L J J J J J J J 6 o .                                     ",
"                                . X 1 u u u j J J J X.d.p.u a J J u.g.L J J J J J J J 6 X .                                     ",
"                                    . X - u j J E d.d.d.d.f.i.J J u.d.d.d.X.J J J J J 6 X .                                     ",
"                                    . X - u j J E d.d.f.d.d.u.G G u.d.d.f.X.J J J J J 3 X .                                     ",
"                                    . X < V G J E d.,.7 0 m.x.9.9.l.m.q 7 #.9.K h x J x j 7 X .                                 ",
"                                    . X 3 J J J R d.$.X + N.n.d.d.n.N.+ X $.d.K u x J J J y X .                                 ",
"                                . X 6 a j J  .&.-.d.;.- > M.m.b.b.m.N.> - ;.d.=.O.P j 6 # O                                     ",
"                                . X 8 j x J ..*.:.d.;.; 1 M.m.m.m.m.N.1 ; ;.d.:.*.| j > X .                                     ",
"                                  . # : 0 x H P o.d.t.%.;.m.m.m.m.m.m.;.%.t.d.o.P G j > X .                                     ",
"                                    . X > j j j I d.j.m.m.m.m.m.m.m.m.m.m.j.d.I j j j > X .                                     ",
"                                      . O : 8 j V E #.k.k.m.m.m.m.m.m.k.k.#.E V j 8 : + X .                                     ",
"                                        . X < j j j T d.f.m.m.m.m.m.m.f.d.T j j j < X X X .                                     ",
"                                      . + 3 0 j j j V T ! l.l.l.l.l.l.! T x d j j 0 3 z T s .                                   ",
"                                    . X , l l l g j t X + h.d.d.d.d.h.+ X 7 p g l l l <.m.#.X .                                 ",
"                                    . X : f g l l j s 3 7 #.@.@.@.@.#.7 3 e f g l l l <.m.#.X .                                 ",
"                                    . X : p s l l l l l l l l l l l l l l l l l l l l <.m.#.X .                                 ",
"                                    . . # 7 q g g l l l l l l l l l l l l l l g g U ] 8.v.+.. .                                 ",
"                                        . X : p s l l l l l l l l l l l l l l s p 3.S.r.e.`                                     ",
"                                          . # 6 9 g g g g g g g g g g g g C F _ ' 0.A.0.2.D .                                   ",
"                                            . X # p p p p p p p p p p p p { >.B.S.Z.e.Q 0 > X .                                 ",
"                                            . X # f s p p l l B B B B p p } 4.B.S.e.7.Y 0 > O X                                 ",
"                                            . X , [ W 0 y z.z.C.C.C.D.y 0 w.S.r.e.D X : 0 0 0 : X X                             ",
"                                            . X , ~ C 0 y c.c.V.V.C.C.p 0 6.r.0.5.N X - 6 0 j y < :                             ",
"                                            . X + 0 0 0 y C.C.q.q.C.C.p 0 8 8 + X .   . X x f.g.g.,.X X                         ",
"                                            . X + 0 0 0 y D.C.a.a.C.D.p 0 0 0 + X .   . X V g.g.g.1.X X                         ",
"                                            . X + 0 0 0 0 S S ) ) S S 0 0 0 0 + X .       . O O O o                             ",
"                                            . X + 0 0 0 0 A A ( ( A A 0 0 0 0 + X .       . X X X X                             ",
"                                            . X * A S ( ( ( ( A A ( ( ( ( S A * X .                                             ",
"                                            . X * A S ( ( ( ( A A ( ( ( ( S A * X .                                             ",
"                                          X 2 b m / ^ S A * * & $ Z S ( ( S A * X .                                             ",
"                                        . X 4 A S ( / A Z X X X X M A ( ( S A * X .                                             ",
"                                        . X 4 A A S n @ @         @ @ A S A A * X .                                             ",
"                                        . X 4 A A A v X X         X X M A A A * X .                                             ",
"                                        . X : r r r 5 X X         X X e r r r @ X .                                             ",
"                                        . X # 6 6 6 > X X         X X 6 6 6 6 + X .                                             ",
"                                    . . % q i d s 6 > X X         X X 6 6 i d w q % .                                           ",
"                                    . X < c c c k 6 > X X         X X 6 6 k c c c < X .                                         ",
"                                    . . # 7 7 7 3 = # X .         . . # # < 7 7 7 % X .                                         ",
"                                        . . . . . . . . . . . . . . . . . . . . . . . .                                         ",
"                                        . . . . . . . .     . . . . . .   . . . . . .                                           "
};
