/* XPM */
static char *_9df54fd638248a684d6269233952372Vtql2NJssU5pIMGE[] = {
/* columns rows colors chars-per-pixel */
"64 64 162 2 ",
"   c #FFDEAD",
".  c #080705",
"X  c #0C0A07",
"o  c #0D0B09",
"O  c #120E0B",
"+  c #16110E",
"@  c #151615",
"#  c #1C1512",
"$  c #191817",
"%  c #1B1E1F",
"&  c #211714",
"*  c #251B17",
"=  c #291A17",
"-  c #251D1A",
";  c #2A1E1A",
":  c #26211E",
">  c #2D211E",
",  c #32231F",
"<  c #202426",
"1  c #2E2522",
"2  c #24292C",
"3  c #2D2A29",
"4  c #362623",
"5  c #332A26",
"6  c #392A26",
"7  c #342C29",
"8  c #3A2B28",
"9  c #3A312D",
"0  c #3E382C",
"q  c #272D30",
"w  c #2F373C",
"e  c #3D3434",
"r  c #3D3C3B",
"t  c #432F2B",
"y  c #44312D",
"u  c #4C342F",
"i  c #45392F",
"p  c #423431",
"a  c #4B3531",
"s  c #463C34",
"d  c #4E3834",
"f  c #433B3B",
"g  c #4A3F3B",
"h  c #523A35",
"j  c #553D39",
"k  c #424336",
"l  c #4C403E",
"z  c #5B433E",
"x  c #554D3D",
"c  c #333D42",
"v  c #364147",
"b  c #3F4043",
"n  c #3B464D",
"m  c #4A4847",
"M  c #49494A",
"N  c #5F4641",
"B  c #535344",
"V  c #585748",
"C  c #565A48",
"Z  c #5A5A4B",
"A  c #434D54",
"S  c #424F58",
"D  c #425059",
"F  c #49565F",
"G  c #535251",
"H  c #5F5E51",
"J  c #5F5E5E",
"K  c #614742",
"L  c #634A45",
"P  c #6A4F49",
"I  c #6D534C",
"U  c #75564E",
"Y  c #765953",
"T  c #7B5E55",
"R  c #5E6653",
"E  c #666B56",
"W  c #6A635F",
"Q  c #6C725F",
"!  c #4A5760",
"~  c #4D5A63",
"^  c #525F67",
"/  c #57636B",
"(  c #616060",
")  c #6C6866",
"_  c #6D6B69",
"`  c #6E7D61",
"'  c #717765",
"]  c #7F7E7D",
"[  c #995F5C",
"{  c #81665C",
"}  c #88665D",
"|  c #83695E",
" . c #9B605D",
".. c #856B60",
"X. c #8E6C64",
"o. c #906C63",
"O. c #847366",
"+. c #8E7169",
"@. c #8B7A6E",
"#. c #927167",
"$. c #95736A",
"%. c #9A776D",
"&. c #9C786E",
"*. c #827F7A",
"=. c #957870",
"-. c #9C7B71",
";. c #B26967",
":. c #B56A68",
">. c #A37E73",
",. c #77866B",
"<. c #7C8A71",
"1. c #908075",
"2. c #93847A",
"3. c #86947C",
"4. c #A28075",
"5. c #A6857A",
"6. c #AE867B",
"7. c #AC8A7F",
"8. c #B0877C",
"9. c #B28A7E",
"0. c #868582",
"q. c #888787",
"w. c #8B8A85",
"e. c #908F8B",
"r. c #9A9A9A",
"t. c #B48B80",
"y. c #BA8F83",
"u. c #AA9584",
"i. c #BD9286",
"p. c #BF988A",
"a. c #B6A596",
"s. c #A5A4A4",
"d. c #AFAFAE",
"f. c #BBB2AF",
"g. c #B2B2B2",
"h. c gray74",
"j. c #C19689",
"k. c #CA9388",
"l. c #C59A8D",
"z. c #CFA193",
"x. c #C5A997",
"c. c #C0AC98",
"v. c #D2A395",
"b. c #D3A496",
"n. c #D4A596",
"m. c #D6A698",
"M. c #DAAB9D",
"N. c #DDAE9F",
"B. c #DEAFA0",
"V. c #C0B1A3",
"C. c #CAB7A5",
"Z. c #CAB9A6",
"A. c #CDBCAA",
"S. c #D0BFAD",
"D. c #E2B2A3",
"F. c #E4B5A5",
"G. c #E7B8A8",
"H. c #D1C0AE",
"J. c #D4C4B3",
"K. c #D5C5B4",
"L. c #DBCCBC",
"P. c gray83",
/* pixels */
"                                                                                                                                ",
"                                                                                                                                ",
"                                                                                                                                ",
"                                                                                                                                ",
"                                                                                                                                ",
"                                                                                                                                ",
"                                                                                                                                ",
"                                                                                                                                ",
"                                                      . . . .         . .                                                       ",
"                                                    . X X X .         X X                                                       ",
"                                          . . . . . # > > > & . . . o > * . .                                                   ",
"                                        X X X X X X > u u u 4 X X X + u 6 X X                                                   ",
"                                    . . > , , , , , y z z z a , , , 4 z h , , . .                                               ",
"                                    X X y u u u u u z L L L z u u u h L N u u X X                                               ",
"                                    . . > , a j j j z L L L N j j j j L K j j 1 >                                               ",
"                                        X X a L L L L L L L L L L L L L L L L L K X X                                           ",
"                                        1 4 j L L L L L L L L L L L L L L L L L L ; ; X                                         ",
"                                    X X z L L L L L L L L L L L L L L L L L L L L u a + X                                       ",
"                                    X X z L L L L L K z z z N L K z N L L L L L L u u * #                                       ",
"                                    X X z L L L L L j u u u j L z u h L L L L L L u u u a O X                                   ",
"                                    # # j z K L L L I U z u j L P U U L L L L L L h h 6 4 o .                                   ",
"                                X X t u u u z L L L &.v.} u j L X.v.i.L L L L L L L L # X                                       ",
"                                X X 6 t u u z L I I >.v.o.z z L X.v.j.I I L L L L L L # X                                       ",
"                                    X X y u z L t.n.b.v.b.n.6.L X.v.v.n.i.L L L L L L # X                                       ",
"                                    X X u h z L 9.v.j.9.l.m.t.Y %.m.z.9.>.Y Y N N L L - #                                       ",
"                                    X X z L L L 9.v.I X | F.B.b.M.F.p.X 5 b.v.u a L L L L + X                                   ",
"                                    X X z L L L 9.v.I X | F.N.v.M.F.p.X 5 v.v.u u L L L L + X                                   ",
"                                X X a j L L  .:.k.v.T = #.F.F.F.F.F.l.= d v.v.:.;.j j + o                                       ",
"                                X X a j L L [ ;.k.v.T ; #.F.F.F.F.F.l.; h v.v.;.;.j j + X                                       ",
"                                    X X d j j j 6.v.N.F.F.F.F.F.F.F.F.F.D.v.v.j j j j + X                                       ",
"                                    X X d j j j 8.b.N.F.F.F.F.F.F.F.F.F.D.b.b.j j j j + X                                       ",
"                                        + + t j K L -.n.N.F.F.F.F.F.D.n.i.L L j j + +                                           ",
"                                        X X 8 j j j $.m.N.F.F.F.F.F.D.m.y.j j j j X X                                           ",
"            X .                         X X O O y j 6 # { n.n.n.n.n.t.# ; j j O O                                               ",
"            X .                         X X X X t j , X T v.v.v.v.v.9.X # j j X X                                               ",
"        . r r.( . .             . . . . 7 9 9 9 Z E l > ..x.x.x.x.x.u.> 9 E E > > . .                                           ",
"      . X G P.0.X X             X X X X f l l l E ` B 8 O.c.c.c.c.c.u.6 s ` ` 8 6 X X                                           ",
"      . X m h.g.s.q.. X X X X X e e e e g l l l E ` B 8 1.K.K.K.A.c.u.6 s ` ` 8 6 X X                                           ",
"      . X m g.h.P.d.X X X X X o l l l l l l l l E ` B 8 2.L.L.L.H.c.u.6 s ` ` 8 6 X X                                           ",
"          : G ] h.g.] _ 5 5 5 5 l l 1 : : : 8 p Q <.Z 8 2.L.L.L.K.S.a.6 g <.<.8 8 - - o .                                       ",
"            X M g.g.P.g.l l l l l l + X X X > 8 ' 3.H 8 2.L.L.L.L.L.V.6 k 3.3.8 8 8 8 O X                                       ",
"              - m J h.f.7.7.7.5.- - X       + # R ,.V 8 @.Z.S.L.L.L.V.6 s ,.,.8 8 s s + X                                       ",
"                X 3 g.f.F.F.F.N.X X         . X C ` B 8 O.c.C.L.L.L.V.6 s ` ` 8 8 l l + X                                       ",
"                . $ ) ) ......{   .         . X k C k 8 @.A.A.A.J.L.V.6 y C C - - l l 1 > X                                     ",
"                    X X X X X X             . X > 8 8 8 2.L.J.c.Z.L.V.6 8 8 8 X o l l l l + X                                   ",
"                    . . . . .               . X > 8 8 8 W e.w.*.0.e.*.6 8 8 8 X O #.+.=.-.# X                                   ",
"                                            . X > 8 8 8 b D D D D D A 8 8 8 8 X O n.v.D.G.- X                                   ",
"                                            . X 3 e f f M F F F F F D f f e e X O %.$.4.5.# .                                   ",
"                                            . X c D ~ / / / / / / / / / ^ D D X X X X X X                                       ",
"                                            . X c D ~ / / / / ^ ^ / / / ^ D D X X . . . .                                       ",
"                                            . X c D ~ / / / ^ D ! / / / ^ D D X X                                               ",
"                                            . X c D ~ / / / F n S / / / ^ D D X X                                               ",
"                                            . X c D ~ / ! D w X < D D / ^ D D X X                                               ",
"                                            . X c D ! ^ A v q X % v n ^ ~ D D X X                                               ",
"                                            . X c D D D 2 X .     X @ D D D D X X                                               ",
"                                            . X c S S S 2 X .     X @ D S S S X X                                               ",
"                                            . X ; 4 4 4 # X .     X O 4 4 4 4 X X                                               ",
"                                            X O > 6 4 4 # X .     X O 4 4 6 6 O O                                               ",
"                                        X o 0 x x x i 4 & X .   . X O 4 8 x x x x X X                                           ",
"                                        X o 0 x x x s 4 & o X   . o + 4 9 x x x x X X                                           ",
"                                        . . o o o o o X . . . . . . . X X o o o o . .                                           ",
"                                        . . . . . . . . . . . . . . . . . . . . . . .                                           ",
"                                                                                                                                ",
"                                                                                                                                "
};
