/* XPM */
static char *_58be42856464aefd71ac5b378575a3fUMli3kxuyInsp9Hf[] = {
/* columns rows colors chars-per-pixel */
"64 64 116 2 ",
"   c #FFDEAD",
".  c #080705",
"X  c #0B0A07",
"o  c #0E0B08",
"O  c #120E0B",
"+  c #16110E",
"@  c #151413",
"#  c #1C1512",
"$  c #1D1916",
"%  c #161818",
"&  c #1B1C1C",
"*  c #201715",
"=  c #221916",
"-  c #251C19",
";  c #291E1A",
":  c #1E221A",
">  c #27211B",
",  c #2D221E",
"<  c #2C281F",
"1  c #32231E",
"2  c #1F2324",
"3  c #252120",
"4  c #2C2421",
"5  c #282D2F",
"6  c #382722",
"7  c #332A24",
"8  c #3A2A26",
"9  c #372F2C",
"0  c #3B2C29",
"q  c #3D312E",
"w  c #293033",
"e  c #2F373C",
"r  c #3A3435",
"t  c #30393E",
"y  c #44312D",
"u  c #4C342F",
"i  c #443A2F",
"p  c #433532",
"a  c #4C3531",
"s  c #453935",
"d  c #4D3935",
"f  c #473A38",
"g  c #493D3B",
"h  c #523A35",
"j  c #553D39",
"k  c #583F3B",
"l  c #3F4535",
"z  c #404737",
"x  c #4C4235",
"c  c #4C403E",
"v  c #52433C",
"b  c #5A423D",
"n  c #544C3C",
"m  c #333C41",
"M  c #364147",
"N  c #3D4A52",
"B  c #4E4340",
"V  c #4F4942",
"C  c #514442",
"Z  c #5E4540",
"A  c #524C41",
"S  c #525143",
"D  c #5D5547",
"F  c #575847",
"G  c #565148",
"H  c #565B48",
"J  c #5B5A4B",
"K  c #414C54",
"L  c #435059",
"P  c #4F5A5F",
"I  c #604742",
"U  c #634A45",
"Y  c #605A4B",
"T  c #615B4C",
"R  c #645450",
"E  c #605655",
"W  c #675E5C",
"Q  c #57614C",
"!  c #5C604D",
"~  c #5D704F",
"^  c #5F6251",
"/  c #617453",
"(  c #677159",
")  c #69775D",
"_  c #6B795D",
"`  c #6B795E",
"'  c #6C795E",
"]  c #4E5B63",
"[  c #57636B",
"{  c #59656C",
"}  c #5E6B6E",
"|  c #6D7B60",
" . c #6E7D61",
".. c #8F6F65",
"X. c #927268",
"o. c #718064",
"O. c #77866B",
"+. c #79876C",
"@. c #79886D",
"#. c #89977E",
"$. c #8A987F",
"%. c #8B9980",
"&. c #8E9C83",
"*. c #8F9D84",
"=. c #909E85",
"-. c #939090",
";. c #979494",
":. c #BDA59E",
">. c #ACACAC",
",. c gray69",
"<. c #CD9F91",
"1. c #CFA596",
"2. c #D2A395",
"3. c #DAAD9E",
"4. c #C2A9A2",
"5. c #E7B7A7",
/* pixels */
"                                                                                                                                ",
"                                                                                                                                ",
"                                                                                                                                ",
"                                                                                                                                ",
"                                                                                                                                ",
"                                                                                                                                ",
"                                                                                                                                ",
"                                                                                                                                ",
"                                                                                                                                ",
"                                                                                                                                ",
"                                                                                                                                ",
"                                                    . X .         X X X X                                                       ",
"                                                    . X .         X X X X                                                       ",
"                                                . X ; y 1 X X X O u y y u o X X X X X                                           ",
"                                                . X 1 u 6 X X X O a u u a o X X X X X                                           ",
"                                            . . = 6 a b d 6 6 6 8 b b b b 6 6 6 6 6 6 O .                                       ",
"                                            X X , u b U b u u u a U U U U a u u u u u # X .                                     ",
"                                        . . ; 6 y j Z U Z j j j b U U U U j j j j 6 , O .                                       ",
"                                        X X d U U U U U U U U U U U U U U U U U U - X                                           ",
"                                    . . = ; j U U U U U U U U U U U U U U b b b b 0 7 O .                                       ",
"                                    X X 6 u Z U U U U U U U U U U U U U U a u u u b U = X .                                     ",
"                                    # # 0 u Z U U U U U U U U U U U U b Z h h h h Z U = X .                                     ",
"                                X X u u u u Z U U U U U U U U U U U I u u U U U U U U = X .                                     ",
"                                . . 6 6 a h Z U U U U U U U U U U U I h h U U U U U U , # O                                     ",
"                                    X X d U U U U U U U U U U U U U U U U U U U U U U h u ; X .                                 ",
"                                    X X d U U U U U U U U U U U U U U U U U U U U U U h u ; X .                                 ",
"                                    X X y j Z U U U j u h U b u a U U U U U U U U h u # X .                                     ",
"                                    O O y j I U U U j a j U b a h U U U U U U U U h a # X .                                     ",
"                                X X j j j j I U U U U U b u j U U U U U U U U U U b j # X .                                     ",
"                                X X j j j j I U U U U U b u j U U U U U U U U U U b j # X .                                     ",
"                                    + + y j j j Z U U U U I I U U U U U U U U U U b j d a ; X .                                 ",
"                                    X X y j j j Z U U U U U U U U U U U U U U U U b j j j , X .                                 ",
"                                    X X y j j j j j Z U U U U U U U U U U U U j j j j - + X                                     ",
"                                    X X y j j j j j Z U U U U U U U U U U U U j j j j # X .                                     ",
"                                    X X $ ; a j j j Z U U U U U U U U b b b b j j 7 ; O X .                                     ",
"                                    X X X X y j j j Z U U U U U U U I j j j j j j = X X X .                                     ",
"                                . . ..X.p , 0 y d j k b b b b b b b b j j j j - - 7 9 9 9 $ .                                   ",
"                                X X <.2.U 0 0 0 a j j j j j j j j j j j j j j o X q c c c 4 X .                                 ",
"                                X X <.2.U 0 p p A Y v a v Y Y Y Y Y D a a D T 4 4 s c f s ; X .                                 ",
"                                X X <.2.U 0 f c ^  .A 0 c  . . . . .( 0 6 '  .c c c c q 0 = X .                                 ",
"                                X X :.4.R p g c G ^ F S !  . . . . .) S S ^ ^ c c f s , - + .                                   ",
"                                X X >.,.W c c c c c ^  . . . . . . . . . .B c c c q 0 + X .                                     ",
"                                X X -.;.E c c c c c ^  . . . . . . . . . .B c f f 7 4 O X .                                     ",
"                                X X g c c c c c c c ^  . . . . . . . . . .B c 0 0 # X                                           ",
"                                $ $ g c r q V G c f J  .o.O.O.O.O.O.O. . .g f x x # .                                           ",
"                            X X g c c c $ X Q  .S 0 F  .@.*.*.*.*.*.$. . .0 6 |  .:                                             ",
"                            X X c C C C $ X H ` S 0 F  .+.&.&.&.&.&.#. . .q 0 ) ` :                                             ",
"                            X X 3.5.5.5.s X X X z  . . .` ~ ~ ~ ~ ~ /  . . .o.o X                                               ",
"                            X . 1.3.3.3.y X X X l ` |  .` / / / / / /  . .` ' o X                                               ",
"                                . X X X     X X - 6 F  .@.=.=.=.=.=.%. . .0 0 o X                                               ",
"                                X X X X     X X ; 0 F  .@.=.=.=.=.=.$. . .0 0 o X                                               ",
"                                            X X 5 K P { { } } } } } } { { K K o X                                               ",
"                                            X X w L ] [ [ [ { { { { { [ { L L o X                                               ",
"                                            X X w L L L L L m @ @ @ & L L L L N N % X                                           ",
"                                            X X w L L L L L e X X X @ L L L L L L & X                                           ",
"                                            X X w L L L M 2 % . . . X 2 2 K L L L & X                                           ",
"                                            X X w L L L t X .         X X N L L L & X                                           ",
"                                            X X 3 r r r 4 X .         X X r r r r # X                                           ",
"                                            X X = 6 6 6 ; X .         X X 7 6 6 6 + X                                           ",
"                                          . - < 7 6 6 6 ; X .         X X 7 6 6 6 4 < o .                                       ",
"                                        X X i n i 6 6 6 ; X .         X X 6 6 6 6 x n $ X .                                     ",
"                                        . X > 7 > * * $ @ . .         X . $ * * * < 7 O . .                                     ",
"                                        . . . . . . . . . . . . . . . . . . . . . . . .                                         ",
"                                        . . . . . . . . . . . . . . . . . . . . . . .                                           "
};
