/* XPM */
static char *a092a5dcbd344c1f9d8acb8e37d6baba3rThxa0ursmCGzLx[] = {
/* columns rows colors chars-per-pixel */
"64 64 130 2 ",
"   c #FFDEAD",
".  c #080604",
"X  c #0B0907",
"o  c #0E0B09",
"O  c #110E0B",
"+  c #15110E",
"@  c #19120F",
"#  c #151313",
"$  c #1C1512",
"%  c #1C1815",
"&  c #1C1D1E",
"*  c #201715",
"=  c #231A16",
"-  c #251C19",
";  c #291E1B",
":  c #2A231E",
">  c #30221E",
",  c #1E2122",
"<  c #202425",
"1  c #2B2422",
"2  c #2C2F24",
"3  c #352623",
"4  c #312925",
"5  c #3B2A26",
"6  c #352F2D",
"7  c #3B2C29",
"8  c #2D3025",
"9  c #373227",
"0  c #3D322D",
"q  c #373C2E",
"w  c #2D3539",
"e  c #373132",
"r  c #3B3433",
"t  c #432E29",
"y  c #45312C",
"u  c #4C342F",
"i  c #453531",
"p  c #4C3631",
"a  c #443936",
"s  c #4C3C35",
"d  c #473C3A",
"f  c #483B39",
"g  c #503732",
"h  c #533B36",
"j  c #553D39",
"k  c #484137",
"l  c #4C403E",
"z  c #474F3D",
"x  c #4D4A3E",
"c  c #55423C",
"v  c #5A423D",
"b  c #544C3C",
"n  c #48513E",
"m  c #353F46",
"M  c #3C484F",
"N  c #3F4C54",
"B  c #474646",
"V  c #4F4441",
"C  c #4F4A42",
"Z  c #4F4E4C",
"A  c #504340",
"S  c #5E4540",
"D  c #524E43",
"F  c #535445",
"G  c #595345",
"H  c #55524B",
"J  c #59574B",
"K  c #555F4A",
"L  c #5B5D4C",
"P  c #414F58",
"I  c #425059",
"U  c #49565F",
"Y  c #555251",
"T  c #604742",
"R  c #634A45",
"E  c #6D5954",
"W  c #705C57",
"Q  c #5D614E",
"!  c #5F6251",
"~  c #5F7251",
"^  c #656653",
"/  c #666854",
"(  c #7F655B",
")  c #6A775D",
"_  c #69795B",
"`  c #4A5760",
"'  c #556169",
"]  c #58646C",
"[  c #666564",
"{  c #696867",
"}  c #7D6D6F",
"|  c #6E7D61",
" . c #707F63",
".. c #7E6E70",
"X. c #747473",
"o. c #856A60",
"O. c #8D6D64",
"+. c #947369",
"@. c #817173",
"#. c #718064",
"$. c #768569",
"%. c #78876D",
"&. c #7B896F",
"*. c #829277",
"=. c #A48276",
"-. c #AC887C",
";. c #858584",
":. c #898988",
">. c #8D8D8C",
",. c #918681",
"<. c #8C9A82",
"1. c #8F9D84",
"2. c #909E85",
"3. c #919191",
"4. c #989897",
"5. c #9D9D9C",
"6. c #AAA6A5",
"7. c #AFA9A7",
"8. c #AAA9A9",
"9. c #AEAEAD",
"0. c gray69",
"q. c #CA9D8F",
"w. c #D3A596",
"e. c #D7AB9C",
"r. c #DCAD9E",
"t. c #C0B2AD",
"y. c #E6B7A7",
"u. c gray77",
"i. c gray80",
"p. c gray83",
/* pixels */
"                                                                                                                                ",
"                                                                                                                                ",
"                                                                                                                                ",
"                                                                                                                                ",
"                                                                                                                                ",
"                                                                                                                                ",
"                                                                                                                                ",
"                                                                                                                                ",
"                                              o X         X X X X .                                                             ",
"                                              X X         X X X X .                                                             ",
"                                          X o y t X X X X 5 t t t * X X X X X X                                                 ",
"                                          X O p y X X X X t u u u * X X X X X X                                                 ",
"                                      X $ y y R S y y y y S T T T h y y y y y 5 X X                                             ",
"                                      X * u p R T u u u u T R R R h u u u u u t X X                                             ",
"                                . . $ i s v v R R v v v v R R R R S v v v y * $                                                 ",
"                                . X ; R R R R R R R R R R R R R R R R R R y X X                                                 ",
"                              . @ ; 7 R R R R R R R R R R R R R R v v v v p 3 : . .                                             ",
"                            . X > u h R R R R R R R R R R R R R R h u u u j R c X X                                             ",
"                        . . $ ; 5 u h R R R R R R R R R R R R v v j j j j v R c X X                                             ",
"                        X X > u u u h R R R R R R R R R R R R h u v R R R R R c X X                                             ",
"                        . X - 5 y h j R R R R R R R R R R R R v h v R R R R R v $ @                                             ",
"                            . X 7 R R R R R R R R R R R R R R R R R R R R R R T u t X X                                         ",
"                            . X 7 T T R R R R v S R R S v R R R R R R R R T v v 7 3 . X                                         ",
"                            . X 3 j v R R R R u p R R p u T R R R R R R R v u t X X                                             ",
"                            . o 3 j v R R R R u p R R g p T R R R R R R R v u t X X                                             ",
"                        X X 3 j j j v R R R R R T y u T R R R R R R R R R S j p X X                                             ",
"                        X X 3 h j j v R R R R R T p p T R R R R R R R R R S j p o o                                             ",
"                            . X 3 j j j v R R R R R R R R R R R R R R R R S j j j p X o                                         ",
"                            . X 3 j j j v R R R R R R R R R R R R R R R R S j j j p X X                                         ",
"                            . X 3 j j j j j v R R R R R R R R R R R R S j j j p + O                                             ",
"                            . X 3 j j j j j j R R R R R R R R R R R R S j j j p X X                                             ",
"                                o + ; j j j j R R R R R R R R v j j j j j 7 + O                                                 ",
"                                . X - j j j j R R R R R R R R v j j j j j 7 X X                                                 ",
"                                  . O - 3 j j v v v v v v v v j j j j y - $ X X                           . .                   ",
"                                      X - j j j j j j j j j j j j j j 7 X X X X                         . X X                   ",
"                                . . O : 0 ^ ^ y i / ^ ^ ^ ^ ^ c y G ^ F 6 6 6 4 . . . .               . B 3.X.. .               ",
"                                . X $ 7 k | ) 7 0 | | | | | | x 7 L | ^ l l l a X X X X             . X [ p.8.X X               ",
"                                . X % i l ! ! D F | | | | | | Q D L ! J l l l d : : : 1 . . . . . . 6 [ 3.u.5.X X               ",
"                                . X = l l l V | | | | | | | | | | J l l l l l l l l l l O X X X X X [ p.u.0.>.X X               ",
"                              . + * 1 l l l V | | | | | | | | | | J l l l l l l l l l l 1 1 1 1 Y { 3.u.4.[ H . .               ",
"                            . X - 7 y l l l V | | | | | | | | | | J l l l l l l l l l l l l l l 6.p.u.0.[ X X                   ",
"                            . X ; 0 a D A f l | | $.$.$.$.$.$.#.| H f l D l r r r r r r E W W W 7.i.9.:.Z X .                   ",
"                            . X 4 l H | Q 7 0 | #.2.1.1.1.1.1.&.| x 7 x | z X X X X X X e.y.y.y.t.0.[ X .                       ",
"                            O % 6 l C K F k k |  .*.*.*.*.*.*.$.| J k x K q X X X o 1 1 =.-.-.-.,.;.Z X .                       ",
"                        X X 4 l l l 6 X 8 | | | | ~ ~ ~ ~ ~ ~ _ | | | n X .       # @.@.+ X X X X X .                           ",
"                        X X 4 A V V 0 X 2 | | | | ~ ~ ~ ~ ~ ~ _ | | | z X .       # } ..+ X X X X X .                           ",
"                        X X o.y.r.w.+.X $ 7 0 | #.2.2.2.2.2.2.&.| x 7 ; X .                                                     ",
"                        X X ( r.w.q.O.X $ 7 0 | | <.<.<.<.<.<.%.| x 7 ; X .                                                     ",
"                            . X X X X X , I I P P P P P P P P P P I I w X .                                                     ",
"                            . X X X X X , I I I I I I I I I I I I I I w X .                                                     ",
"                                    . X , I I ' ' ' ' ' ' ' ' ' ' U I w X .                                                     ",
"                                      X , I I ] ' ' ' ] ] ' ' ' ' ` I w X .                                                     ",
"                                      X , I I I I I I & # N I I I I I w X .                                                     ",
"                                      X , I I I I I I # X M I I I I I w X .                                                     ",
"                                      X , I I I N , < X   , < m I I I w X .                                                     ",
"                                      X , I I I N X X     X X w I I I w X .                                                     ",
"                                      X % r r r e X X     X X 1 r r r 1 X .                                                     ",
"                                      X $ 3 3 3 3 X X     X X - 3 3 3 - X .                                                     ",
"                                  . + : 1 3 3 3 3 X X     X X - 3 3 3 3 : % . .                                                 ",
"                                . X - b s 3 3 3 3 X X     X X - 3 3 3 y b 9 X X                                                 ",
"                                . X + 4 : * * * % . X     . X + * * * - 4 = X .                                                 ",
"                                . . . . . . . . . . . . . . . . . . . . . . . .                                                 ",
"                                . . . . . . . . . . . . . . . . . . . . . . . .                                                 ",
"                                                                                                                                "
};
