/* XPM */
static char *_eab09e171cb401899238b679a23b8d0rgVWkuEzj3qVtFks[] = {
/* columns rows colors chars-per-pixel */
"64 64 149 2 ",
"   c #FFDEAD",
".  c #080705",
"X  c #0C0A07",
"o  c #0E0B08",
"O  c #120E0B",
"+  c #1D1613",
"@  c #201714",
"#  c #221916",
"$  c #2A1A17",
"%  c #251D1A",
"&  c #291E1B",
"*  c #3A1913",
"=  c #2D221E",
"-  c #2D281F",
";  c #32231F",
":  c #2A2321",
">  c #212628",
",  c #24292C",
"<  c #352522",
"1  c #382622",
"2  c #352A24",
"3  c #392A26",
"4  c #362E2B",
"5  c #3B2C29",
"6  c #3E312F",
"7  c #2D3235",
"8  c #3D3330",
"9  c #313A3F",
"0  c #3D3A3D",
"q  c #4E251E",
"w  c #6A291F",
"e  c #43322E",
"r  c #4B342F",
"t  c #433533",
"y  c #4D3530",
"u  c #463937",
"i  c #4F3935",
"p  c #4B3E3C",
"a  c #533B36",
"s  c #553D39",
"d  c #7F2F23",
"f  c #65332B",
"g  c #6A352C",
"h  c #7F3125",
"j  c #653B34",
"k  c #6F3F37",
"l  c #753B31",
"z  c #4C403E",
"x  c #4F4C3F",
"c  c #57463E",
"v  c #5A423D",
"b  c #534B3B",
"n  c #6B433C",
"m  c #714139",
"M  c #323C41",
"N  c #3F4E57",
"B  c #3F4E58",
"V  c #564744",
"C  c #5F4641",
"Z  c #564944",
"A  c #525143",
"S  c #5B594D",
"D  c #424F57",
"F  c #425059",
"G  c #48555D",
"H  c #624741",
"J  c #634A45",
"K  c #6A554C",
"L  c #77504D",
"P  c #745750",
"I  c #7F5551",
"U  c #735F55",
"Y  c #7A5D55",
"T  c #5E6450",
"R  c #636156",
"E  c #636A56",
"W  c #75655A",
"Q  c #4E5B63",
"!  c #505D65",
"~  c #58636B",
"^  c #7E6E64",
"/  c #6E7E61",
"(  c #727766",
")  c #747969",
"_  c #823226",
"`  c #843529",
"'  c #893629",
"]  c #8A382B",
"[  c #924639",
"{  c #93483B",
"}  c #9C564F",
"|  c #875551",
" . c #925A57",
".. c #A0534B",
"X. c #86655E",
"o. c #9A6155",
"O. c #A66557",
"+. c #8D6B62",
"@. c #906E64",
"#. c #937167",
"$. c #957369",
"%. c #9B766B",
"&. c #997A6F",
"*. c #837770",
"=. c #857972",
"-. c #8A7D75",
";. c #9C7B70",
":. c #A56260",
">. c #B76B69",
",. c #B86B69",
"<. c #AA7466",
"1. c #A07A6F",
"2. c #85937B",
"3. c #A68073",
"4. c #AF8776",
"5. c #AD8679",
"6. c #B98077",
"7. c #B2897D",
"8. c #B88C7E",
"9. c #C3847C",
"0. c #B68D80",
"q. c #B98F82",
"w. c #BC9284",
"e. c #B99E8B",
"r. c #B7A593",
"t. c #BFAB97",
"y. c #C39C8E",
"u. c #C99E8F",
"i. c #CFA092",
"p. c #C0AB97",
"a. c #C0AC98",
"s. c #D3A394",
"d. c #D5A596",
"f. c #D9AA9B",
"g. c #DEAF9F",
"h. c #C3B09C",
"j. c #DEAFA0",
"k. c #C0B1A1",
"l. c #CBB9A7",
"z. c #C7B9AA",
"x. c #D2BDAE",
"c. c #E1B2A2",
"v. c #E4B5A5",
"b. c #E9B9A9",
"n. c #CFC2B5",
"m. c #D4C4B3",
"M. c #D7C8B8",
"N. c #DACBBC",
"B. c #DACCBD",
/* pixels */
"                                                                                                                                ",
"                                                                                                                                ",
"                                                                                                                                ",
"                                                                                                                                ",
"                                                                                                                                ",
"                                                                                                                                ",
"                                                                                                                                ",
"                                                                                                                                ",
"                                                                                                                                ",
"                                                                                                                                ",
"                                                                                                                                ",
"                                                          X X X .       . X .                                                   ",
"                                                        . O O O X       X O X                                                   ",
"                                            . X X X X X @ y y y 1 X X X ; y < X .                                               ",
"                                            . X X X X X + r r r 1 X X X = r ; X .                                               ",
"                                        . X & r r r r r a J J J v r r r v J v r & X .                                           ",
"                                          X & r r y y y a J J J v y y y v J v y = O X                                           ",
"                                              X & J J J J J J J J J J J J J J J J J e X .                                       ",
"                                            . X & J J J J J J J J J J J J J J J J J e X .                                       ",
"                                        . X 2 J J J J J J J J J J J J J J J J J J J v r & X .                                   ",
"                                        . X 2 J J J J J J J J J J J J J J J J J J J v r & o X                                   ",
"                                        . X 2 J J J J J v r r r a J v r v J J J J J v r y y < X .                               ",
"                                          X 2 J J J J J v r r r a J v r v J J J J J v r r y < X .                               ",
"                                    . X @ r r y a J J J X.i.$.r a J n h k J J J J J J J 2 o .                                   ",
"                                    . X @ r r r a J J J +.s.%.y a J m ` m J J J J J J J 2 X .                                   ",
"                                          X & r a J $.d.d.s.s.d.7.J #.d.O._ l J J J J J 2 X .                                   ",
"                                        . X = a s J $.s.y.5.w.d.q.Y ;.d.o.w g n H C H J 5 + O                                   ",
"                                        . X 2 J J J $.s.#.X K v.j.s.f.v.K X * _ f r a J J J e X .                               ",
"                                        . X 2 J J J $.s.#.X K v.j.s.f.v.K X * _ f y s J J J e X .                               ",
"                                    . X % s v J I >.9.s.%.$ Y v.v.v.v.v.Y $ q ` ..,. .s = X .                                   ",
"                                    . X @ y s H L :.6.s.3.r +.v.v.v.v.v.+.r j { } :.| s = X .                                   ",
"                                        . X = s s s +.s.f.v.v.v.v.v.v.v.v.v.g.s.+.s s s = X .                                   ",
"                                        . X = s s s +.s.f.v.v.v.v.v.v.v.v.v.g.s.+.s s s = X .                                   ",
"                                            . X @ s s a Y s.f.v.v.v.v.v.f.s.1.a s s 3 X .                                       ",
"                                            . X + y i s P 0.u.c.c.c.c.c.u.0.@.s i y < X .                                       ",
"                                                  X = s 5 X H s.s.s.s.s.J X % s = X .                                           ",
"                                                  X = s 5 X H s.s.s.s.s.J X & s = X .                                           ",
"                                            . X + 5 A / T 5 W a.a.a.a.a.W 5 x / A 5 & X .                                       ",
"                                            . X + 5 A / T 5 W h.p.e.e.e.U 5 Z / A 5 & X .                                       ",
"                                            . X + 5 A / E z -.N.y.' ` d j z S / A 5 & X .                                       ",
"                                            . X + 5 A / E z -.N.y.' ` _ j z S / A 5 & X .                                       ",
"                                        . X @ 5 5 5 S 2.) z -.N.B.B.w.] j z R 2.S 5 5 5 @ X .                                   ",
"                                        . X @ 5 5 5 S 2.( z =.M.m.x.8.[ n z R 2.S 5 5 5 # X .                                   ",
"                                        . X : z u 5 A / E z ^ p.4.' <.B.-.z S / A 5 t z : X .                                   ",
"                                          X : z u 5 A / E z ^ t.4.' <.N.-.z S / A 5 t z : X .                                   ",
"                                    . X % z z z 4 X @ 5 6 z -.N.m.a.l.N.-.z t 5 @ X % z z z 4 X .                               ",
"                                    . X % V V V 8 X @ 5 6 p *.n.z.r.k.n.=.p t 5 @ X = V V V 6 X .                               ",
"                                    . X c v.g.d.#.X @ 5 5 5 0 N N B N N 0 5 5 5 @ X c d.g.v.&.X .                               ",
"                                    . X c b.c.d.$.X @ 3 3 3 0 F F F F F 0 3 3 3 @ X c d.c.b.;.X .                               ",
"                                        . X X X X X 7 ~ ~ ~ ~ ~ ! F Q ~ ~ ~ ~ ~ 7 X X X X X .                                   ",
"                                          X X X X X 7 ~ ~ ~ ~ ~ Q N G ~ ~ ~ ~ ~ 7 X X X X X .                                   ",
"                                                . X 7 ~ ~ ~ Q F 9 X > F Q ~ ~ ~ 7 X .                                           ",
"                                                  X 7 ~ ~ ~ Q F M X , F Q ~ ~ ~ 7 X .                                           ",
"                                                  X , F F F 7 o X   . o 7 F F F , X .                                           ",
"                                                  X , D D D 7 X .   . X 7 D D D , X .                                           ",
"                                                  X + < < < @ X .   . X @ < < < @ X .                                           ",
"                                                  X @ < < < @ X .   . X @ < < < + X .                                           ",
"                                                  X - b b b 2 X .   . X 2 b b b - X .                                           ",
"                                                  X - b b b 2 X .   . X 2 b b b - X .                                           ",
"                                            . . . . .     . . . . . . . . . .   . . . . .   .                                   ",
"                                            . . . . . . . . . . . . . . . . . . . . . . .                                       ",
"                                                          .               .               .                                     ",
"                                                                                                                                ",
"                                                                                                                                "
};
